<?xml version="1.0" encoding="UTF-8"?>
<!DOCTYPE svg PUBLIC "-//W3C//DTD SVG 1.1//EN" "http://www.w3.org/Graphics/SVG/1.1/DTD/svg11.dtd">
<!-- Creator: CorelDRAW -->
<svg xmlns="http://www.w3.org/2000/svg" xml:space="preserve" width="1.70666in" height="1.70666in" version="1.1" style="shape-rendering:geometricPrecision; text-rendering:geometricPrecision; image-rendering:optimizeQuality; fill-rule:evenodd; clip-rule:evenodd"
viewBox="0 0 1706.66 1706.66"
 xmlns:xlink="http://www.w3.org/1999/xlink"
 xmlns:xodm="http://www.corel.com/coreldraw/odm/2003">
 <defs>
  <style type="text/css">
   <![CDATA[
    .fil0 {fill:url(#id0)}
   ]]>
  </style>
  <linearGradient id="id0" gradientUnits="userSpaceOnUse" x1="233.4" y1="853.33" x2="1473.28" y2="853.33">
   <stop offset="0" style="stop-opacity:1; stop-color:#FFB800"/>
   <stop offset="1" style="stop-opacity:1; stop-color:#FF5329"/>
  </linearGradient>
 </defs>
 <g id="Layer_x0020_1">
  <metadata id="CorelCorpID_0Corel-Layer"/>
  <path class="fil0" d="M1083.43 1699.59l-460.2 0c-343.2,0 -622.41,-279.22 -622.41,-622.43l0 -447.66c0,-343.2 279.22,-622.42 622.41,-622.42l460.2 0c343.2,0 622.42,279.22 622.42,622.42l0 447.66c0,343.2 -279.22,622.43 -622.42,622.43zm-41.77 -149.97l-376.67 0c-282.91,0 -513.08,-230.17 -513.08,-513.08l0 -366.41c0,-282.91 230.15,-513.08 513.08,-513.08l376.67 0c282.93,0 513.1,230.15 513.1,513.08l0 366.41c0,282.91 -230.17,513.08 -513.1,513.08zm180.67 -483.89c3.65,-4.99 43.91,-33.41 12.73,-65.72 -12.9,-13.37 -37.07,-14.08 -51.63,0.48l-159 159.02c-33.29,33.29 16.93,95.06 61.86,42.27l136.04 -136.04zm57.09 -7.52l65.75 -0.01c26.28,0 26.32,39.94 0,39.96l-98.76 0.02 -123.73 123.73 0 98.74c0,26.31 -39.96,26.3 -39.96,0l0 -65.43c-22.59,10.42 -50.67,9.06 -71.09,-2.62l-62.33 62.34c-18.27,18.34 -47.15,-9.39 -28.27,-28.27l63.09 -63.1c-11.28,-21.43 -13.16,-48.14 -6.7,-70.3l-62.08 0c-26.31,0 -26.3,-39.96 0,-39.96l89.24 0 133.23 -133.23 0 -89.26c0,-26.3 39.96,-26.3 39.96,0l0 61.22c20.79,-5.33 47.8,-3.34 69.66,8.23l63.76 -63.74c18.63,-18.63 46.85,9.68 28.27,28.27l-62.94 62.93c11.57,20.12 13.02,48.01 2.89,70.48zm-405.33 355.24l-107.9 0c-26.3,0 -26.3,-39.96 0,-39.96l107.9 0c26.3,0 26.31,39.96 0,39.96zm-351.94 -644.18c-66.62,0 -120.81,-54.19 -120.81,-120.8 0,-66.62 54.2,-120.81 120.81,-120.81 66.61,0 120.81,54.2 120.81,120.81 0,66.61 -54.2,120.8 -120.81,120.8zm0 -201.65c-106.41,0 -106.41,161.69 0,161.69 106.42,0 106.4,-161.69 0,-161.69zm242.24 413.33c-114.05,0 -114.04,-173.31 0,-173.31 114.03,0 114.06,173.31 0,173.31zm0 -133.35c-61.44,0 -61.46,93.37 0,93.37 61.45,0 61.45,-93.37 0,-93.37zm618.58 -39.09c-25.91,0 -61.78,-44.24 -73.67,-62.34 -48.3,-73.51 62.12,-114.54 -141.21,-95.51 -74.05,6.93 -117.01,3.85 -121.29,-89.03 -3.57,-77.68 -30.06,-74.08 -91.57,-61.62 -43.31,8.78 -97.22,19.72 -135.43,-21.61 -17.86,-19.31 11.49,-46.45 29.35,-27.13 57.26,61.96 228.5,-88.3 237.57,108.51 3.49,75.76 26.94,50.94 131.08,47.26 171.27,-6.05 97.94,76.19 124.89,117.22 35.71,54.38 69.14,43.87 59,71.22 -2.99,8.04 -10.62,13.02 -18.74,13.02zm-1059.26 345.46c-19.02,0 -27.36,-24.4 -12.04,-35.96l88.62 -66.78c20.93,-15.78 44.99,16.13 24.06,31.93 -15.35,11.59 -87.06,70.81 -100.65,70.81zm332.02 -688.53c-11.03,0 -19.98,-8.95 -19.98,-19.98l0 -132.3c0,-26.31 39.96,-26.31 39.96,0l0 132.3c0,11.03 -8.94,19.98 -19.98,19.98zm-81.15 811.51c-114.04,0 -114.05,-173.32 0,-173.32 114.05,0 114.05,173.32 0,173.32zm0 -133.35c-61.44,0 -61.46,93.37 0,93.37 61.46,0 61.45,-93.37 0,-93.37zm661.87 -630.53c-114.05,0 -114.04,-173.31 0,-173.31 114.03,0 114.06,173.31 0,173.31zm0 -133.33c-61.44,0 -61.44,93.38 0,93.38 61.43,0 61.45,-93.38 0,-93.38zm-194.79 1203.19l-376.67 0c-301.31,0 -546.41,-245.11 -546.41,-546.41l0 -366.41c0,-301.31 245.09,-546.41 546.41,-546.41l376.67 0c301.32,0 546.43,245.09 546.43,546.41l0 366.41c0,301.31 -245.11,546.41 -546.43,546.41z"/>
 </g>
</svg>
