<?xml version="1.0" encoding="UTF-8"?>
<!DOCTYPE svg PUBLIC "-//W3C//DTD SVG 1.1//EN" "http://www.w3.org/Graphics/SVG/1.1/DTD/svg11.dtd">
<!-- Creator: CorelDRAW -->
<svg xmlns="http://www.w3.org/2000/svg" xml:space="preserve" width="1.70666in" height="1.70666in" version="1.1" style="shape-rendering:geometricPrecision; text-rendering:geometricPrecision; image-rendering:optimizeQuality; fill-rule:evenodd; clip-rule:evenodd"
viewBox="0 0 1706.66 1706.66"
 xmlns:xlink="http://www.w3.org/1999/xlink"
 xmlns:xodm="http://www.corel.com/coreldraw/odm/2003">
 <defs>
  <style type="text/css">
   <![CDATA[
    .fil0 {fill:url(#id0)}
   ]]>
  </style>
  <linearGradient id="id0" gradientUnits="userSpaceOnUse" x1="233.39" y1="853.33" x2="1473.28" y2="853.33">
   <stop offset="0" style="stop-opacity:1; stop-color:#FFB800"/>
   <stop offset="1" style="stop-opacity:1; stop-color:#FF5329"/>
  </linearGradient>
 </defs>
 <g id="Layer_x0020_1">
  <metadata id="CorelCorpID_0Corel-Layer"/>
  <path class="fil0" d="M1559.6 1309.43l-454.1 0 0 166.24c62.68,1.79 113.13,53.32 113.13,116.43 0,18.28 4.64,46.86 -19.63,46.86l-691.33 0c-24.26,0 -19.61,-28.57 -19.61,-46.86 0,-63.1 50.43,-114.64 113.11,-116.43l0 -166.23 -454.09 0c-81.11,0 -147.08,-65.98 -147.08,-147.08l0 -964.22c0,-81.11 65.97,-147.07 147.08,-147.07l1412.52 0c81.1,0 147.07,65.98 147.07,147.07l0 964.23c0,81.09 -65.96,147.07 -147.06,147.07zm-20.28 -889.76l-273.21 0c-47.38,0 -47.37,-71.96 0,-71.96l273.21 0c47.38,0 47.38,71.96 0,71.96zm0 194.8l-273.21 0c-47.38,0 -47.37,-71.96 0,-71.96l273.21 0c47.38,0 47.38,71.96 0,71.96zm0 194.81l-273.21 0c-47.38,0 -47.37,-71.95 0,-71.95l273.21 0c47.38,0 47.38,71.95 0,71.95zm-1155.79 106l-216.19 0c-10.83,0 -19.62,-8.8 -19.62,-19.61l0 -221.94c0,-10.83 8.79,-19.61 19.62,-19.61l196.57 0 0 -95.6c0,-10.83 8.79,-19.62 19.62,-19.62l196.58 0 0 -124.1c0,-10.83 8.79,-19.62 19.62,-19.62l196.57 0 0 -133.84c0,-10.83 8.79,-19.62 19.62,-19.62l216.19 0c10.83,0 19.62,8.79 19.62,19.62l0 634.33c0,10.83 -8.79,19.63 -19.62,19.63l-648.57 0zm289.59 560.31l360.43 0 0 -166.18 -360.43 0 0 166.18zm234.88 -284.28l-109.31 0c-25.82,0 -25.82,-39.23 0,-39.23l109.31 0c25.82,0 25.82,39.23 0,39.23zm-836.05 -140.41l1562.74 -0.01 0 -852.79c0,-41.41 -33.69,-75.11 -75.1,-75.11l-1412.52 0c-41.42,0 -75.12,33.7 -75.12,75.12l0 852.79z"/>
 </g>
</svg>
