<?xml version="1.0" encoding="UTF-8"?>
<!DOCTYPE svg PUBLIC "-//W3C//DTD SVG 1.1//EN" "http://www.w3.org/Graphics/SVG/1.1/DTD/svg11.dtd">
<!-- Creator: CorelDRAW -->
<svg xmlns="http://www.w3.org/2000/svg" xml:space="preserve" width="1.70666in" height="1.70666in" version="1.1" style="shape-rendering:geometricPrecision; text-rendering:geometricPrecision; image-rendering:optimizeQuality; fill-rule:evenodd; clip-rule:evenodd"
viewBox="0 0 1706.66 1706.66"
 xmlns:xlink="http://www.w3.org/1999/xlink"
 xmlns:xodm="http://www.corel.com/coreldraw/odm/2003">
 <defs>
  <style type="text/css">
   <![CDATA[
    .fil0 {fill:url(#id0)}
   ]]>
  </style>
  <linearGradient id="id0" gradientUnits="userSpaceOnUse" x1="233.39" y1="853.33" x2="1473.28" y2="853.33">
   <stop offset="0" style="stop-opacity:1; stop-color:#FFB800"/>
   <stop offset="1" style="stop-opacity:1; stop-color:#FF5329"/>
  </linearGradient>
 </defs>
 <g id="Layer_x0020_1">
  <metadata id="CorelCorpID_0Corel-Layer"/>
  <path class="fil0" d="M877.74 1637.25c-65.18,0.02 -125.79,-34.83 -158.17,-90.92l-189.8 -328.76 -189.81 328.76c-50.06,86.69 -162.06,116.71 -248.77,66.66 -86.96,-50.24 -116.87,-161.82 -66.68,-248.77l294.96 -510.89 -294.96 -510.88c-69.67,-120.68 17.52,-273.04 157.26,-273.04 65.19,0 125.8,34.85 158.17,90.92l189.81 328.8 189.82 -328.8c80.15,-138.83 291.21,-113.65 333.42,43.99 12.62,47.12 6.22,96.17 -18.01,138.14l-294.94 510.88 294.95 510.89c70.19,121.56 -18.53,273.03 -157.24,273.03zm358.74 -1429.52l379.51 0c3.23,-17.41 4.97,-34.72 4.05,-49.4 -3.59,-47.44 68.61,-52.99 72.13,-5.29 3.22,43.66 -9.41,100.14 -24.49,140.38 -32.87,87.72 -92.7,157.64 -167.48,210.76 112.23,78.82 197.57,200.54 205.82,340.09 9.22,156 -79.88,279.5 -207.19,362.71 111.87,81.65 238.33,210.26 180.56,355.72l-5.91 13.07 -1.67 -0.44c-27.51,29.82 -77.03,-1.07 -58.5,-42.04 5,-11.07 7.48,-22.94 8.02,-35.02l-390.06 0c0.57,11.85 3.14,23.49 8.31,34.36 22.87,48.02 -45.42,76.78 -65.34,30.99 -63.87,-146.77 82.41,-282.86 192.11,-358.39 -124.94,-87.19 -204.94,-212.26 -194.26,-366.19 9.31,-134.19 86.72,-253.82 192.89,-333.1 -78.59,-52.45 -143.2,-122.48 -178.61,-212.15 -15.81,-40.03 -29.32,-97.14 -25.86,-140.91 3.73,-47.28 75.51,-41.94 72.1,5.5 -1.07,14.87 0.59,32.08 3.86,49.34zm22.53 72.31c35.3,79.18 98.98,139.15 173.06,182.61 71.19,-44.33 129.63,-104.74 162.39,-182.61l-335.46 0zm346.17 1145.91c-32.5,-69.68 -106.09,-131.69 -173.12,-177.59 -69.98,45.28 -148.76,107.5 -183.56,177.59l356.68 0zm-32.79 -748.37c-36.28,-52.93 -85.43,-97.9 -139.27,-130.97 -51.64,33.6 -97.56,78.65 -131.31,130.97l270.58 0zm39.02 72.33l-346.31 0c-25.43,67.22 -29.58,139.71 -8.02,206.73l362.76 0c23.09,-67.42 18.56,-139.59 -8.43,-206.73zm-319.94 279.05c35.26,54.98 83.24,96.69 141.65,133.64 60.44,-36.14 112.02,-77.67 150.15,-133.64l-291.81 0z"/>
 </g>
</svg>
