<?xml version="1.0" encoding="UTF-8"?>
<!DOCTYPE svg PUBLIC "-//W3C//DTD SVG 1.1//EN" "http://www.w3.org/Graphics/SVG/1.1/DTD/svg11.dtd">
<!-- Creator: CorelDRAW -->
<svg xmlns="http://www.w3.org/2000/svg" xml:space="preserve" width="1.70666in" height="1.70666in" version="1.1" style="shape-rendering:geometricPrecision; text-rendering:geometricPrecision; image-rendering:optimizeQuality; fill-rule:evenodd; clip-rule:evenodd"
viewBox="0 0 1706.66 1706.66"
 xmlns:xlink="http://www.w3.org/1999/xlink"
 xmlns:xodm="http://www.corel.com/coreldraw/odm/2003">
 <defs>
  <style type="text/css">
   <![CDATA[
    .fil0 {fill:url(#id0)}
   ]]>
  </style>
  <linearGradient id="id0" gradientUnits="userSpaceOnUse" x1="233.39" y1="853.33" x2="1473.28" y2="853.33">
   <stop offset="0" style="stop-opacity:1; stop-color:#FFB800"/>
   <stop offset="1" style="stop-opacity:1; stop-color:#FF5329"/>
  </linearGradient>
 </defs>
 <g id="Layer_x0020_1">
  <metadata id="CorelCorpID_0Corel-Layer"/>
  <path class="fil0" d="M787.5 592.61c-178.03,141.42 -194.49,380.81 0.75,525.26 -83.58,59.61 -185.7,162.15 -137.34,272.91 20.13,46.11 87.34,16.09 65.15,-30.48 -2.02,-4.26 -3.44,-8.7 -4.34,-13.25l273.65 0c-0.87,4.79 -2.26,9.46 -4.28,13.93 -17.46,38.63 28.28,69.52 56.55,43.09l2.46 1.03c21.28,-47.03 26.95,-83.95 5.33,-137.19 -23.52,-57.92 -74.13,-108.09 -127.21,-148.27 208.45,-144.02 190.96,-386.93 0.77,-528.8 53.13,-40.07 95.44,-91.76 119.29,-155.64 11.71,-31.35 21.36,-74.98 18.87,-108.96 -3.46,-47.25 -75.48,-42.08 -71.77,5.28 0.5,8.35 -0.18,17.87 -1.65,27.67l-270.55 0c-1.49,-9.78 -2.15,-19.3 -1.55,-27.69 3.37,-47.13 -68.06,-52.47 -71.74,-5.41 -2.67,34.13 7.65,78.24 19.94,109.48 25.73,65.44 71.51,117.37 127.64,157.06zm-666.93 313.59l-53.38 93.17c-6.43,11.22 -18.34,18.1 -31.24,18.1 -27.48,0 -44.86,-30.01 -31.2,-53.85l111.94 -195.36c13.8,-24.07 48.65,-24.07 62.44,0l111.94 195.36c23.48,40.99 -38.8,77.01 -62.43,35.77l-26.67 -46.54c76.63,346.12 387.43,598.83 756.12,598.83 42.86,0 56.37,71.91 -8.63,71.99 -419.6,0.51 -770.18,-312.83 -828.9,-717.46zm1383.59 -153.01c-76.77,-341.59 -383.82,-598.71 -747.11,-598.26 -64.21,0.07 -52.14,-71.54 -9.04,-71.91 423.36,-3.61 778.87,309.07 837.93,717.38l53.37 -93.13c23.48,-40.99 86.05,-5.49 62.41,35.76l-111.93 195.36c-13.81,24.09 -48.62,24.09 -62.42,0l-111.94 -195.36c-23.49,-41 38.78,-77.02 62.42,-35.76l26.31 45.92zm-522.22 31.2l-248.51 0c-15.81,44.93 -18.55,93.09 -5.62,137.87l259.5 0c14.03,-45.13 11.29,-92.98 -5.38,-137.87zm-13.28 490.7c-25.19,-44.05 -72.19,-83.7 -115.97,-114.15 -45.82,30.1 -96.1,69.87 -123.1,114.15l239.07 0zm-204.8 -280.89c23.42,31.78 54.62,58.98 89.89,81.39 36.44,-21.83 69.82,-49.05 95.11,-81.39l-185 0zm177.59 -281.77c-24.2,-31.34 -54.65,-58.28 -87.67,-79.23 -31.4,21.19 -59.76,48.2 -82.24,79.23l169.91 0zm-204.72 -281.32c25.84,50.16 67.75,89.07 115.98,118.22 46.19,-29.67 84.77,-68.8 108.69,-118.22l-224.67 0z"/>
 </g>
</svg>
