<?xml version="1.0" encoding="UTF-8"?>
<!DOCTYPE svg PUBLIC "-//W3C//DTD SVG 1.1//EN" "http://www.w3.org/Graphics/SVG/1.1/DTD/svg11.dtd">
<!-- Creator: CorelDRAW -->
<svg xmlns="http://www.w3.org/2000/svg" xml:space="preserve" width="1.70666in" height="1.70666in" version="1.1" style="shape-rendering:geometricPrecision; text-rendering:geometricPrecision; image-rendering:optimizeQuality; fill-rule:evenodd; clip-rule:evenodd"
viewBox="0 0 1706.66 1706.66"
 xmlns:xlink="http://www.w3.org/1999/xlink"
 xmlns:xodm="http://www.corel.com/coreldraw/odm/2003">
 <defs>
  <style type="text/css">
   <![CDATA[
    .fil0 {fill:url(#id0)}
   ]]>
  </style>
  <linearGradient id="id0" gradientUnits="userSpaceOnUse" x1="233.39" y1="853.33" x2="1473.28" y2="853.33">
   <stop offset="0" style="stop-opacity:1; stop-color:#FFB800"/>
   <stop offset="1" style="stop-opacity:1; stop-color:#FF5329"/>
  </linearGradient>
 </defs>
 <g id="Layer_x0020_1">
  <metadata id="CorelCorpID_0Corel-Layer"/>
  <path class="fil0" d="M1170.3 1695.35c-334.97,0 -573.26,-293.94 -532.61,-619.47 -165.89,30.16 -354.29,-24.48 -479.85,-150.05 -336.63,-336.64 -97.25,-914.52 378.8,-914.52 328.09,0 578.22,288.16 529.26,622.31 174.18,-31.89 351.85,15.89 483.17,147.2 208.87,208.87 208.87,548.74 0,757.62 -101.2,101.18 -235.71,156.92 -378.78,156.92zm11.58 -637.72c-74.48,0 -135.08,60.59 -135.08,135.08 0,74.5 60.59,135.09 135.08,135.09 74.5,0 135.09,-60.59 135.09,-135.09 0,-74.48 -60.6,-135.08 -135.09,-135.08zm-173.15 160.91c-35.12,1.27 -66.96,3.85 -66.96,-20.38 0,-23.93 31.09,-21.7 65.7,-20.42 2.81,-33.03 14.84,-63.48 33.49,-88.76 -11.55,-11.08 -23.65,-24.87 -32.72,-33.95 -18.61,-18.63 9.68,-46.87 28.27,-28.26 11.2,11.2 23.47,21.75 33.26,31.62 23.95,-20.03 53.32,-33.79 85.56,-38.72 -0.15,-14.18 1.14,-30.8 1.14,-47.08 0,-26.31 39.96,-26.3 39.96,0 0,15.8 1.21,31.89 1.15,45.78 32.93,2.94 63.28,15.03 88.44,33.71 23.97,-25.76 44.67,-50.18 61.81,-33 16.93,16.96 -6.63,37.32 -32.07,60.97 20.28,24.06 34.22,53.63 39.19,86.11 14.19,-0.15 30.8,1.14 47.08,1.14 26.3,0 26.3,39.96 0,39.96 -15.79,0 -31.89,1.21 -45.78,1.15 -2.94,32.93 -15.04,63.27 -33.72,88.44 25.76,23.97 50.17,44.66 33,61.81 -17.41,17.4 -39.21,-8.81 -60.99,-32.06 -24.23,20.42 -54.06,34.4 -86.82,39.27 1.27,35.11 3.85,66.97 -20.37,66.97 -23.94,0 -21.7,-31.09 -20.43,-65.7 -32.94,-2.8 -63.31,-14.77 -88.54,-33.34 -8.24,8.42 -35.19,38.43 -48.3,38.43 -17.62,0 -26.79,-21.49 -14.14,-34.13 11.2,-11.19 21.75,-23.46 31.63,-33.25 -20.18,-24.14 -34,-53.78 -38.83,-86.31zm-528.29 -480.57c-0.01,0 -0.01,0 0,0 -59.06,0 -122.58,-47.85 -114.56,-103.65 7.74,-53.8 -7.37,-114.99 -44.9,-181.89 -17.1,-30.47 -16.12,-67.77 2.62,-99.75 25.53,-43.59 77.72,-65.84 127.15,-53.02 113.89,9.32 183.46,127.71 185.01,237.56 1.07,76.42 -29.85,139.8 -84.89,174.24 -19.46,17.33 -43.76,26.5 -70.43,26.5zm-58.96 -402.14c-50.96,0 -89.19,55.11 -65.66,97.06 41.93,74.75 58.63,144.43 49.61,207.14 -5.3,36.78 73.11,84.05 119.79,40.74 0.97,-0.9 2.04,-1.72 3.18,-2.4 124.91,-75.47 63.52,-328.39 -82.43,-338.99l-24.49 -3.54zm-191.32 276.65l-97.77 -25.49c-25.43,-6.81 -15.07,-45.41 10.33,-38.61l92.58 24.81c22.47,6.02 17.95,39.3 -5.15,39.3zm575.32 -134.16c-8.83,0 -16.9,-5.88 -19.29,-14.82l-24.81 -92.58c-6.81,-25.42 31.81,-35.74 38.61,-10.34l24.81 92.58c3.41,12.74 -6.23,25.16 -19.33,25.16zm3.51 892.83c-8.83,0 -16.9,-5.89 -19.29,-14.8l-24.81 -92.58c-6.81,-25.4 31.79,-35.81 38.61,-10.35l24.81 92.58c3.41,12.75 -6.21,25.16 -19.33,25.16zm767.44 -280.72l-97.77 -25.5c-25.4,-6.81 -15.07,-45.45 10.35,-38.6l92.58 24.81c22.46,6.02 17.94,39.29 -5.16,39.29zm-959.02 -220.12c-17.6,0 -26.78,-21.47 -14.13,-34.11l67.77 -67.77c18.6,-18.61 46.87,9.65 28.25,28.25 -20.13,20.11 -66.42,73.63 -81.89,73.63zm-332.63 -605.76c-17.6,0 -26.78,-21.47 -14.13,-34.11l67.77 -67.77c18.61,-18.61 46.86,9.67 28.25,28.25 -20.13,20.11 -66.42,73.63 -81.89,73.63zm669.36 668.15c-8.82,0 -16.9,-5.89 -19.29,-14.81l-24.8 -92.58c-6.82,-25.46 31.81,-35.76 38.6,-10.33l24.8 92.56c3.41,12.73 -6.19,25.16 -19.31,25.16zm455.75 542.21c-15.17,0 -25.04,-16.54 -17.28,-29.97l47.91 -83c13.13,-22.74 47.76,-2.81 34.6,19.98l-47.91 83c-3.71,6.39 -10.42,9.99 -17.32,9.99z"/>
 </g>
</svg>
