<?xml version="1.0" encoding="UTF-8"?>
<!DOCTYPE svg PUBLIC "-//W3C//DTD SVG 1.1//EN" "http://www.w3.org/Graphics/SVG/1.1/DTD/svg11.dtd">
<!-- Creator: CorelDRAW -->
<svg xmlns="http://www.w3.org/2000/svg" xml:space="preserve" width="1.70666in" height="1.70666in" version="1.1" style="shape-rendering:geometricPrecision; text-rendering:geometricPrecision; image-rendering:optimizeQuality; fill-rule:evenodd; clip-rule:evenodd"
viewBox="0 0 1706.66 1706.66"
 xmlns:xlink="http://www.w3.org/1999/xlink"
 xmlns:xodm="http://www.corel.com/coreldraw/odm/2003">
 <defs>
  <style type="text/css">
   <![CDATA[
    .fil0 {fill:url(#id0)}
   ]]>
  </style>
  <linearGradient id="id0" gradientUnits="userSpaceOnUse" x1="0.59" y1="853.33" x2="1705.87" y2="853.33">
   <stop offset="0" style="stop-opacity:1; stop-color:#FFB800"/>
   <stop offset="1" style="stop-opacity:1; stop-color:#FF5329"/>
  </linearGradient>
 </defs>
 <g id="Layer_x0020_1">
  <metadata id="CorelCorpID_0Corel-Layer"/>
  <path class="fil0" d="M873.69 1460.84l-587.34 0c-152.2,0 -365.39,-134.41 -255.48,-312.66l106.91 -173.39c84.78,28.93 189.36,38.75 255.22,38.75 142.8,0 248.26,-43.87 385.18,-44.65 -7.73,41.97 -6.2,84.72 3.43,125.48 -62.54,46.24 -18.74,161.59 68.25,133.83 68.43,79.15 174.9,118.97 286.68,97.89 -49.93,84.91 -172.22,134.75 -262.85,134.75zm700.32 193.63c-15.07,0 -29.2,-5.84 -39.82,-16.46l-212.98 -212.98 155.22 -155.21 212.97 212.98c21.98,21.98 21.98,57.68 0,79.67l-75.52 75.54c-10.62,10.63 -24.78,16.46 -39.86,16.46zm-281.07 -257.71c-74.87,-74.87 -76.77,-63.54 -34.69,-105.62l-34.76 -34.76c-40.75,26.15 -89.96,41.8 -145.53,41.8 -240.77,0 -362.41,-293.44 -192.09,-463.72 106.13,-106.1 278.03,-106.11 384.15,0 97.97,97.96 99.32,236.69 36.95,336.84l35.56 35.54c42.06,-42.06 31.33,-39.6 105.62,34.7l-155.22 155.21zm-214.98 -568.55c-175.79,0 -264.59,214.23 -140.25,338.58 77.51,77.52 202.98,77.52 280.49,0 124.31,-124.34 35.54,-338.58 -140.24,-338.58zm-723.7 -581.39c-111.33,-28.78 -90.65,-194.64 24.74,-194.64l402.88 0c115.95,0 135.97,166.96 23.85,194.85l0 375.25 95.68 155.55c-53.46,38.04 -93.13,91.95 -112.9,150.94 -213.68,-2.46 -379.33,94.2 -629.23,11.12l194.98 -316.22 0 -376.86zm441.46 892.18c-9.86,20.08 -0.92,49.64 26.83,52.52 -10.56,-16.63 -19.54,-34.24 -26.83,-52.52zm-211.2 233.91c-99.54,0 -99.55,-151.26 0,-151.26 99.54,0 99.52,151.26 0,151.26zm0 -111.28c-46.95,0 -46.95,71.31 0,71.31 46.94,0 46.94,-71.31 0,-71.31zm-285.71 -9.98c-99.53,0 -99.54,-151.26 0,-151.26 99.54,0 99.53,151.26 0,151.26zm0 -111.28c-46.94,0 -46.93,71.31 0,71.31 46.93,0 46.94,-71.31 0,-71.31zm224.24 38.19c-99.54,0 -99.53,-151.26 0,-151.26 99.53,0 99.54,151.26 0,151.26zm0 -111.3c-46.93,0 -46.94,71.31 0,71.31 46.93,0 46.96,-71.31 0,-71.31z"/>
 </g>
</svg>
