<svg xmlns="http://www.w3.org/2000/svg" width="128" height="128" viewBox="0 0 33.867 33.867"><path d="M9.069 279.183a.843.843 0 0 0-.073 1.064c2.57 3.749 4.901 5.505 7.14 6.09s4.23-.042 5.971-.65c1.741-.606 3.248-1.165 4.688-.911 1.44.253 3.037 1.292 4.982 4.414a.843.843 0 1 0 1.432-.891c-2.08-3.34-4.096-4.826-6.12-5.183-2.026-.356-3.838.389-5.538.981-1.7.593-3.272 1.059-4.99.61-1.717-.449-3.734-1.852-6.175-5.413a.843.843 0 0 0-1.317-.111z" style="color:#000;font-style:normal;font-variant:normal;font-weight:400;font-stretch:normal;font-size:medium;line-height:normal;font-family:sans-serif;font-variant-ligatures:normal;font-variant-position:normal;font-variant-caps:normal;font-variant-numeric:normal;font-variant-alternates:normal;font-feature-settings:normal;text-indent:0;text-align:start;text-decoration:none;text-decoration-line:none;text-decoration-style:solid;text-decoration-color:#000;letter-spacing:normal;word-spacing:normal;text-transform:none;writing-mode:lr-tb;direction:ltr;text-orientation:mixed;dominant-baseline:auto;baseline-shift:baseline;text-anchor:start;white-space:normal;shape-padding:0;clip-rule:nonzero;display:inline;overflow:visible;visibility:visible;opacity:1;isolation:auto;mix-blend-mode:normal;color-interpolation:sRGB;color-interpolation-filters:linearRGB;solid-color:#000;solid-opacity:1;vector-effect:none;fill:#8a2be2;fill-opacity:1;fill-rule:nonzero;stroke:none;stroke-width:1.58749998;stroke-linecap:round;stroke-linejoin:round;stroke-miterlimit:4;stroke-dasharray:none;stroke-dashoffset:0;stroke-opacity:1;color-rendering:auto;image-rendering:auto;shape-rendering:auto;text-rendering:auto;enable-background:accumulate" transform="translate(0 -263.133)"/><path d="M20.307 287.02a.843.843 0 0 0-.221.418c-.298 1.346-.328 2.843.412 4.353.74 1.51 2.183 2.989 4.657 4.55a.843.843 0 1 0 .9-1.425c-2.316-1.462-3.497-2.747-4.045-3.865-.548-1.118-.53-2.116-.278-3.249a.843.843 0 0 0-1.425-.781zM7.637 263.932a.843.843 0 0 0 .178 1.292c2.317 1.461 3.497 2.747 4.045 3.865.548 1.118.53 2.115.279 3.248a.843.843 0 1 0 1.646.364c.298-1.346.328-2.842-.412-4.353-.74-1.51-2.183-2.989-4.657-4.55a.843.843 0 0 0-1.079.134z" style="color:#000;font-style:normal;font-variant:normal;font-weight:400;font-stretch:normal;font-size:medium;line-height:normal;font-family:sans-serif;font-variant-ligatures:normal;font-variant-position:normal;font-variant-caps:normal;font-variant-numeric:normal;font-variant-alternates:normal;font-feature-settings:normal;text-indent:0;text-align:start;text-decoration:none;text-decoration-line:none;text-decoration-style:solid;text-decoration-color:#000;letter-spacing:normal;word-spacing:normal;text-transform:none;writing-mode:lr-tb;direction:ltr;text-orientation:mixed;dominant-baseline:auto;baseline-shift:baseline;text-anchor:start;white-space:normal;shape-padding:0;clip-rule:nonzero;display:inline;overflow:visible;visibility:visible;opacity:1;isolation:auto;mix-blend-mode:normal;color-interpolation:sRGB;color-interpolation-filters:linearRGB;solid-color:#000;solid-opacity:1;vector-effect:none;fill:#8a2be2;fill-opacity:1;fill-rule:nonzero;stroke:none;stroke-width:1.58749998;stroke-linecap:round;stroke-linejoin:round;stroke-miterlimit:4;stroke-dasharray:none;stroke-dashoffset:0;stroke-opacity:1;color-rendering:auto;image-rendering:auto;shape-rendering:auto;text-rendering:auto;enable-background:accumulate" transform="translate(0 -263.133)"/><path d="M.785 270.782a.843.843 0 0 0-.122 1.06c2.08 3.339 4.094 4.825 6.12 5.181 2.025.357 3.836-.388 5.536-.98 1.7-.593 3.273-1.06 4.99-.61 1.718.448 3.735 1.852 6.175 5.412a.843.843 0 1 0 1.392-.951c-2.57-3.749-4.902-5.507-7.141-6.092-2.24-.585-4.23.043-5.972.65-1.74.606-3.248 1.165-4.687.912-1.44-.254-3.036-1.29-4.981-4.413a.843.843 0 0 0-1.31-.17z" style="color:#000;font-style:normal;font-variant:normal;font-weight:400;font-stretch:normal;font-size:medium;line-height:normal;font-family:sans-serif;font-variant-ligatures:normal;font-variant-position:normal;font-variant-caps:normal;font-variant-numeric:normal;font-variant-alternates:normal;font-feature-settings:normal;text-indent:0;text-align:start;text-decoration:none;text-decoration-line:none;text-decoration-style:solid;text-decoration-color:#000;letter-spacing:normal;word-spacing:normal;text-transform:none;writing-mode:lr-tb;direction:ltr;text-orientation:mixed;dominant-baseline:auto;baseline-shift:baseline;text-anchor:start;white-space:normal;shape-padding:0;clip-rule:nonzero;display:inline;overflow:visible;visibility:visible;opacity:1;isolation:auto;mix-blend-mode:normal;color-interpolation:sRGB;color-interpolation-filters:linearRGB;solid-color:#000;solid-opacity:1;vector-effect:none;fill:#8a2be2;fill-opacity:1;fill-rule:nonzero;stroke:none;stroke-width:1.58749998;stroke-linecap:round;stroke-linejoin:round;stroke-miterlimit:4;stroke-dasharray:none;stroke-dashoffset:0;stroke-opacity:1;color-rendering:auto;image-rendering:auto;shape-rendering:auto;text-rendering:auto;enable-background:accumulate" transform="translate(0 -263.133)"/><path d="M2.453 274.287c.402.456.801.85 1.2 1.186l1.188-1.188a9.285 9.285 0 0 1-1.198-1.187zm7.506-7.501c.484.419.866.82 1.179 1.205l1.2-1.2c-.335-.399-.73-.798-1.185-1.199zm-4.884 9.649a5.94 5.94 0 0 0 1.707.588l.076.011 1.663-1.662a4.743 4.743 0 0 1-1.446-.008 4.269 4.269 0 0 1-.73-.199zm6.956-6.953c.28.731.322 1.424.23 2.151l1.639-1.638a5.892 5.892 0 0 0-.528-1.647c-.022-.045-.047-.09-.07-.136zm-1.937 12.263c.369.47.733.898 1.092 1.29l1.193-1.192a20.4 20.4 0 0 1-1.085-1.297zm6.456-6.453c.25.03.503.074.76.14.347.091.707.224 1.08.402l.988-.988a.843.843 0 0 0 .207-.287 7.977 7.977 0 0 0-1.614-.687zm-4.371 8.739c.446.41.887.761 1.323 1.062l1.215-1.215a9.975 9.975 0 0 1-1.348-1.037zm7.449-7.446c.412.302.839.663 1.283 1.102l1.19-1.19c-.43-.423-.853-.792-1.271-1.113zm-4.873 9.24c.465.222.925.393 1.38.512.135.035.268.066.4.092l1.546-1.545a5.557 5.557 0 0 1-1.52-.177 5.8 5.8 0 0 1-.522-.167zm7.11-7.107c.341.4.692.842 1.052 1.332l1.205-1.204c-.358-.478-.712-.92-1.062-1.323zm-1.006 13.716c.281.446.627.89 1.048 1.337l1.197-1.197c-.45-.482-.78-.94-1.01-1.373zm7.217-7.213c.441.231.899.555 1.379 1.005l1.184-1.183a8.784 8.784 0 0 0-1.336-1.049zm-4.925 9.688c.41.335.866.672 1.371 1.013l1.217-1.216a18.47 18.47 0 0 1-1.39-.996zm7.434-7.432c.32.407.649.87.989 1.396l1.219-1.218c-.339-.506-.676-.96-1.012-1.373z" style="color:#000;font-style:normal;font-variant:normal;font-weight:400;font-stretch:normal;font-size:medium;line-height:normal;font-family:sans-serif;font-variant-ligatures:normal;font-variant-position:normal;font-variant-caps:normal;font-variant-numeric:normal;font-variant-alternates:normal;font-feature-settings:normal;text-indent:0;text-align:start;text-decoration:none;text-decoration-line:none;text-decoration-style:solid;text-decoration-color:#000;letter-spacing:normal;word-spacing:normal;text-transform:none;writing-mode:lr-tb;direction:ltr;text-orientation:mixed;dominant-baseline:auto;baseline-shift:baseline;text-anchor:start;white-space:normal;shape-padding:0;clip-rule:nonzero;display:inline;overflow:visible;visibility:visible;opacity:1;isolation:auto;mix-blend-mode:normal;color-interpolation:sRGB;color-interpolation-filters:linearRGB;solid-color:#000;solid-opacity:1;vector-effect:none;fill:#791ccf;fill-opacity:1;fill-rule:nonzero;stroke:none;stroke-width:1.5875001;stroke-linecap:round;stroke-linejoin:round;stroke-miterlimit:4;stroke-dasharray:none;stroke-dashoffset:0;stroke-opacity:1;color-rendering:auto;image-rendering:auto;shape-rendering:auto;text-rendering:auto;enable-background:accumulate" transform="translate(0 -263.133)"/><path d="M22.271 294.596a.843.843 0 1 0 1.193 1.192l9.196-9.193a.843.843 0 1 0-1.192-1.192zM19.888 292.213a.843.843 0 1 0 1.192 1.192l9.197-9.192a.843.843 0 1 0-1.193-1.192zM1.608 273.941a.843.843 0 1 0 1.192 1.192l9.197-9.192a.843.843 0 1 0-1.193-1.192zM4.25 276.069a.843.843 0 1 0 1.19 1.19l8.683-8.68a.843.843 0 1 0-1.19-1.19zM13.782 285.606a.843.843 0 1 0 1.192 1.192l9.204-9.2a.843.843 0 1 0-1.192-1.192zM8.899 281.748a.843.843 0 1 0 1.19 1.19l8.693-8.687a.843.843 0 1 0-1.191-1.19zM11.341 283.676a.843.843 0 1 0 1.193 1.192l9.202-9.198a.843.843 0 1 0-1.192-1.192z" style="color:#000;font-style:normal;font-variant:normal;font-weight:400;font-stretch:normal;font-size:medium;line-height:normal;font-family:sans-serif;font-variant-ligatures:normal;font-variant-position:normal;font-variant-caps:normal;font-variant-numeric:normal;font-variant-alternates:normal;font-feature-settings:normal;text-indent:0;text-align:start;text-decoration:none;text-decoration-line:none;text-decoration-style:solid;text-decoration-color:#000;letter-spacing:normal;word-spacing:normal;text-transform:none;writing-mode:lr-tb;direction:ltr;text-orientation:mixed;dominant-baseline:auto;baseline-shift:baseline;text-anchor:start;white-space:normal;shape-padding:0;clip-rule:nonzero;display:inline;overflow:visible;visibility:visible;opacity:1;isolation:auto;mix-blend-mode:normal;color-interpolation:sRGB;color-interpolation-filters:linearRGB;solid-color:#000;solid-opacity:1;vector-effect:none;fill:#be8aef;fill-opacity:1;fill-rule:nonzero;stroke:none;stroke-width:1.58749998;stroke-linecap:round;stroke-linejoin:round;stroke-miterlimit:4;stroke-dasharray:none;stroke-dashoffset:0;stroke-opacity:1;color-rendering:auto;image-rendering:auto;shape-rendering:auto;text-rendering:auto;enable-background:accumulate" transform="translate(0 -263.133)"/></svg>