<svg width="1500" height="1500" viewBox="0 0 1500 1500" fill="none" xmlns="http://www.w3.org/2000/svg">
<path d="M742.48 418.21C743.326 420.646 744.696 422.866 746.493 424.715C748.291 426.564 750.471 427.997 752.882 428.911C755.292 429.826 757.874 430.201 760.445 430.01C763.016 429.819 765.514 429.066 767.763 427.805L920.711 476.876L971.332 437.153L774.048 402.602C771.68 398.963 768.059 396.321 763.872 395.174C759.686 394.028 755.224 394.457 751.333 396.381C747.442 398.305 744.391 401.59 742.759 405.613C741.128 409.636 741.028 414.118 742.48 418.21V418.21Z" fill="#FFB6B6"/>
<path d="M1025.77 483.788C1025.77 483.788 1024.39 480.389 1006.08 487.785C983.367 496.966 862.428 490.828 855.726 457.846C853.586 460.055 850.773 461.489 847.728 461.923C844.684 462.356 841.582 461.764 838.911 460.24L857.817 418.735C867.658 415.588 873.006 413.26 873.642 417.269L903.231 415.528L1023.06 435.705L1026.38 477.078L1025.77 483.788Z" fill="#F2F2F2"/>
<path d="M988.085 442.176L1047.6 437.023L1103.39 462.532L1134.72 896.011L1011.77 839.14L959.022 853.738L988.085 442.176Z" fill="#F2F2F2"/>
<path d="M1134.5 1198.71L1111.93 1198.71L1101.19 1111.62L1134.5 1111.62L1134.5 1198.71Z" fill="#FFB6B6"/>
<path d="M1140.25 1220.59L1067.47 1220.59V1219.67C1067.47 1212.15 1070.45 1204.95 1075.77 1199.63C1081.08 1194.32 1088.29 1191.33 1095.8 1191.33H1095.8L1109.1 1181.24L1133.9 1191.33L1140.26 1191.34L1140.25 1220.59Z" fill="#8F98EE"/>
<path d="M1047.02 1184.48L1025 1189.45L995.348 1106.87L1027.85 1099.53L1047.02 1184.48Z" fill="#FFB6B6"/>
<path d="M1057.46 1204.56L986.459 1220.59L986.256 1219.69C984.601 1212.36 985.926 1204.68 989.938 1198.32C993.95 1191.97 1000.32 1187.47 1007.65 1185.81L1007.65 1185.81L1018.4 1173.04L1044.82 1177.42L1051.02 1176.02L1057.46 1204.56Z" fill="#8F98EE"/>
<path d="M1163.09 666.298C1173.67 698.225 1172.55 732.88 1160.54 770.075L1155.41 979.491C1163.9 988.833 1165.19 1072.42 1152.12 1099.69C1134.67 1136.12 1150.72 1140.98 1138.38 1165.15H1102.59L1086.04 1055.68L1084.87 966.95C1080.11 955.692 1084.01 916.072 1084.01 916.072L1082.64 833.918L1018.1 977.833C1047.34 1002.86 1044.71 1083.72 1045.19 1119.59L1054.78 1161.91L1010.73 1165.85L991.288 1108.45L969.431 1073.09C958.293 1010.42 954.99 964.42 964.486 945.628L1029.27 704.54L1163.09 666.298Z" fill="#8F98EE"/>
<path d="M1167.67 655.642L1161.77 643.839C1154.55 599.081 1147.41 557.335 1157.11 519.784C1157.72 487.003 1147.59 456.207 1119.46 439.39L1106.77 431.8L1100.35 415.505L1041.21 416.95L1041.03 438.311L1019.85 472.101V472.241L1021.18 656.113L1027.02 675.088L1018.2 697.163L1022.88 711.246L1139.48 692.601L1153.04 690.425C1154.6 689.924 1156.11 689.265 1157.54 688.458C1162.41 685.756 1166.22 681.494 1168.37 676.359C1168.49 676.063 1168.6 675.785 1168.7 675.489C1169.62 673.092 1170.14 670.565 1170.27 668.003C1170.48 663.728 1169.59 659.471 1167.67 655.642V655.642Z" fill="#4FD1C5"/>
<path opacity="0.2" d="M1170.27 668.003C1170.14 670.565 1169.61 673.092 1168.7 675.489L1157.54 688.458C1156.11 689.265 1154.6 689.924 1153.04 690.425L1139.48 692.602L1159.09 655.712L1115.98 561.304L1170.27 668.003Z" fill="black"/>
<path d="M254.247 1049.43C240.548 1049.57 226.86 1048.62 213.311 1046.6C200.695 1044.46 194.298 1041.43 194.298 1037.59L194.303 1037.52L217.837 858.294L205.984 824.308C205.487 822.881 205.34 821.355 205.556 819.859C205.772 818.363 206.345 816.942 207.227 815.714C208.108 814.487 209.272 813.489 210.62 812.807C211.968 812.124 213.46 811.776 214.971 811.791L292.918 812.603C294.402 812.619 295.86 812.985 297.175 813.671C298.49 814.358 299.625 815.345 300.486 816.553C301.347 817.761 301.91 819.156 302.13 820.623C302.35 822.09 302.22 823.589 301.751 824.996L290.656 858.289L314.191 1037.52C314.195 1046.94 276.513 1049.43 254.247 1049.43Z" fill="#F2F2F2"/>
<path d="M247.895 1024.2H209.82V1026.34H247.895V1024.2Z" fill="#CCCCCC"/>
<path d="M247.895 1011.35H209.82V1013.5H247.895V1011.35Z" fill="#CCCCCC"/>
<path d="M247.895 998.505H209.82V1000.65H247.895V998.505Z" fill="#CCCCCC"/>
<path d="M247.895 985.656H209.82V987.798H247.895V985.656Z" fill="#CCCCCC"/>
<path d="M247.895 972.807H209.82V974.949H247.895V972.807Z" fill="#CCCCCC"/>
<path d="M596.811 1049.43C583.112 1049.57 569.423 1048.62 555.874 1046.6C543.259 1044.46 536.862 1041.43 536.862 1037.59L536.867 1037.52L560.401 858.294L548.548 824.308C548.05 822.881 547.904 821.355 548.12 819.859C548.336 818.363 548.909 816.942 549.791 815.714C550.672 814.487 551.836 813.489 553.184 812.807C554.532 812.124 556.024 811.776 557.535 811.791L635.482 812.603C636.965 812.619 638.424 812.985 639.739 813.671C641.054 814.358 642.188 815.345 643.049 816.553C643.91 817.761 644.474 819.156 644.694 820.623C644.914 822.09 644.784 823.589 644.315 824.996L633.219 858.289L656.754 1037.52C656.759 1046.94 619.076 1049.43 596.811 1049.43Z" fill="#F2F2F2"/>
<path d="M590.459 1024.2H552.384V1026.34H590.459V1024.2Z" fill="#CCCCCC"/>
<path d="M590.459 1011.35H552.384V1013.5H590.459V1011.35Z" fill="#CCCCCC"/>
<path d="M590.459 998.505H552.384V1000.65H590.459V998.505Z" fill="#CCCCCC"/>
<path d="M590.459 985.656H552.384V987.798H590.459V985.656Z" fill="#CCCCCC"/>
<path d="M590.459 972.807H552.384V974.949H590.459V972.807Z" fill="#CCCCCC"/>
<path d="M436.234 1049.43C422.535 1049.57 408.847 1048.62 395.298 1046.6C382.682 1044.46 376.285 1041.43 376.285 1037.59L376.29 1037.52L399.824 858.294L387.971 824.308C387.474 822.881 387.327 821.355 387.543 819.859C387.759 818.363 388.332 816.942 389.214 815.714C390.095 814.487 391.259 813.489 392.607 812.807C393.955 812.124 395.447 811.776 396.958 811.791L474.906 812.603C476.389 812.619 477.847 812.985 479.162 813.671C480.477 814.358 481.612 815.345 482.473 816.553C483.334 817.761 483.897 819.156 484.117 820.623C484.337 822.09 484.207 823.589 483.738 824.996L472.643 858.289L496.178 1037.52C496.182 1046.94 458.5 1049.43 436.234 1049.43Z" fill="#F2F2F2"/>
<path d="M429.882 1024.2H391.807V1026.34H429.882V1024.2Z" fill="#CCCCCC"/>
<path d="M429.882 1011.35H391.807V1013.5H429.882V1011.35Z" fill="#CCCCCC"/>
<path d="M429.882 998.505H391.807V1000.65H429.882V998.505Z" fill="#CCCCCC"/>
<path d="M429.882 985.656H391.807V987.798H429.882V985.656Z" fill="#CCCCCC"/>
<path d="M429.882 972.807H391.807V974.949H429.882V972.807Z" fill="#CCCCCC"/>
<path d="M689.41 1062.75H616.615V940.685H689.41C693.385 940.685 697.197 939.105 700.007 936.294C702.818 933.483 704.397 929.67 704.397 925.694C704.397 921.719 702.818 917.906 700.007 915.095C697.197 912.283 693.385 910.704 689.41 910.704H181.987C178.012 910.704 174.2 912.283 171.39 915.095C168.579 917.906 167 921.719 167 925.694C167 929.67 168.579 933.483 171.39 936.294C174.2 939.105 178.012 940.685 181.987 940.685H244.077V1062.75H181.987C178.012 1062.75 174.2 1064.33 171.39 1067.14C168.579 1069.95 167 1073.76 167 1077.74C167 1081.72 168.579 1085.53 171.39 1088.34C174.2 1091.15 178.012 1092.73 181.987 1092.73H689.41C691.379 1092.73 693.33 1092.35 695.15 1091.59C696.97 1090.84 698.624 1089.74 700.018 1088.35C701.411 1086.95 702.517 1085.3 703.271 1083.48C704.025 1081.66 704.413 1079.71 704.413 1077.74C704.413 1075.77 704.025 1073.82 703.271 1072C702.517 1070.18 701.411 1068.53 700.018 1067.14C698.624 1065.74 696.97 1064.64 695.15 1063.89C693.33 1063.13 691.379 1062.75 689.41 1062.75ZM274.051 1062.75V940.685H586.641V1062.75H274.051Z" fill="#CCCCCC"/>
<path d="M677.622 1220.79C640.389 1220.79 605.663 1218.39 579.844 1214.02C547.992 1208.63 532.508 1200.8 532.508 1190.08L532.526 1189.74L588.431 763.959L560.442 683.706C559.099 679.93 558.696 675.884 559.27 671.917C559.843 667.951 561.375 664.184 563.732 660.943C566.035 657.653 569.115 654.982 572.699 653.169C576.282 651.357 580.258 650.458 584.273 650.554L769.615 652.485C773.544 652.526 777.407 653.495 780.89 655.312C784.373 657.13 787.377 659.746 789.658 662.946C791.939 666.145 793.431 669.839 794.013 673.725C794.595 677.612 794.251 681.58 793.009 685.308L766.808 763.929L822.724 1189.75V1189.91C822.73 1201.47 805.2 1209.68 769.133 1215C733.701 1220.23 693.333 1220.79 677.622 1220.79Z" fill="white"/>
<path d="M677.622 1220.79C640.389 1220.79 605.663 1218.39 579.844 1214.02C547.992 1208.63 532.508 1200.8 532.508 1190.08L532.526 1189.74L588.431 763.959L560.442 683.706C559.099 679.93 558.696 675.884 559.27 671.917C559.843 667.951 561.375 664.184 563.732 660.943C566.035 657.653 569.115 654.982 572.699 653.169C576.282 651.357 580.258 650.458 584.273 650.554L769.615 652.485C773.544 652.526 777.407 653.495 780.89 655.312C784.373 657.13 787.377 659.746 789.658 662.946C791.939 666.145 793.431 669.839 794.013 673.725C794.595 677.612 794.251 681.58 793.009 685.308L766.808 763.929L822.724 1189.75V1189.91C822.73 1201.47 805.2 1209.68 769.133 1215C733.701 1220.23 693.333 1220.79 677.622 1220.79ZM583.761 655.642C580.642 655.639 577.567 656.389 574.8 657.83C572.033 659.27 569.655 661.358 567.868 663.915C565.992 666.494 564.773 669.491 564.317 672.647C563.861 675.803 564.181 679.023 565.25 682.027L593.637 763.421L593.559 764.021L537.59 1190.25C537.6 1194.42 543.199 1202.65 580.694 1209C606.241 1213.32 640.663 1215.7 677.622 1215.7C710.107 1215.7 744.04 1213.56 768.389 1209.96C799.495 1205.37 817.414 1198.13 817.629 1190.07L761.607 763.431L788.178 683.698C789.167 680.732 789.44 677.573 788.977 674.481C788.514 671.388 787.326 668.449 785.512 665.903C783.697 663.357 781.306 661.275 778.535 659.828C775.763 658.382 772.689 657.61 769.563 657.578L584.192 655.647C584.048 655.643 583.904 655.642 583.761 655.642Z" fill="#3F3D56"/>
<path opacity="0.5" d="M783.274 1137.98H571.969L605.466 911.428L606.378 905.184L620.333 810.868C621.184 805.115 627.806 809.583 632.488 806.134C661.559 784.722 690.976 784.101 720.65 804.739C725.237 807.929 731.573 804.195 732.428 809.717L747.088 904.319L748.505 913.47L783.274 1137.98Z" fill="#4FD1C5"/>
<path d="M757.195 1169.71H597.823C593.645 1169.71 589.516 1168.81 585.717 1167.07C581.918 1165.33 578.539 1162.79 575.809 1159.62C573.079 1156.46 571.063 1152.75 569.899 1148.73C568.734 1144.72 568.447 1140.5 569.059 1136.37L615.622 821.427C615.863 819.816 616.524 818.298 617.54 817.026C618.555 815.753 619.889 814.772 621.405 814.18C622.922 813.589 624.568 813.409 626.176 813.658C627.785 813.908 629.299 814.577 630.566 815.6C658.944 838.339 689.873 837.827 722.492 814.086C723.757 813.161 725.24 812.58 726.796 812.398C728.352 812.217 729.929 812.442 731.373 813.051C732.846 813.656 734.138 814.633 735.122 815.886C736.106 817.139 736.749 818.625 736.988 820.201L785.93 1136.17C786.572 1140.32 786.31 1144.55 785.161 1148.59C784.012 1152.62 782.003 1156.36 779.274 1159.55C776.544 1162.74 773.157 1165.29 769.346 1167.05C765.535 1168.8 761.39 1169.71 757.195 1169.71L757.195 1169.71Z" fill="#4FD1C5"/>
<path d="M693.067 1132.78H602.519V1137.88H693.067V1132.78Z" fill="white"/>
<path d="M693.067 1102.23H602.519V1107.32H693.067V1102.23Z" fill="white"/>
<path d="M693.067 1071.67H602.519V1076.76H693.067V1071.67Z" fill="white"/>
<path d="M693.067 1041.11H602.519V1046.21H693.067V1041.11Z" fill="white"/>
<path d="M693.067 1010.56H602.519V1015.65H693.067V1010.56Z" fill="white"/>
<path d="M752.775 930.396C745.752 937.371 737.304 942.744 728.01 946.146C718.716 949.548 708.796 950.899 698.93 950.105C687.678 949.087 677.418 944.885 667.54 939.589C657.331 934.114 647.454 927.57 636.15 924.514C626.247 921.84 614.51 921.484 606.007 928.104C605.312 928.643 604.463 928.946 603.584 928.969C602.705 928.992 601.841 928.733 601.119 928.232L602.086 921.611C611.557 914.99 623.064 913.972 634.342 916.238C657.051 920.822 674.287 939.614 697.556 942.313C707.593 943.444 717.754 942.062 727.126 938.293C736.497 934.524 744.786 928.485 751.247 920.72L751.273 920.694L752.775 930.396Z" fill="white"/>
<path d="M1277 1220.93C1277 1221.2 1276.95 1221.47 1276.84 1221.72C1276.74 1221.97 1276.59 1222.2 1276.4 1222.4C1276.2 1222.59 1275.97 1222.74 1275.72 1222.84C1275.47 1222.95 1275.2 1223 1274.93 1223H169.208C168.658 1223 168.131 1222.78 167.743 1222.39C167.355 1222 167.136 1221.48 167.136 1220.93C167.136 1220.38 167.355 1219.85 167.743 1219.46C168.131 1219.07 168.658 1218.86 169.208 1218.86H1274.93C1275.2 1218.86 1275.47 1218.91 1275.72 1219.01C1275.97 1219.12 1276.2 1219.27 1276.4 1219.46C1276.59 1219.65 1276.74 1219.88 1276.84 1220.13C1276.95 1220.39 1277 1220.66 1277 1220.93Z" fill="#CCCCCC"/>
<path d="M1047.26 436.953L1106.77 431.8L1162.56 457.309L1193.89 890.789L1070.95 833.918L1018.2 848.515L1047.26 436.953Z" fill="#F2F2F2"/>
<path d="M753.548 436.418C759.315 436.418 763.991 431.742 763.991 425.973C763.991 420.204 759.315 415.528 753.548 415.528C747.78 415.528 743.105 420.204 743.105 425.973C743.105 431.742 747.78 436.418 753.548 436.418Z" fill="#4FD1C5"/>
<path d="M736.143 563.503C741.91 563.503 746.586 558.826 746.586 553.058C746.586 547.289 741.91 542.612 736.143 542.612C730.375 542.612 725.7 547.289 725.7 553.058C725.7 558.826 730.375 563.503 736.143 563.503Z" fill="#4FD1C5"/>
<path d="M680.447 638.361C686.215 638.361 690.89 633.684 690.89 627.916C690.89 622.147 686.215 617.47 680.447 617.47C674.68 617.47 670.004 622.147 670.004 627.916C670.004 633.684 674.68 638.361 680.447 638.361Z" fill="#4FD1C5"/>
<path d="M941.149 719.29V607.161C941.151 604.891 942.054 602.715 943.658 601.111C945.262 599.506 947.438 598.603 949.707 598.601H1034.37C1036.64 598.603 1038.81 599.506 1040.42 601.111C1042.02 602.715 1042.93 604.891 1042.93 607.161V719.29C1042.93 721.559 1042.02 723.735 1040.42 725.34C1038.81 726.945 1036.64 727.847 1034.37 727.85H949.707C947.438 727.847 945.262 726.945 943.658 725.34C942.054 723.735 941.151 721.559 941.149 719.29V719.29Z" fill="#E6E6E6"/>
<path d="M947.643 685.422V613.335C947.645 611.21 948.49 609.172 949.993 607.669C951.496 606.166 953.533 605.321 955.658 605.319H1028.42C1030.54 605.321 1032.58 606.166 1034.08 607.669C1035.59 609.172 1036.43 611.21 1036.43 613.335V713.115C1036.43 715.241 1035.59 717.278 1034.08 718.781C1032.58 720.284 1030.54 721.13 1028.42 721.132H983.345C973.88 721.121 964.805 717.356 958.112 710.661C951.419 703.967 947.654 694.89 947.643 685.422V685.422Z" fill="white"/>
<path d="M959.424 633.449C959.426 631.372 960.252 629.381 961.72 627.912C963.189 626.443 965.18 625.617 967.256 625.615H1017.73C1019.81 625.615 1021.8 626.44 1023.27 627.909C1024.74 629.379 1025.56 631.371 1025.56 633.449C1025.56 635.527 1024.74 637.519 1023.27 638.988C1021.8 640.457 1019.81 641.283 1017.73 641.283H967.256C965.18 641.281 963.189 640.455 961.72 638.986C960.252 637.517 959.426 635.526 959.424 633.449V633.449Z" fill="#E6E6E6"/>
<path d="M959.424 657.821C959.426 655.744 960.252 653.753 961.72 652.284C963.189 650.816 965.18 649.99 967.256 649.987H1017.73C1019.81 649.987 1021.8 650.813 1023.27 652.282C1024.74 653.751 1025.56 655.744 1025.56 657.821C1025.56 659.899 1024.74 661.892 1023.27 663.361C1021.8 664.83 1019.81 665.655 1017.73 665.655H967.256C965.18 665.653 963.189 664.827 961.72 663.358C960.252 661.89 959.426 659.898 959.424 657.821V657.821Z" fill="#E6E6E6"/>
<path d="M959.424 682.194C959.426 680.117 960.252 678.125 961.72 676.657C963.189 675.188 965.18 674.362 967.256 674.36H1017.73C1019.81 674.36 1021.8 675.185 1023.27 676.654C1024.74 678.123 1025.56 680.116 1025.56 682.194C1025.56 684.271 1024.74 686.264 1023.27 687.733C1021.8 689.202 1019.81 690.028 1017.73 690.028H967.256C965.18 690.025 963.189 689.199 961.72 687.731C960.252 686.262 959.426 684.271 959.424 682.194V682.194Z" fill="#E6E6E6"/>
<path d="M1010.12 738.635C1012.5 737.65 1014.64 736.154 1016.38 734.253C1018.12 732.353 1019.43 730.093 1020.2 727.633C1020.98 725.174 1021.2 722.574 1020.87 720.018C1020.53 717.461 1019.63 715.01 1018.25 712.837L1079.63 657.059L1101.17 573.737L1062.95 570.556L1051.27 635.94L992.728 708.007C989.233 710.581 986.803 714.348 985.899 718.595C984.995 722.841 985.679 727.272 987.823 731.047C989.967 734.822 993.42 737.68 997.53 739.078C1001.64 740.477 1006.12 740.319 1010.12 738.635V738.635Z" fill="#FFB6B6"/>
<path d="M1107.06 498.49C1107.06 498.49 1116.37 498.628 1112.18 517.919C1108.82 533.364 1096.07 620.277 1085.9 639.721C1088.23 641.731 1089.82 644.458 1090.43 647.474C1091.04 650.489 1090.63 653.62 1089.26 656.375L1046.74 639.878C1043.04 630.232 1049.25 627.233 1053.22 626.368L1052.44 596.109L1058.53 518.981L1100.33 498.27L1107.06 498.49Z" fill="#F2F2F2"/>
<path d="M1119.58 355.706C1117.6 370.173 1109.95 383.26 1098.33 392.093C1086.7 400.926 1072.05 404.781 1057.58 402.812C1043.11 400.843 1030.02 393.21 1021.18 381.591C1012.34 369.972 1008.47 355.318 1010.42 340.847L1010.53 340.065C1012.81 325.789 1020.61 312.982 1032.25 304.407C1043.89 295.832 1058.43 292.176 1072.74 294.229C1087.05 296.281 1099.97 303.877 1108.73 315.377C1117.49 326.878 1121.38 341.361 1119.56 355.704L1119.58 355.706Z" fill="#FFB8B8"/>
<path d="M1105.56 384.083C1108.39 378.336 1111.29 372.166 1110.5 365.81C1109.7 359.453 1103.47 353.378 1097.35 355.267C1093.69 356.397 1090.93 360.011 1087.1 360.196C1081.84 360.45 1078.82 354.425 1077.18 349.416L1070.51 329.014C1064.1 334.009 1056.67 337.527 1048.75 339.318C1040.83 341.109 1032.61 341.128 1024.68 339.374C1018.48 337.958 1012.22 335.196 1008.59 329.981C1004.95 324.767 1004.98 316.679 1009.96 312.736C1012.4 310.803 1015.66 310.068 1017.99 308.005C1019.44 306.725 1020.44 305.013 1020.84 303.122C1021.24 301.23 1021.02 299.26 1020.21 297.503C1019.41 295.746 1018.06 294.295 1016.36 293.365C1014.67 292.435 1012.72 292.075 1010.81 292.339L1027.61 290.239L1022.6 281.184C1026.21 284.028 1031.23 284.411 1035.75 283.597C1040.27 282.783 1044.52 280.921 1048.94 279.68C1070.17 273.721 1094.84 284.082 1105.45 303.413C1109.58 302.032 1114.04 301.94 1118.23 303.15C1122.42 304.359 1126.14 306.812 1128.9 310.185C1133.4 315.894 1134.62 323.513 1134.79 330.779C1135.12 345.106 1132 359.302 1125.69 372.168C1123.88 376.255 1121.28 379.944 1118.04 383.022C1116.41 384.548 1114.46 385.699 1112.34 386.393C1110.21 387.088 1107.96 387.309 1105.75 387.042" fill="#626474"/>
<circle cx="1021.5" cy="359.5" r="5.5" fill="#626474"/>
<circle cx="1052.5" cy="359.5" r="5.5" fill="#626474"/>
<path d="M172.078 468C167.536 468 163.207 466.152 160.093 462.855C140.042 441.628 129 413.889 129 384.751C129 360.469 136.564 337.287 150.874 317.708C153.702 313.841 158.091 311.413 162.914 311.049C167.814 310.673 172.607 312.461 176.061 315.936L234.206 374.427C240.025 380.281 240.62 389.626 235.59 396.165L185.342 461.483C182.356 465.364 177.829 467.731 172.922 467.979C172.64 467.993 172.358 468 172.078 468V468Z" fill="#4FD1C5"/>
<path d="M264.333 503C246.536 503 229.46 499.027 213.579 491.193C207.81 488.347 203.658 483.102 202.188 476.801C200.718 470.5 202.116 463.941 206.024 458.806L247.588 404.161C255.15 394.22 254.255 380.012 245.508 371.111L202.959 327.823C196.809 321.566 194.02 312.984 195.308 304.278C196.603 295.527 201.79 288.094 209.54 283.886C227.013 274.397 246.812 269.595 266.8 270.027C327.036 271.292 376.687 319.702 379.835 380.236C381.517 412.576 370.298 443.276 348.245 466.681C326.178 490.101 296.378 503 264.333 503ZM264.375 273.972C245.865 273.972 250.294 291.657 234.102 300.45C227.457 304.058 200.318 297.362 199.208 304.864C198.105 312.32 200.493 319.67 205.761 325.03L248.31 368.317C258.436 378.621 259.472 395.068 250.719 406.576L209.154 461.221C205.967 465.408 204.828 470.756 206.027 475.893C207.225 481.03 210.61 485.306 215.313 487.627C230.65 495.193 247.143 468.58 264.333 468.58C295.285 468.58 324.07 486.569 345.385 463.947C366.686 441.34 377.522 411.685 375.897 380.444C372.857 321.977 324.899 275.22 266.717 273.997C265.937 273.981 265.155 273.972 264.375 273.972H264.375Z" fill="#E6E6E6"/>
<path d="M271.397 387.07C269.132 384.43 268 380.568 268 375.479C268 370.439 269.132 366.598 271.397 363.958C273.661 361.32 276.796 360 280.801 360C284.852 360 288.023 361.32 290.312 363.958C292.6 366.598 293.744 370.439 293.744 375.479C293.744 380.568 292.6 384.43 290.312 387.07C288.023 389.709 284.852 391.029 280.801 391.029C276.796 391.029 273.661 389.709 271.397 387.07ZM284.877 382.968C285.735 381.447 286.164 378.951 286.164 375.479C286.164 372.103 285.723 369.642 284.841 368.096C283.958 366.551 282.612 365.778 280.801 365.778C279.037 365.778 277.726 366.551 276.867 368.096C276.009 369.642 275.58 372.103 275.58 375.479C275.58 378.902 276.009 381.388 276.867 382.933C277.726 384.479 279.037 385.251 280.801 385.251C282.66 385.251 284.019 384.491 284.877 382.968V382.968ZM284.24 404.709L309.763 360.713C313.286 360.713 315.485 364.521 313.717 367.561L288.166 411.501C284.672 411.501 282.49 407.726 284.24 404.709V404.709ZM307.653 408.041C305.388 405.402 304.256 401.514 304.256 396.378C304.256 391.338 305.388 387.51 307.653 384.894C309.917 382.279 313.075 380.971 317.128 380.971C321.179 380.971 324.339 382.279 326.603 384.894C328.867 387.51 330 391.362 330 396.45C330 401.539 328.867 405.402 326.603 408.041C324.339 410.68 321.179 412 317.128 412C313.075 412 309.917 410.68 307.653 408.041ZM321.133 403.904C321.991 402.359 322.42 399.874 322.42 396.45C322.42 393.074 321.979 390.613 321.097 389.067C320.214 387.522 318.892 386.749 317.128 386.749C315.316 386.749 313.982 387.522 313.124 389.067C312.265 390.613 311.836 393.074 311.836 396.45C311.836 399.874 312.265 402.359 313.124 403.904C313.982 405.45 315.316 406.222 317.128 406.222C318.94 406.222 320.275 405.45 321.133 403.904V403.904Z" fill="black"/>
<path d="M1392.86 1025.11C1391.07 1022.09 1383.32 1025.33 1381.9 1022.59C1380.48 1019.86 1387.68 1015.7 1391.79 1006.19C1392.53 1004.48 1397.2 993.677 1393.74 990.344C1387.19 984.027 1357.2 1010.1 1346.7 1001.57C1344.4 999.693 1342.79 995.956 1335.82 989.887C1333.04 987.473 1331.37 986.383 1329.74 986.789C1327.44 987.364 1327.26 990.448 1324.79 996.512C1321.09 1005.61 1318.9 1005.06 1316.74 1012.31C1315.14 1017.7 1315.5 1020.83 1313.62 1021.44C1310.95 1022.3 1308.5 1016.59 1305.12 1017.1C1301.67 1017.62 1299.58 1024.27 1298.92 1029.25C1297.69 1038.6 1301.12 1044.77 1303.02 1051.25C1305.08 1058.3 1306.31 1069.02 1301.54 1084.19L1254.32 1217.32C1264.74 1190 1294.93 1115.11 1307.61 1087.29C1311.27 1079.25 1315.32 1071.1 1323.62 1067.89C1331.61 1064.79 1342.59 1066.64 1356.58 1063.27C1358.21 1062.87 1362.75 1061.72 1363.32 1059.05C1363.79 1056.84 1361.12 1055.61 1361.53 1053.54C1362.08 1050.77 1367.33 1050.74 1373.78 1047.54C1378.32 1045.28 1381.15 1042.6 1383.59 1040.29C1384.32 1039.6 1395.24 1029.13 1392.86 1025.11H1392.86V1025.11Z" fill="#F2F2F2"/>
<path d="M1207.07 1095.2C1205.07 1095.21 1204.42 1099.94 1202.67 1099.85C1200.92 1099.76 1200.96 1095.03 1197.48 1090.27C1196.85 1089.41 1192.9 1084 1190.27 1084.73C1185.28 1086.13 1189.41 1108.38 1182.2 1111.07C1180.62 1111.67 1178.32 1111.38 1173.33 1113.05C1171.35 1113.71 1170.33 1114.22 1170.06 1115.14C1169.68 1116.44 1171.14 1117.41 1173.4 1120.38C1176.79 1124.82 1175.89 1125.74 1178.83 1128.89C1181.01 1131.23 1182.65 1131.95 1182.4 1133.06C1182.06 1134.61 1178.55 1134.17 1177.82 1135.98C1177.08 1137.82 1179.74 1140.77 1182 1142.53C1186.22 1145.83 1190.24 1145.93 1193.97 1146.86C1198.02 1147.88 1203.63 1150.37 1209.7 1157.09L1261.37 1218.7C1250.98 1205.7 1222.96 1169.26 1212.97 1155C1210.08 1150.89 1207.25 1146.55 1208.07 1141.55C1208.86 1136.73 1212.93 1131.87 1215.32 1124.02C1215.59 1123.11 1216.34 1120.55 1215.19 1119.5C1214.25 1118.63 1212.87 1119.58 1211.98 1118.79C1210.78 1117.72 1212.27 1115.13 1212.56 1111.04C1212.77 1108.16 1212.27 1105.99 1211.84 1104.13C1211.71 1103.57 1209.73 1095.19 1207.07 1095.2V1095.2H1207.07Z" fill="#F2F2F2"/>
<path d="M1246.92 1104.15L1245.72 1093.4L1246.27 1092.59C1248.81 1088.82 1250.11 1085.14 1250.12 1081.65C1250.13 1081.09 1250.1 1080.53 1250.07 1079.97C1249.97 1077.73 1249.84 1074.94 1251.29 1071.69C1252.11 1069.88 1254.4 1065.68 1257.83 1066.2C1258.76 1066.33 1259.46 1066.76 1259.99 1067.26C1260.07 1067.13 1260.15 1067.01 1260.24 1066.87C1261.31 1065.24 1262.16 1064.54 1262.97 1063.86C1263.6 1063.34 1264.25 1062.81 1265.27 1061.54C1265.71 1060.99 1266.06 1060.5 1266.35 1060.09C1267.24 1058.85 1268.4 1057.37 1270.45 1057.39C1272.64 1057.5 1273.79 1059.31 1274.55 1060.51C1275.9 1062.65 1276.52 1064.19 1276.93 1065.21C1277.07 1065.59 1277.24 1066.01 1277.33 1066.14C1278.03 1067.17 1283.77 1066.2 1285.93 1065.85C1290.78 1065.04 1294.98 1064.34 1296.71 1067.4C1297.95 1069.59 1297.03 1072.49 1293.89 1076.24C1292.91 1077.41 1291.87 1078.3 1290.95 1078.99C1291.72 1079.45 1292.4 1080.15 1292.68 1081.25C1293.33 1083.86 1291.09 1086.47 1286.03 1089.02C1284.77 1089.66 1283.08 1090.51 1280.7 1090.92C1279.59 1091.11 1278.58 1091.16 1277.72 1091.19C1277.7 1091.68 1277.58 1092.22 1277.28 1092.78C1276.39 1094.41 1274.54 1095.19 1271.75 1095.01C1268.68 1094.85 1266.15 1094.26 1263.92 1093.74C1261.97 1093.3 1260.29 1092.92 1258.97 1093.01C1256.53 1093.21 1254.65 1095.16 1252.44 1097.7L1246.92 1104.15H1246.92H1246.92Z" fill="#F2F2F2"/>
<path d="M1252.5 1040.15L1242.42 1044.04L1241.49 1043.71C1237.2 1042.21 1233.31 1041.88 1229.93 1042.76C1229.4 1042.89 1228.86 1043.06 1228.32 1043.23C1226.18 1043.9 1223.52 1044.73 1220.01 1044.15C1218.05 1043.82 1213.42 1042.67 1213.05 1039.21C1212.94 1038.28 1213.17 1037.49 1213.52 1036.85C1213.38 1036.81 1213.24 1036.76 1213.09 1036.71C1211.23 1036.09 1210.34 1035.45 1209.48 1034.83C1208.82 1034.35 1208.14 1033.86 1206.66 1033.2C1206.01 1032.91 1205.45 1032.69 1204.98 1032.51C1203.55 1031.97 1201.83 1031.22 1201.33 1029.23C1200.88 1027.08 1202.34 1025.51 1203.3 1024.47C1205.03 1022.62 1206.36 1021.63 1207.25 1020.98C1207.57 1020.74 1207.94 1020.47 1208.04 1020.36C1208.86 1019.41 1206.47 1014.11 1205.58 1012.1C1203.57 1007.61 1201.83 1003.73 1204.35 1001.27C1206.15 999.519 1209.18 999.675 1213.61 1001.76C1214.98 1002.41 1216.11 1003.19 1217.01 1003.91C1217.26 1003.05 1217.76 1002.21 1218.76 1001.67C1221.11 1000.37 1224.2 1001.88 1227.96 1006.13C1228.89 1007.19 1230.14 1008.61 1231.14 1010.8C1231.61 1011.84 1231.91 1012.8 1232.16 1013.63C1232.64 1013.52 1233.19 1013.49 1233.81 1013.65C1235.61 1014.09 1236.84 1015.69 1237.36 1018.44C1237.99 1021.45 1238.06 1024.05 1238.13 1026.34C1238.19 1028.33 1238.25 1030.05 1238.67 1031.31C1239.48 1033.62 1241.85 1034.95 1244.87 1036.44L1252.5 1040.15L1252.5 1040.15V1040.15Z" fill="#F2F2F2"/>
<path d="M1246.92 1008.48L1245.72 997.727L1246.27 996.912C1248.81 993.143 1250.11 989.463 1250.12 985.969C1250.13 985.414 1250.1 984.859 1250.07 984.293C1249.97 982.051 1249.84 979.263 1251.29 976.014C1252.11 974.202 1254.4 970.008 1257.83 970.527C1258.76 970.657 1259.46 971.082 1259.99 971.581C1260.07 971.456 1260.15 971.332 1260.24 971.197C1261.31 969.562 1262.16 968.861 1262.97 968.186C1263.6 967.667 1264.25 967.132 1265.27 965.866C1265.71 965.31 1266.06 964.823 1266.35 964.412C1267.24 963.172 1268.4 961.692 1270.45 961.718C1272.64 961.822 1273.79 963.634 1274.55 964.833C1275.9 966.971 1276.52 968.513 1276.93 969.536C1277.07 969.909 1277.24 970.33 1277.33 970.46C1278.03 971.498 1283.77 970.527 1285.93 970.174C1290.78 969.364 1294.98 968.664 1296.71 971.726C1297.95 973.917 1297.03 976.813 1293.89 980.566C1292.91 981.734 1291.87 982.622 1290.95 983.317C1291.72 983.774 1292.4 984.475 1292.68 985.575C1293.33 988.181 1291.09 990.792 1286.03 993.346C1284.77 993.984 1283.08 994.835 1280.7 995.245C1279.59 995.438 1278.58 995.484 1277.72 995.51C1277.7 996.008 1277.58 996.548 1277.28 997.104C1276.39 998.739 1274.54 999.517 1271.75 999.331C1268.68 999.17 1266.15 998.583 1263.92 998.069C1261.97 997.623 1260.29 997.244 1258.97 997.332C1256.53 997.529 1254.65 999.486 1252.44 1002.02L1246.92 1008.48H1246.92H1246.92Z" fill="#F2F2F2"/>
<path d="M1257.91 1217.14L1255.66 1215.73L1255.12 1213.13L1255.66 1215.73L1253.04 1216.03C1252.99 1215.79 1252.85 1215.23 1252.64 1214.35C1251.46 1209.55 1247.88 1194.92 1244.89 1171.88C1242.81 1155.8 1241.63 1139.27 1241.38 1122.74C1241.14 1106.18 1241.92 1093.64 1242.55 1083.57C1243.02 1075.97 1243.6 1068.73 1244.17 1061.68C1245.67 1042.85 1247.09 1025.06 1246.03 1005.37C1245.8 1000.97 1245.31 991.82 1239.97 982.082C1236.87 976.434 1232.6 971.42 1227.27 967.184L1230.58 963.021C1236.46 967.703 1241.18 973.258 1244.62 979.528C1250.55 990.325 1251.08 1000.3 1251.34 1005.09C1252.41 1025.13 1250.98 1043.09 1249.46 1062.1C1248.9 1069.13 1248.32 1076.33 1247.85 1083.9C1247.23 1093.88 1246.45 1106.31 1246.69 1122.65C1246.93 1138.99 1248.1 1155.32 1250.16 1171.2C1253.11 1193.94 1256.64 1208.35 1257.8 1213.09C1258.42 1215.61 1258.55 1216.14 1257.91 1217.14V1217.14H1257.91Z" fill="#F2F2F2"/>
<path d="M1217.53 975.63C1217.31 975.63 1217.09 975.624 1216.87 975.609C1212.35 975.365 1208.16 972.655 1204.42 967.558C1202.67 965.16 1201.77 962.424 1199.98 956.969C1199.7 956.128 1198.35 951.861 1197.53 945.99C1197 942.154 1197.06 940.551 1197.82 939.134C1198.67 937.555 1200.03 936.455 1201.57 935.713C1201.5 935.204 1201.55 934.68 1201.77 934.145C1202.68 931.929 1205.09 932.219 1206.39 932.36C1207.05 932.443 1207.87 932.552 1208.76 932.505C1210.15 932.437 1210.9 932.022 1212.04 931.399C1213.12 930.802 1214.47 930.06 1216.48 929.65C1220.43 928.825 1223.74 929.946 1224.84 930.314C1230.58 932.23 1233.41 936.699 1236.69 941.874C1237.35 942.912 1239.59 946.691 1241.07 951.871C1242.14 955.609 1241.99 957.27 1241.67 958.505C1241.01 961.043 1239.47 962.497 1235.55 965.705C1231.46 969.063 1229.4 970.745 1227.64 971.768C1223.53 974.14 1220.96 975.63 1217.53 975.63V975.63V975.63Z" fill="#F2F2F2"/>
</svg>
