<svg width="1500" height="1500" viewBox="0 0 1500 1500" fill="none" xmlns="http://www.w3.org/2000/svg">
<path d="M816.994 437.454C785.619 437.454 756.108 432.783 733.897 424.301C711.389 415.707 698.994 404.162 698.994 391.793C698.994 379.424 711.389 367.879 733.897 359.285C756.108 350.804 785.619 346.133 816.994 346.133C848.369 346.133 877.88 350.804 900.092 359.285C922.599 367.879 934.994 379.424 934.994 391.793C934.994 404.161 922.599 415.707 900.092 424.301C877.88 432.783 848.369 437.454 816.994 437.454V437.454ZM816.994 348.081C785.851 348.081 756.587 352.706 734.591 361.105C712.892 369.391 700.942 380.289 700.942 391.793C700.942 403.296 712.892 414.195 734.591 422.481C756.587 430.88 785.851 435.506 816.994 435.506C848.137 435.506 877.402 430.88 899.397 422.481C921.096 414.195 933.046 403.297 933.046 391.793C933.046 380.289 921.096 369.391 899.397 361.105C877.402 352.706 848.137 348.081 816.994 348.081V348.081Z" fill="#4FD1C5"/>
<path d="M865.748 496.586C855.997 496.586 843.843 490.95 830.392 480.018C811.942 465.021 793.141 441.797 777.454 414.623C761.767 387.45 751.056 359.555 747.295 336.076C743.484 312.285 747.283 295.778 757.994 289.593C768.705 283.409 784.9 288.372 803.596 303.568C822.046 318.565 840.847 341.789 856.534 368.963C872.221 396.136 882.932 424.032 886.693 447.51C890.504 471.301 886.705 487.809 875.994 493.993C872.989 495.728 869.55 496.586 865.748 496.586V496.586ZM768.293 288.933C764.816 288.933 761.689 289.709 758.968 291.28C749.006 297.032 745.544 312.831 749.218 335.768C752.943 359.018 763.57 386.676 779.141 413.65C794.713 440.622 813.35 463.655 831.621 478.506C849.646 493.157 865.059 498.059 875.02 492.306C884.982 486.554 888.444 470.755 884.77 447.818C881.045 424.569 870.418 396.91 854.847 369.937C839.275 342.964 820.638 319.931 802.367 305.08C789.266 294.431 777.544 288.933 768.293 288.933Z" fill="#4FD1C5"/>
<path d="M768.24 496.586C764.436 496.586 761 495.729 757.994 493.993C747.283 487.809 743.484 471.301 747.295 447.51C751.056 424.032 761.767 396.136 777.454 368.963C793.141 341.789 811.942 318.565 830.392 303.568C849.088 288.372 865.284 283.408 875.994 289.593C886.705 295.778 890.504 312.285 886.693 336.076C882.932 359.555 872.221 387.45 856.534 414.623C840.847 441.797 822.046 465.021 803.596 480.018C790.147 490.95 777.99 496.586 768.24 496.586V496.586ZM865.695 288.933C856.444 288.933 844.724 294.43 831.621 305.08C813.35 319.931 794.713 342.964 779.141 369.937C763.57 396.91 752.943 424.569 749.218 447.818C745.544 470.755 749.006 486.554 758.968 492.306C761.688 493.877 764.817 494.653 768.293 494.654C777.544 494.654 789.264 489.156 802.367 478.506C820.638 463.656 839.275 440.622 854.847 413.65C870.418 386.676 881.045 359.018 884.77 335.768C888.444 312.831 884.982 297.032 875.02 291.28C872.3 289.71 869.171 288.933 865.695 288.933V288.933Z" fill="#4FD1C5"/>
<path d="M816.994 413.604C829.039 413.604 838.803 403.839 838.803 391.793C838.803 379.747 829.039 369.982 816.994 369.982C804.949 369.982 795.185 379.747 795.185 391.793C795.185 403.839 804.949 413.604 816.994 413.604Z" fill="#4FD1C5"/>
<path d="M1391.91 1266.46L81.0785 1267C80.5267 1267 79.998 1266.78 79.6084 1266.39C79.2188 1266 79 1265.47 79 1264.92C79 1264.37 79.2188 1263.84 79.6084 1263.45C79.998 1263.06 80.5267 1262.84 81.0785 1262.83L1391.91 1262.3C1392.46 1262.3 1392.99 1262.52 1393.38 1262.91C1393.77 1263.3 1393.99 1263.83 1393.99 1264.38C1393.99 1264.93 1393.77 1265.46 1393.38 1265.85C1392.99 1266.24 1392.46 1266.46 1391.91 1266.46V1266.46Z" fill="#CACACA"/>
<path d="M1135.8 1222.28V1109.61C1135.8 1107.32 1136.71 1105.14 1138.32 1103.53C1139.94 1101.91 1142.12 1101.01 1144.41 1101H1229.57C1231.85 1101.01 1234.04 1101.91 1235.65 1103.53C1237.26 1105.14 1238.17 1107.32 1238.17 1109.61V1222.28C1238.17 1224.56 1237.26 1226.75 1235.65 1228.36C1234.04 1229.97 1231.85 1230.88 1229.57 1230.88H1144.41C1142.12 1230.88 1139.94 1229.97 1138.32 1228.36C1136.71 1226.75 1135.8 1224.56 1135.8 1222.28Z" fill="#E6E6E6"/>
<path d="M1142.33 1188.25V1115.81C1142.33 1113.67 1143.18 1111.63 1144.69 1110.12C1146.21 1108.61 1148.26 1107.76 1150.39 1107.75H1223.58C1225.72 1107.76 1227.77 1108.61 1229.28 1110.12C1230.79 1111.63 1231.64 1113.67 1231.64 1115.81V1216.07C1231.64 1218.21 1230.79 1220.26 1229.28 1221.77C1227.77 1223.28 1225.72 1224.13 1223.58 1224.13H1178.24C1168.72 1224.12 1159.59 1220.34 1152.86 1213.61C1146.13 1206.88 1142.34 1197.76 1142.33 1188.25V1188.25Z" fill="white"/>
<path d="M1154.18 1136.02C1154.18 1133.93 1155.01 1131.93 1156.49 1130.46C1157.97 1128.98 1159.97 1128.15 1162.06 1128.15H1212.83C1214.92 1128.15 1216.92 1128.98 1218.4 1130.45C1219.88 1131.93 1220.71 1133.93 1220.71 1136.02C1220.71 1138.11 1219.88 1140.11 1218.4 1141.59C1216.92 1143.06 1214.92 1143.89 1212.83 1143.89H1162.06C1159.97 1143.89 1157.97 1143.06 1156.49 1141.58C1155.01 1140.11 1154.18 1138.11 1154.18 1136.02V1136.02Z" fill="#E6E6E6"/>
<path d="M1154.18 1160.51C1154.18 1158.42 1155.01 1156.42 1156.49 1154.95C1157.97 1153.47 1159.97 1152.64 1162.06 1152.64H1212.83C1214.92 1152.64 1216.92 1153.47 1218.4 1154.95C1219.88 1156.42 1220.71 1158.42 1220.71 1160.51C1220.71 1162.6 1219.88 1164.6 1218.4 1166.08C1216.92 1167.55 1214.92 1168.38 1212.83 1168.38H1162.06C1159.97 1168.38 1157.97 1167.55 1156.49 1166.08C1155.01 1164.6 1154.18 1162.6 1154.18 1160.51V1160.51Z" fill="#E6E6E6"/>
<path d="M1154.18 1185C1154.18 1182.92 1155.01 1180.91 1156.49 1179.44C1157.97 1177.96 1159.97 1177.13 1162.06 1177.13H1212.83C1214.92 1177.13 1216.92 1177.96 1218.4 1179.44C1219.88 1180.91 1220.71 1182.91 1220.71 1185C1220.71 1187.09 1219.88 1189.09 1218.4 1190.57C1216.92 1192.05 1214.92 1192.87 1212.83 1192.87H1162.06C1159.97 1192.87 1157.97 1192.04 1156.49 1190.57C1155.01 1189.09 1154.18 1187.09 1154.18 1185V1185Z" fill="#E6E6E6"/>
<path d="M1151.59 638.531C1119.51 690.862 1087.56 794.565 1043.04 798.206C983.297 803.093 934.501 698.431 934.501 638.531C934.501 609.766 945.937 582.18 966.292 561.84C986.648 541.5 1014.26 530.073 1043.04 530.073C1102.99 530.073 1182.9 587.45 1151.59 638.531Z" fill="#CCCCCC"/>
<path d="M1057.92 817.206H1057.92C1047.69 817.206 1037.56 819.219 1028.11 823.131C1018.66 827.043 1010.07 832.777 1002.84 840.006C995.603 847.235 989.864 855.816 985.949 865.261C982.034 874.705 980.019 884.828 980.019 895.051L1027.29 1132.08V1239.43C1022.31 1240.61 1017.87 1243.43 1014.69 1247.44C1011.51 1251.45 1009.78 1256.42 1009.78 1261.54H1051.8V1132.08H1079.81V1239.09C1074.45 1239.92 1069.56 1242.64 1066.03 1246.76C1062.5 1250.87 1060.55 1256.11 1060.55 1261.54H1104.32V1132.08L1135.83 895.051C1135.83 884.828 1133.82 874.705 1129.9 865.261C1125.99 855.816 1120.25 847.235 1113.01 840.006C1105.78 832.777 1097.19 827.043 1087.74 823.131C1078.29 819.219 1068.16 817.206 1057.92 817.206V817.206Z" fill="#CCCCCC"/>
<path d="M835.135 877.654C829.304 871.837 818.769 867.936 806.7 867.936C788.33 867.936 773.437 876.943 773.437 888.054C773.437 899.164 788.33 908.171 806.7 908.171C815.2 908.359 823.581 906.162 830.894 901.83L830.884 901.933L1013.99 910.967L1016.43 886.598L835.135 877.654Z" fill="#CCCCCC"/>
<path d="M1124.03 1074.85C1119.79 1081.9 1118.55 1093.06 1121.46 1104.76C1125.9 1122.58 1138.24 1134.84 1149.03 1132.16C1159.82 1129.48 1164.97 1112.86 1160.54 1095.05C1158.67 1086.76 1154.51 1079.17 1148.54 1073.12L1148.64 1073.11L1113.2 893.372L1088.95 896.889L1124.03 1074.85Z" fill="#CCCCCC"/>
<path d="M1067.22 592.223C1069.64 582.185 1061.86 573.023 1052.7 569.968C1040.61 565.93 1027.96 571.6 1016.22 574.178C1010.17 575.507 1003.75 576.173 997.783 574.108C993.326 572.462 989.472 569.508 986.726 565.633C980.214 556.695 979.885 545.312 983.302 535.091C989.966 515.156 1008.76 500.637 1028.97 496.377C1053.21 491.268 1076.67 503.376 1098.48 512.321L1119.52 520.954C1125.96 523.597 1132.55 526.034 1138.78 529.154C1148.79 534.165 1160.14 544.149 1156.03 556.684C1154.97 559.901 1160.04 561.279 1161.09 558.079C1164.69 547.103 1158.23 536.047 1149.59 529.574C1144.77 526.188 1139.55 523.407 1134.05 521.294C1127.8 518.67 1121.52 516.14 1115.25 513.569C1102.28 508.248 1089.38 502.694 1076.28 497.685C1064.53 493.191 1052.12 489.517 1039.41 489.887C1028.67 490.274 1018.17 493.173 1008.75 498.35C999.326 503.527 991.251 510.838 985.17 519.698C978.381 529.766 974.35 542.225 976.4 554.394C978.045 564.158 984.34 573.701 993.452 577.97C1007.17 584.395 1021.46 577.527 1035.15 574.807C1041.72 573.5 1049.07 573.126 1054.98 576.789C1059.7 579.706 1063.54 585.089 1062.15 590.828C1061.36 594.11 1066.43 595.51 1067.22 592.223L1067.22 592.223Z" fill="#3F3D56"/>
<path d="M796.968 887.199C778.382 887.386 759.81 886.099 741.427 883.35C722.184 880.096 713.221 875.255 713.221 868.11L713.234 867.827L744.781 627.756L729.102 582.847C728.249 580.451 727.994 577.883 728.358 575.366C728.722 572.849 729.695 570.459 731.192 568.402C732.652 566.305 734.611 564.605 736.893 563.453C739.174 562.302 741.707 561.737 744.263 561.809L848.967 562.898C851.463 562.924 853.917 563.538 856.13 564.692C858.343 565.845 860.252 567.505 861.7 569.536C863.149 571.567 864.097 573.911 864.467 576.377C864.837 578.844 864.618 581.363 863.828 583.728L849.151 627.727L880.709 867.81V867.924C880.713 875.661 870.616 880.711 848.932 883.909C831.703 886.16 814.343 887.26 796.968 887.199V887.199ZM743.909 565.303C741.97 565.302 740.061 565.769 738.342 566.663C736.623 567.558 735.146 568.855 734.036 570.443C732.87 572.045 732.112 573.907 731.828 575.867C731.545 577.828 731.744 579.828 732.409 581.695L748.361 627.388L748.307 627.8L716.718 868.148L716.72 868.204C716.722 871.539 721.109 876.367 742.011 879.9C760.201 882.616 778.577 883.887 796.968 883.701C814.172 883.761 831.361 882.675 848.421 880.448C872.217 876.939 877.209 871.751 877.207 868.018L845.574 627.384L860.507 582.621C861.122 580.779 861.292 578.817 861.004 576.896C860.715 574.975 859.977 573.149 858.849 571.567C857.72 569.985 856.233 568.692 854.51 567.794C852.786 566.895 850.874 566.417 848.931 566.397L744.204 565.307C744.105 565.304 744.007 565.303 743.909 565.303Z" fill="#3F3D56"/>
<path opacity="0.5" d="M856.667 838.704H737.269L756.196 710.817L756.712 707.292L764.597 654.052C765.078 650.804 768.82 653.326 771.465 651.38C787.892 639.293 804.514 638.942 821.281 650.592C823.873 652.393 827.453 650.285 827.936 653.402L836.22 706.804L837.021 711.969L856.667 838.704Z" fill="#4FD1C5"/>
<path d="M841.931 856.612H751.878C749.517 856.612 747.184 856.103 745.037 855.121C742.891 854.139 740.981 852.706 739.439 850.92C737.897 849.134 736.757 847.037 736.099 844.772C735.441 842.506 735.279 840.126 735.625 837.792L761.936 660.012C762.071 659.103 762.445 658.246 763.019 657.528C763.593 656.81 764.346 656.256 765.203 655.922C766.06 655.588 766.99 655.486 767.899 655.627C768.808 655.768 769.663 656.146 770.379 656.723C786.414 669.559 803.891 669.27 822.322 655.869C823.037 655.346 823.875 655.018 824.754 654.916C825.634 654.814 826.525 654.941 827.34 655.285C828.173 655.626 828.903 656.177 829.459 656.885C830.015 657.592 830.378 658.431 830.513 659.32L858.168 837.681C858.531 840.022 858.383 842.413 857.733 844.691C857.084 846.969 855.949 849.079 854.407 850.878C852.864 852.676 850.951 854.12 848.797 855.109C846.644 856.099 844.302 856.612 841.931 856.612V856.612Z" fill="#4FD1C5"/>
<path d="M805.695 835.769H754.531V838.644H805.695V835.769Z" fill="white"/>
<path d="M805.695 818.52H754.531V821.395H805.695V818.52Z" fill="white"/>
<path d="M805.695 801.271H754.531V804.146H805.695V801.271Z" fill="white"/>
<path d="M805.695 784.023H754.531V786.897H805.695V784.023Z" fill="white"/>
<path d="M805.695 766.774H754.531V769.648H805.695V766.774Z" fill="white"/>
<path d="M839.434 721.524C835.465 725.461 830.692 728.494 825.44 730.415C820.188 732.335 814.583 733.098 809.009 732.65C802.754 731.894 796.72 729.874 791.271 726.713C785.503 723.623 779.922 719.928 773.534 718.204C767.939 716.694 761.307 716.493 756.502 720.23C756.109 720.534 755.63 720.705 755.133 720.718C754.636 720.731 754.148 720.585 753.74 720.302L754.287 716.565C756.955 714.838 759.949 713.678 763.085 713.156C766.22 712.634 769.429 712.762 772.513 713.532C785.345 716.119 795.084 726.727 808.232 728.251C813.903 728.889 819.645 728.109 824.94 725.982C830.236 723.854 834.919 720.445 838.57 716.062L838.585 716.047L839.434 721.524Z" fill="white"/>
<path d="M477.57 320.396C475.791 359.001 446.151 388.101 407.542 390.37C365.793 392.822 328.58 366.04 337.515 320.396C347.464 269.567 369.599 257.878 407.542 250.423C452.008 241.688 479.492 278.685 477.57 320.396Z" fill="#626474"/>
<path d="M618.836 591.114C616.608 592.44 614.116 593.262 611.536 593.521C608.956 593.781 606.35 593.473 603.902 592.617C601.454 591.762 599.224 590.381 597.368 588.571C595.512 586.761 594.076 584.566 593.161 582.142L511.268 598.026L431.176 565.257L451.622 532.57L511.332 562.484L604.631 558.691C608.809 557.425 613.306 557.734 617.272 559.559C621.237 561.385 624.395 564.601 626.146 568.597C627.897 572.594 628.12 577.093 626.773 581.243C625.425 585.393 622.602 588.905 618.836 591.114V591.114Z" fill="#FFB6B6"/>
<path d="M367.008 524.746C367.008 524.746 361.512 532.33 379.58 540.553C394.045 547.137 471.738 589.144 493.526 592.648C493.744 595.731 494.982 598.654 497.046 600.956C499.109 603.259 501.881 604.81 504.924 605.365L517.225 561.213C511.684 552.428 505.528 555.627 502.444 558.299L478.535 539.475L412.728 497.999L370.884 519.194L367.008 524.746Z" fill="#F2F2F2"/>
<path d="M481.071 427.106L450.482 421.897L394.364 447.53L362.851 883.113L461.812 837.382C477.762 830.012 495.812 828.536 512.749 833.218V833.218C515.667 834.025 518.74 834.093 521.691 833.417C524.642 832.741 527.379 831.342 529.653 829.345C531.928 827.349 533.67 824.818 534.722 821.982C535.774 819.145 536.103 816.091 535.679 813.096L481.071 427.106Z" fill="#F2F2F2"/>
<path d="M389.323 1223.5H413.341L424.77 1130.94H389.323V1223.5Z" fill="#FFB6B6"/>
<path d="M376.647 1265.08H393.871L396.945 1248.83L404.819 1265.08H450.499C452.689 1265.08 454.821 1264.38 456.585 1263.08C458.349 1261.79 459.652 1259.96 460.303 1257.87C460.955 1255.78 460.921 1253.54 460.207 1251.47C459.493 1249.41 458.136 1247.62 456.334 1246.38L419.855 1221.2V1204.78L381.485 1207.06L376.647 1265.08Z" fill="#626474"/>
<path d="M269.634 1172.43L289.007 1186.62L352.977 1118.7L324.385 1097.77L269.634 1172.43Z" fill="#FFB6B6"/>
<path d="M234.813 1198.49L248.706 1208.66L260.797 1197.37L257.537 1215.13L294.385 1242.1C296.151 1243.4 298.285 1244.09 300.475 1244.09C302.664 1244.08 304.795 1243.38 306.557 1242.08C308.318 1240.78 309.617 1238.95 310.264 1236.86C310.912 1234.77 310.874 1232.53 310.155 1230.46L295.62 1188.61L305.337 1175.36L273.033 1154.55L234.813 1198.49Z" fill="#626474"/>
<path d="M477.325 799.17C475.995 817.608 453.586 884.887 453.586 884.887L449.577 925.577L438.162 1041.5L425.82 1166.79C407.367 1199.73 375.715 1177.29 375.715 1177.29V1156.3C375.715 1156.3 373.246 1137.35 370.76 1113.33C367.084 1078.01 363.355 1031.71 367.277 1018.38C366.89 1016.58 366.598 1014.75 366.401 1012.92C362.375 981.713 352.571 841.801 366.576 826.845C345.438 805.803 332.592 777.857 330.389 748.125C330.074 743.804 329.812 739.273 329.654 734.567C328.586 704.829 348.912 669.982 356.86 657.597C358.786 654.588 357.744 649.621 357.744 649.621L474.148 695.768L476.642 699.161V713.628L477.325 799.17Z" fill="#8F98EE"/>
<path d="M449.577 925.577L438.162 1041.5L370.76 1113.33L339.178 1146.99C304.462 1161.86 293.047 1124.79 293.047 1124.79L305.845 1108.15C305.845 1108.15 341.769 1046.32 366.401 1012.92C373.211 1003.7 379.164 996.635 383.243 993.661C392.451 986.978 420.27 950.662 446.39 915.186L449.577 925.577Z" fill="#8F98EE"/>
<path d="M327.093 653.998C327.217 656.573 327.749 659.112 328.669 661.52C328.774 661.818 328.879 662.098 329.002 662.395C331.162 667.555 334.997 671.838 339.891 674.553C341.331 675.364 342.851 676.026 344.425 676.53L358.063 678.716L475.342 697.452L480.051 683.3L471.175 661.118L477.058 642.05L477.857 531.002C491.346 504.499 494.06 479.559 478.388 457.286V457.146L457.082 423.192L442.902 401.728L397.419 400.276L390.959 416.649L378.196 424.276C349.905 441.175 339.716 472.121 340.329 505.06C350.08 542.793 342.902 584.742 335.637 629.718L329.702 641.578C327.779 645.425 326.88 649.703 327.093 653.998Z" fill="#4FD1C5"/>
<path opacity="0.2" d="M327.093 653.998C327.217 656.573 327.749 659.112 328.669 661.52L339.891 674.553C341.331 675.364 342.851 676.026 344.425 676.53L358.063 678.716L338.333 641.648L381.697 546.782L327.093 653.998Z" fill="black"/>
<path d="M433.803 432.353L390.959 416.649L334.84 442.282L337.515 621.281C320.862 635.016 317.508 654.814 329.478 681.6L307.836 844.034C307.392 847.364 307.851 850.753 309.166 853.846C310.481 856.938 312.603 859.621 315.31 861.615C318.018 863.608 321.211 864.838 324.557 865.176C327.903 865.515 331.278 864.949 334.33 863.539L377.026 843.808C409.287 828.901 445.795 825.916 480.051 835.385V835.385L433.803 432.353Z" fill="#F2F2F2"/>
<path d="M364.748 344.76C366.743 359.297 374.431 372.448 386.125 381.324C397.818 390.2 412.559 394.074 427.11 392.095C441.66 390.116 454.829 382.447 463.723 370.771C472.618 359.095 476.509 344.369 474.543 329.828L474.436 329.042C472.14 314.697 464.293 301.828 452.587 293.211C440.881 284.595 426.255 280.922 411.863 282.984C397.471 285.046 384.467 292.679 375.656 304.235C366.845 315.791 362.934 330.345 364.765 344.757L364.748 344.76Z" fill="#FFB8B8"/>
<path d="M495.077 323.895C483.019 326.908 470.405 326.908 458.347 323.895C457.628 320.298 456.314 316.845 454.461 313.679C454.224 317.176 453.469 320.619 452.22 323.895C442.107 330.901 419.198 327.081 397.038 323.895V267.917H439.055C474.623 264.731 500.435 289.301 495.077 323.895Z" fill="#626474"/>
<path d="M388.945 239.964C385.75 235.515 379.442 233.574 373.781 234.078C368.241 234.827 362.953 236.859 358.338 240.013C350.444 244.872 343.333 250.901 337.248 257.894C332.001 263.951 327.547 272.346 331.662 279.388C335.095 285.263 343.479 287.535 350.438 286.228C357.397 284.921 363.214 280.839 368.601 276.688C373.988 272.538 379.365 268.116 386.013 265.9L380.652 265.477C384.298 262.17 387.342 258.257 389.649 253.91C390.76 251.726 391.279 249.29 391.155 246.843C391.032 244.397 390.27 242.025 388.945 239.964V239.964Z" fill="#626474"/>
<path d="M440.806 276.663H395.728C383.539 276.663 371.85 281.502 363.231 290.114C354.612 298.726 349.77 310.407 349.77 322.586V322.586C349.771 340.325 356.392 357.426 368.339 370.548C380.285 383.669 396.699 391.868 414.372 393.543L398.789 348.386L428.875 393.868H440.806C400.116 359.942 411.528 319.432 440.806 276.663Z" fill="#626474"/>
<path d="M580.084 1246.09C574.212 1246.15 568.345 1245.75 562.537 1244.88C557.129 1243.96 554.387 1242.67 554.387 1241.02L554.389 1240.99L564.477 1164.24L559.397 1149.69C559.183 1149.08 559.12 1148.43 559.213 1147.79C559.306 1147.15 559.551 1146.54 559.929 1146.01C560.307 1145.49 560.806 1145.06 561.384 1144.77C561.961 1144.47 562.601 1144.32 563.249 1144.33L596.66 1144.68C597.296 1144.69 597.921 1144.84 598.485 1145.14C599.049 1145.43 599.535 1145.85 599.904 1146.37C600.273 1146.89 600.514 1147.48 600.609 1148.11C600.703 1148.74 600.647 1149.38 600.446 1149.99L595.69 1164.24L605.778 1240.99C605.78 1245.02 589.628 1246.09 580.084 1246.09Z" fill="#F2F2F2"/>
<path d="M577.361 1235.29H561.041V1236.21H577.361V1235.29Z" fill="#CCCCCC"/>
<path d="M577.361 1229.79H561.041V1230.7H577.361V1229.79Z" fill="#CCCCCC"/>
<path d="M577.361 1224.28H561.041V1225.2H577.361V1224.28Z" fill="#CCCCCC"/>
<path d="M577.361 1218.78H561.041V1219.7H577.361V1218.78Z" fill="#CCCCCC"/>
<path d="M577.361 1213.28H561.041V1214.2H577.361V1213.28Z" fill="#CCCCCC"/>
<path d="M726.921 1246.09C721.049 1246.15 715.182 1245.75 709.374 1244.88C703.967 1243.96 701.224 1242.67 701.224 1241.02L701.227 1240.99L711.314 1164.24L706.234 1149.69C706.02 1149.08 705.957 1148.43 706.05 1147.79C706.143 1147.15 706.388 1146.54 706.766 1146.01C707.144 1145.49 707.643 1145.06 708.221 1144.77C708.799 1144.47 709.438 1144.32 710.086 1144.33L743.497 1144.68C744.133 1144.69 744.758 1144.84 745.322 1145.14C745.886 1145.43 746.372 1145.85 746.741 1146.37C747.11 1146.89 747.351 1147.48 747.446 1148.11C747.54 1148.74 747.484 1149.38 747.283 1149.99L742.527 1164.24L752.615 1240.99C752.618 1245.02 736.465 1246.09 726.921 1246.09Z" fill="#F2F2F2"/>
<path d="M724.198 1235.29H707.878V1236.21H724.198V1235.29Z" fill="#CCCCCC"/>
<path d="M724.198 1229.79H707.878V1230.7H724.198V1229.79Z" fill="#CCCCCC"/>
<path d="M724.198 1224.28H707.878V1225.2H724.198V1224.28Z" fill="#CCCCCC"/>
<path d="M724.198 1218.78H707.878V1219.7H724.198V1218.78Z" fill="#CCCCCC"/>
<path d="M724.198 1213.28H707.878V1214.2H724.198V1213.28Z" fill="#CCCCCC"/>
<path d="M658.091 1246.09C652.219 1246.15 646.352 1245.75 640.544 1244.88C635.137 1243.96 632.395 1242.67 632.395 1241.02L632.397 1240.99L642.485 1164.24L637.404 1149.69C637.191 1149.08 637.128 1148.43 637.22 1147.79C637.313 1147.15 637.559 1146.54 637.936 1146.01C638.314 1145.49 638.813 1145.06 639.391 1144.77C639.969 1144.47 640.608 1144.32 641.256 1144.33L674.667 1144.68C675.303 1144.69 675.928 1144.84 676.492 1145.14C677.056 1145.43 677.542 1145.85 677.911 1146.37C678.28 1146.89 678.522 1147.48 678.616 1148.11C678.71 1148.74 678.654 1149.38 678.453 1149.99L673.697 1164.24L683.786 1240.99C683.788 1245.02 667.635 1246.09 658.091 1246.09Z" fill="#F2F2F2"/>
<path d="M655.369 1235.29H639.048V1236.21H655.369V1235.29Z" fill="#CCCCCC"/>
<path d="M655.369 1229.79H639.048V1230.7H655.369V1229.79Z" fill="#CCCCCC"/>
<path d="M655.369 1224.28H639.048V1225.2H655.369V1224.28Z" fill="#CCCCCC"/>
<path d="M655.369 1218.78H639.048V1219.7H655.369V1218.78Z" fill="#CCCCCC"/>
<path d="M655.369 1213.28H639.048V1214.2H655.369V1213.28Z" fill="#CCCCCC"/>
<path d="M766.613 1251.8H735.41V1199.53H766.613C768.315 1199.52 769.946 1198.84 771.149 1197.64C772.351 1196.44 773.026 1194.81 773.026 1193.11C773.026 1191.41 772.351 1189.77 771.149 1188.57C769.946 1187.37 768.315 1186.69 766.613 1186.69H549.11C547.408 1186.69 545.777 1187.37 544.575 1188.57C543.372 1189.77 542.697 1191.41 542.697 1193.11C542.697 1194.81 543.372 1196.44 544.575 1197.64C545.777 1198.84 547.408 1199.52 549.11 1199.53H575.725V1251.8H549.11C547.408 1251.8 545.777 1252.48 544.575 1253.68C543.372 1254.88 542.697 1256.51 542.697 1258.21C542.697 1259.91 543.372 1261.55 544.575 1262.75C545.777 1263.95 547.408 1264.63 549.11 1264.63H766.613C768.315 1264.63 769.946 1263.95 771.149 1262.75C772.351 1261.55 773.026 1259.91 773.026 1258.21C773.026 1256.51 772.351 1254.88 771.149 1253.68C769.946 1252.48 768.315 1251.8 766.613 1251.8ZM588.573 1251.8V1199.53H722.562V1251.8H588.573Z" fill="#CCCCCC"/>
<path d="M486.734 834.111V721.437C486.737 719.157 487.645 716.97 489.258 715.358C490.872 713.745 493.06 712.838 495.343 712.836H580.502C582.785 712.838 584.973 713.745 586.586 715.358C588.2 716.97 589.108 719.157 589.111 721.437V834.111C589.108 836.391 588.2 838.577 586.586 840.19C584.973 841.803 582.785 842.71 580.502 842.712H495.343C493.06 842.71 490.872 841.803 489.258 840.19C487.645 838.578 486.737 836.391 486.734 834.111V834.111Z" fill="#E6E6E6"/>
<path d="M493.267 800.079V727.642C493.269 725.506 494.119 723.459 495.631 721.948C497.142 720.438 499.191 719.589 501.329 719.586H574.516C576.654 719.589 578.703 720.438 580.214 721.948C581.726 723.459 582.576 725.506 582.579 727.642V827.906C582.576 830.042 581.726 832.089 580.214 833.6C578.703 835.11 576.654 835.959 574.516 835.962H529.178C519.657 835.951 510.529 832.167 503.797 825.44C497.064 818.713 493.277 809.592 493.267 800.079V800.079Z" fill="white"/>
<path d="M505.117 747.853C505.119 745.766 505.95 743.765 507.427 742.289C508.903 740.814 510.906 739.983 512.995 739.981H563.765C565.854 739.981 567.858 740.811 569.335 742.287C570.813 743.763 571.643 745.765 571.643 747.853C571.643 749.941 570.813 751.943 569.335 753.419C567.858 754.896 565.854 755.725 563.765 755.725H512.995C510.906 755.723 508.903 754.893 507.427 753.417C505.95 751.941 505.119 749.94 505.117 747.853Z" fill="#E6E6E6"/>
<path d="M505.117 772.344C505.119 770.257 505.95 768.256 507.427 766.78C508.903 765.304 510.906 764.474 512.995 764.472H563.765C565.854 764.472 567.858 765.301 569.335 766.777C570.813 768.254 571.643 770.256 571.643 772.344C571.643 774.431 570.813 776.434 569.335 777.91C567.858 779.386 565.854 780.216 563.765 780.216H512.995C510.906 780.213 508.903 779.383 507.427 777.908C505.95 776.432 505.119 774.431 505.117 772.344Z" fill="#E6E6E6"/>
<path d="M505.117 796.834C505.119 794.747 505.95 792.746 507.427 791.271C508.903 789.795 510.906 788.965 512.995 788.962H563.765C565.854 788.962 567.858 789.792 569.335 791.268C570.813 792.744 571.643 794.747 571.643 796.834C571.643 798.922 570.813 800.924 569.335 802.401C567.858 803.877 565.854 804.706 563.765 804.706H512.995C510.906 804.704 508.903 803.874 507.427 802.398C505.95 800.922 505.119 798.921 505.117 796.834Z" fill="#E6E6E6"/>
<path d="M488.179 724.973C485.782 723.983 483.632 722.48 481.879 720.57C480.127 718.66 478.815 716.39 478.035 713.918C477.256 711.447 477.029 708.835 477.369 706.266C477.709 703.697 478.609 701.234 480.005 699.05L418.258 643.001L396.597 559.275L435.04 556.079L446.792 621.78L505.672 694.197C509.188 696.783 511.632 700.569 512.541 704.836C513.451 709.103 512.762 713.555 510.606 717.349C508.449 721.142 504.976 724.014 500.842 725.419C496.709 726.824 492.203 726.665 488.179 724.973V724.973Z" fill="#FFB6B6"/>
<path d="M390.673 483.663C390.673 483.663 381.303 483.801 385.524 503.187C388.903 518.706 401.721 606.041 411.952 625.58C409.61 627.599 408.008 630.34 407.397 633.369C406.786 636.399 407.201 639.546 408.577 642.314L451.339 625.737C455.066 616.044 448.817 613.031 444.829 612.161L445.612 581.756L439.481 504.254L397.445 483.442L390.673 483.663Z" fill="#F2F2F2"/>
<path d="M464.494 347.5C464.494 352.278 463.608 356.579 462.196 359.666C460.764 362.799 458.888 364.5 456.994 364.5C455.1 364.5 453.224 362.799 451.792 359.666C450.38 356.579 449.494 352.278 449.494 347.5C449.494 342.722 450.38 338.421 451.792 335.334C453.224 332.201 455.1 330.5 456.994 330.5C458.888 330.5 460.764 332.201 462.196 335.334C463.608 338.421 464.494 342.722 464.494 347.5Z" stroke="#626474"/>
<path d="M480.494 347.5C480.494 351.175 479.831 354.477 478.78 356.843C478.254 358.026 477.641 358.953 476.985 359.577C476.332 360.199 475.66 360.5 474.994 360.5C474.328 360.5 473.656 360.199 473.003 359.577C472.347 358.953 471.734 358.026 471.208 356.843C470.157 354.477 469.494 351.175 469.494 347.5C469.494 343.825 470.157 340.523 471.208 338.157C471.734 336.974 472.347 336.047 473.003 335.423C473.656 334.801 474.328 334.5 474.994 334.5C475.66 334.5 476.332 334.801 476.985 335.423C477.641 336.047 478.254 336.974 478.78 338.157C479.831 340.523 480.494 343.825 480.494 347.5Z" stroke="#626474"/>
<path d="M449.494 347L417.494 348" stroke="#626474"/>
<path d="M1420.45 1125.05C1419.18 1122.91 1413.67 1125.2 1412.66 1123.26C1411.65 1121.32 1416.77 1118.36 1419.69 1111.61C1420.22 1110.39 1423.54 1102.71 1421.08 1100.34C1416.42 1095.85 1395.1 1114.38 1387.63 1108.32C1386 1106.99 1384.85 1104.33 1379.9 1100.02C1377.92 1098.3 1376.73 1097.53 1375.58 1097.82C1373.94 1098.23 1373.81 1100.42 1372.05 1104.73C1369.42 1111.19 1367.86 1110.8 1366.33 1115.95C1365.19 1119.78 1365.45 1122.01 1364.11 1122.44C1362.21 1123.05 1360.47 1118.99 1358.07 1119.36C1355.61 1119.73 1354.13 1124.46 1353.66 1127.99C1352.78 1134.64 1355.22 1139.02 1356.57 1143.63C1358.04 1148.63 1358.91 1156.25 1355.52 1167.03L1321.95 1261.64C1329.36 1242.23 1350.82 1189.01 1359.84 1169.23C1362.44 1163.53 1365.32 1157.73 1371.22 1155.45C1376.9 1153.25 1384.71 1154.56 1394.66 1152.17C1395.82 1151.89 1399.05 1151.06 1399.45 1149.17C1399.79 1147.6 1397.89 1146.72 1398.18 1145.26C1398.57 1143.29 1402.3 1143.26 1406.89 1140.99C1410.12 1139.39 1412.13 1137.48 1413.86 1135.84C1414.39 1135.35 1422.15 1127.91 1420.45 1125.05V1125.05Z" fill="#F2F2F2"/>
<path d="M1288.35 1174.86C1286.93 1174.86 1286.47 1178.23 1285.22 1178.16C1283.98 1178.1 1284 1174.74 1281.53 1171.35C1281.09 1170.74 1278.28 1166.9 1276.41 1167.42C1272.86 1168.41 1275.8 1184.23 1270.67 1186.14C1269.54 1186.56 1267.91 1186.35 1264.36 1187.54C1262.95 1188.02 1262.23 1188.38 1262.04 1189.03C1261.77 1189.95 1262.8 1190.65 1264.41 1192.75C1266.82 1195.91 1266.18 1196.56 1268.27 1198.8C1269.82 1200.46 1270.99 1200.98 1270.81 1201.76C1270.57 1202.87 1268.07 1202.55 1267.56 1203.84C1267.03 1205.15 1268.92 1207.24 1270.52 1208.49C1273.53 1210.84 1276.38 1210.91 1279.04 1211.57C1281.92 1212.3 1285.91 1214.07 1290.22 1218.84L1326.96 1262.62C1319.57 1253.38 1299.65 1227.49 1292.55 1217.36C1290.5 1214.43 1288.48 1211.35 1289.06 1207.79C1289.62 1204.37 1292.52 1200.92 1294.22 1195.34C1294.41 1194.69 1294.94 1192.87 1294.13 1192.13C1293.45 1191.51 1292.48 1192.19 1291.84 1191.62C1290.99 1190.86 1292.05 1189.02 1292.26 1186.12C1292.4 1184.07 1292.05 1182.53 1291.74 1181.21C1291.65 1180.81 1290.24 1174.85 1288.35 1174.86H1288.35Z" fill="#F2F2F2"/>
<path d="M1316.69 1181.22L1315.83 1173.58L1316.22 1173C1318.03 1170.32 1318.95 1167.71 1318.96 1165.23C1318.97 1164.83 1318.95 1164.44 1318.93 1164.03C1318.86 1162.44 1318.76 1160.46 1319.8 1158.15C1320.38 1156.86 1322 1153.88 1324.45 1154.25C1325.11 1154.34 1325.6 1154.65 1325.98 1155C1326.04 1154.91 1326.09 1154.82 1326.16 1154.73C1326.92 1153.57 1327.52 1153.07 1328.1 1152.59C1328.55 1152.22 1329.01 1151.84 1329.73 1150.94C1330.05 1150.54 1330.3 1150.2 1330.5 1149.91C1331.14 1149.02 1331.96 1147.97 1333.42 1147.99C1334.98 1148.07 1335.79 1149.35 1336.33 1150.21C1337.3 1151.72 1337.73 1152.82 1338.02 1153.55C1338.13 1153.81 1338.25 1154.11 1338.31 1154.2C1338.81 1154.94 1342.89 1154.25 1344.42 1154C1347.87 1153.43 1350.86 1152.93 1352.09 1155.1C1352.97 1156.66 1352.32 1158.72 1350.09 1161.39C1349.39 1162.22 1348.65 1162.85 1347.99 1163.34C1348.54 1163.67 1349.03 1164.16 1349.22 1164.95C1349.69 1166.8 1348.1 1168.65 1344.49 1170.47C1343.6 1170.92 1342.4 1171.53 1340.71 1171.82C1339.91 1171.95 1339.2 1171.99 1338.59 1172.01C1338.57 1172.36 1338.49 1172.74 1338.27 1173.14C1337.64 1174.3 1336.32 1174.85 1334.34 1174.72C1332.16 1174.61 1330.36 1174.19 1328.77 1173.82C1327.39 1173.51 1326.19 1173.24 1325.26 1173.3C1323.52 1173.44 1322.18 1174.83 1320.61 1176.64L1316.69 1181.22V1181.22Z" fill="#F2F2F2"/>
<path d="M1320.66 1135.73L1313.48 1138.5L1312.83 1138.27C1309.78 1137.2 1307.01 1136.97 1304.61 1137.59C1304.23 1137.69 1303.85 1137.8 1303.47 1137.92C1301.94 1138.4 1300.05 1138.99 1297.55 1138.58C1296.16 1138.34 1292.87 1137.53 1292.6 1135.07C1292.53 1134.41 1292.69 1133.85 1292.94 1133.39C1292.84 1133.36 1292.74 1133.33 1292.63 1133.3C1291.31 1132.85 1290.68 1132.4 1290.07 1131.96C1289.6 1131.62 1289.11 1131.27 1288.06 1130.8C1287.6 1130.59 1287.2 1130.44 1286.86 1130.31C1285.85 1129.92 1284.62 1129.39 1284.27 1127.98C1283.95 1126.45 1284.99 1125.34 1285.68 1124.6C1286.9 1123.28 1287.85 1122.58 1288.48 1122.11C1288.71 1121.95 1288.97 1121.75 1289.04 1121.67C1289.63 1121 1287.93 1117.23 1287.29 1115.81C1285.86 1112.61 1284.62 1109.85 1286.42 1108.11C1287.7 1106.86 1289.85 1106.97 1293 1108.46C1293.98 1108.92 1294.78 1109.47 1295.42 1109.98C1295.6 1109.37 1295.96 1108.78 1296.66 1108.39C1298.34 1107.47 1300.53 1108.54 1303.2 1111.56C1303.87 1112.31 1304.76 1113.32 1305.47 1114.88C1305.8 1115.62 1306.02 1116.3 1306.19 1116.89C1306.54 1116.81 1306.93 1116.79 1307.36 1116.9C1308.65 1117.22 1309.52 1118.35 1309.89 1120.31C1310.34 1122.45 1310.39 1124.29 1310.44 1125.92C1310.48 1127.34 1310.52 1128.56 1310.82 1129.45C1311.4 1131.1 1313.08 1132.04 1315.23 1133.1L1320.66 1135.73V1135.73Z" fill="#F2F2F2"/>
<path d="M1316.69 1113.23L1315.83 1105.59L1316.22 1105.01C1318.03 1102.33 1318.95 1099.72 1318.96 1097.23C1318.97 1096.84 1318.95 1096.44 1318.93 1096.04C1318.86 1094.45 1318.76 1092.47 1319.8 1090.16C1320.38 1088.87 1322 1085.89 1324.45 1086.26C1325.11 1086.35 1325.6 1086.65 1325.98 1087.01C1326.04 1086.92 1326.09 1086.83 1326.16 1086.74C1326.92 1085.57 1327.52 1085.08 1328.1 1084.6C1328.55 1084.23 1329.01 1083.85 1329.73 1082.95C1330.05 1082.55 1330.3 1082.21 1330.5 1081.91C1331.14 1081.03 1331.96 1079.98 1333.42 1080C1334.98 1080.07 1335.79 1081.36 1336.33 1082.21C1337.3 1083.73 1337.73 1084.83 1338.02 1085.56C1338.13 1085.82 1338.25 1086.12 1338.31 1086.21C1338.81 1086.95 1342.89 1086.26 1344.42 1086.01C1347.87 1085.43 1350.86 1084.94 1352.09 1087.11C1352.97 1088.67 1352.32 1090.73 1350.09 1093.39C1349.39 1094.22 1348.65 1094.85 1347.99 1095.35C1348.54 1095.67 1349.03 1096.17 1349.22 1096.95C1349.69 1098.81 1348.1 1100.66 1344.49 1102.48C1343.6 1102.93 1342.4 1103.53 1340.71 1103.83C1339.91 1103.96 1339.2 1104 1338.59 1104.01C1338.57 1104.37 1338.49 1104.75 1338.27 1105.15C1337.64 1106.31 1336.32 1106.86 1334.34 1106.73C1332.16 1106.61 1330.36 1106.2 1328.77 1105.83C1327.39 1105.52 1326.19 1105.25 1325.26 1105.31C1323.52 1105.45 1322.18 1106.84 1320.61 1108.64L1316.69 1113.23V1113.23Z" fill="#F2F2F2"/>
<path d="M1324.5 1261.52L1322.9 1260.51L1322.51 1258.67L1322.9 1260.51L1321.04 1260.73C1321.01 1260.56 1320.9 1260.16 1320.75 1259.53C1319.92 1256.12 1317.37 1245.72 1315.24 1229.35C1313.76 1217.92 1312.92 1206.18 1312.75 1194.43C1312.58 1182.66 1313.13 1173.75 1313.58 1166.59C1313.92 1161.19 1314.33 1156.05 1314.73 1151.04C1315.8 1137.66 1316.81 1125.01 1316.06 1111.02C1315.89 1107.89 1315.54 1101.39 1311.74 1094.47C1309.54 1090.46 1306.5 1086.89 1302.72 1083.88L1305.07 1080.93C1309.25 1084.25 1312.61 1088.2 1315.05 1092.66C1319.27 1100.33 1319.65 1107.42 1319.83 1110.82C1320.59 1125.06 1319.57 1137.83 1318.49 1151.34C1318.09 1156.33 1317.68 1161.45 1317.35 1166.83C1316.91 1173.92 1316.35 1182.75 1316.53 1194.37C1316.7 1205.98 1317.53 1217.58 1318.99 1228.86C1321.09 1245.03 1323.6 1255.27 1324.42 1258.63C1324.86 1260.43 1324.95 1260.81 1324.5 1261.52V1261.52Z" fill="#F2F2F2"/>
<path d="M1295.79 1089.89C1295.64 1089.89 1295.48 1089.88 1295.32 1089.87C1292.1 1089.7 1289.13 1087.77 1286.47 1084.15C1285.22 1082.45 1284.58 1080.5 1283.31 1076.62C1283.11 1076.03 1282.15 1073 1281.57 1068.82C1281.19 1066.1 1281.24 1064.96 1281.78 1063.95C1282.38 1062.83 1283.35 1062.05 1284.44 1061.52C1284.39 1061.16 1284.43 1060.79 1284.59 1060.41C1285.23 1058.83 1286.94 1059.04 1287.87 1059.14C1288.34 1059.2 1288.92 1059.27 1289.55 1059.24C1290.54 1059.19 1291.08 1058.9 1291.88 1058.45C1292.66 1058.03 1293.62 1057.5 1295.04 1057.21C1297.85 1056.62 1300.21 1057.42 1300.98 1057.68C1305.07 1059.04 1307.08 1062.22 1309.41 1065.9C1309.88 1066.64 1311.47 1069.32 1312.53 1073C1313.29 1075.66 1313.18 1076.84 1312.95 1077.72C1312.49 1079.52 1311.39 1080.55 1308.6 1082.83C1305.69 1085.22 1304.23 1086.41 1302.98 1087.14C1300.06 1088.83 1298.23 1089.89 1295.79 1089.89V1089.89Z" fill="#F2F2F2"/>
</svg>
