<svg width="1500" height="1500" viewBox="0 0 1500 1500" fill="none" xmlns="http://www.w3.org/2000/svg">
<path d="M782.341 390.911H461.52V742.609H782.341V390.911Z" fill="#F2F2F2"/>
<path d="M814.682 357.293H493.86V708.991H814.682V357.293Z" stroke="#3F3D56" stroke-width="2" stroke-miterlimit="10"/>
<path d="M527.975 669.314H510.678V686.603H527.975V669.314Z" fill="#4FD1C5"/>
<path d="M552.961 669.314H535.663V686.603H552.961V669.314Z" fill="#3F3D56"/>
<path d="M577.947 669.314H560.649V686.603H577.947V669.314Z" fill="#575A89"/>
<path d="M771.992 676.823H704.723V679.549H771.992V676.823Z" fill="#3F3D56"/>
<path d="M771.992 685H704.723V687.726H771.992V685Z" fill="#3F3D56"/>
<path d="M771.992 693.178H704.723V695.903H771.992V693.178Z" fill="#3F3D56"/>
<path d="M654.271 419.357V447.803C671.158 447.803 687.665 452.808 701.706 462.186C715.746 471.563 726.69 484.891 733.152 500.484C739.614 516.078 741.305 533.237 738.01 549.791C734.716 566.345 726.584 581.55 714.644 593.485L734.768 613.6C750.689 597.687 761.531 577.412 765.923 555.34C770.316 533.268 768.062 510.39 759.445 489.598C750.829 468.807 736.238 451.036 717.517 438.533C698.796 426.031 676.786 419.357 654.271 419.357V419.357Z" fill="#3F3D56"/>
<path d="M734.768 613.6L714.644 593.485C700.046 608.078 680.652 616.889 660.054 618.285C639.456 619.681 619.049 613.567 602.615 601.077L585.389 623.732C607.305 640.381 634.515 648.528 661.98 646.665C689.444 644.802 715.303 633.055 734.768 613.6V613.6Z" fill="#575A89"/>
<path d="M568.891 533.142C568.891 510.509 577.887 488.803 593.898 472.798C609.91 456.794 631.627 447.803 654.271 447.803V419.357C630.44 419.357 607.21 426.832 587.855 440.729C568.5 454.625 553.996 474.243 546.388 496.816C538.78 519.389 538.452 543.779 545.449 566.549C552.446 589.319 566.416 609.319 585.389 623.732L602.615 601.077C592.127 593.126 583.624 582.854 577.773 571.067C571.922 559.281 568.882 546.3 568.891 533.142V533.142Z" fill="#4FD1C5"/>
<path d="M867.879 1101.94C859.364 1101.94 850.932 1100.26 843.066 1097C835.199 1093.75 828.051 1088.97 822.03 1082.95C816.009 1076.94 811.233 1069.79 807.975 1061.93C804.716 1054.07 803.039 1045.64 803.039 1037.13V961.644C803.039 810.611 925.536 688.174 1076.64 688.174H1076.64C1227.75 688.174 1350.25 810.611 1350.25 961.644V1020.99C1350.25 1031.62 1348.15 1042.14 1344.08 1051.96C1340.01 1061.79 1334.05 1070.71 1326.53 1078.23C1319 1085.74 1310.08 1091.71 1300.25 1095.77C1290.42 1099.84 1279.89 1101.94 1269.26 1101.94" fill="#F2F2F2"/>
<path d="M1296.42 1183.4V1180.81C1317.55 1180.79 1337.81 1172.38 1352.75 1157.45C1367.69 1142.52 1376.1 1122.27 1376.12 1101.15V946.128C1376.12 796.049 1253.96 673.951 1103.81 673.951C953.656 673.951 831.499 796.049 831.499 946.128V1117.29C831.518 1134.13 838.219 1150.28 850.132 1162.18C862.045 1174.09 878.197 1180.79 895.045 1180.81V1183.4C877.511 1183.38 860.702 1176.4 848.304 1164.01C835.905 1151.62 828.931 1134.82 828.912 1117.29V946.128C828.912 794.623 952.23 671.365 1103.81 671.365C1255.39 671.365 1378.71 794.623 1378.71 946.128V1101.15C1378.68 1122.96 1370 1143.86 1354.58 1159.28C1339.15 1174.7 1318.24 1183.37 1296.42 1183.4V1183.4Z" fill="#3F3D56"/>
<path d="M1380 1083.83H827.618V1311.4H1380V1083.83Z" fill="#3F3D56"/>
<path d="M1188.22 849.921L1135.5 887.381L1172.98 940.073L1225.7 902.613L1188.22 849.921Z" fill="#4FD1C5"/>
<path d="M1192.46 835.802L1139.74 873.262L1177.22 925.953L1229.94 888.494L1192.46 835.802Z" stroke="#3F3D56" stroke-width="2" stroke-miterlimit="10"/>
<path d="M1090.23 825.232C1105.23 825.232 1117.39 813.075 1117.39 798.079C1117.39 783.083 1105.23 770.926 1090.23 770.926C1075.22 770.926 1063.06 783.083 1063.06 798.079C1063.06 813.075 1075.22 825.232 1090.23 825.232Z" fill="#4FD1C5"/>
<path d="M1082.46 821.353C1097.47 821.353 1109.63 809.196 1109.63 794.2C1109.63 779.204 1097.47 767.047 1082.46 767.047C1067.46 767.047 1055.3 779.204 1055.3 794.2C1055.3 809.196 1067.46 821.353 1082.46 821.353Z" stroke="#3F3D56" stroke-width="2" stroke-miterlimit="10"/>
<path d="M1009.94 906.588L1042.45 925.294L1074.96 944L1042.5 962.791L1010.03 981.582L1009.98 944.085L1009.94 906.588Z" fill="#4FD1C5"/>
<path d="M1004.71 920.789L1037.22 939.496L1069.74 958.202L1037.27 976.993L1004.81 995.783L1004.76 958.286L1004.71 920.789Z" stroke="#3F3D56" stroke-width="2" stroke-miterlimit="10"/>
<path d="M877.339 845.692C882.269 828.089 891.377 811.934 903.889 798.602C916.402 785.27 931.949 775.153 949.21 769.111C953.906 767.498 951.889 760.001 947.147 761.631C928.603 768.057 911.89 778.87 898.431 793.148C884.973 807.426 875.168 824.746 869.854 843.63C868.523 848.449 876.009 850.506 877.339 845.692V845.692Z" fill="white"/>
<path d="M862.618 888.06C867.612 888.06 867.62 880.302 862.618 880.302C857.623 880.302 857.615 888.06 862.618 888.06Z" fill="white"/>
<path d="M540.24 807.945L419.401 769.62L372.45 917.514L493.289 955.839L540.24 807.945Z" fill="#F2F2F2"/>
<path d="M484.567 818.632L437.12 803.584L436.287 806.208L483.734 821.256L484.567 818.632Z" fill="#3F3D56"/>
<path d="M504.633 830.328L435.582 808.428L434.749 811.051L503.8 832.951L504.633 830.328Z" fill="#3F3D56"/>
<path d="M479.314 835.18L431.867 820.132L431.034 822.756L478.481 837.804L479.314 835.18Z" fill="#3F3D56"/>
<path d="M473.163 854.554L425.716 839.506L424.883 842.129L472.331 857.177L473.163 854.554Z" fill="#3F3D56"/>
<path d="M499.38 846.875L430.329 824.976L429.496 827.599L498.547 849.499L499.38 846.875Z" fill="#3F3D56"/>
<path d="M497.842 851.719L428.792 829.819L427.959 832.442L497.009 854.342L497.842 851.719Z" fill="#3F3D56"/>
<path d="M496.305 856.562L427.254 834.662L426.421 837.286L495.472 859.186L496.305 856.562Z" fill="#3F3D56"/>
<path d="M446.835 859.086L422 851.21L419.822 858.072L444.656 865.948L446.835 859.086Z" fill="#4FD1C5"/>
<path d="M289.466 1335C383.06 1335 458.932 1325.16 458.932 1313.02C458.932 1300.88 383.06 1291.04 289.466 1291.04C195.873 1291.04 120 1300.88 120 1313.02C120 1325.16 195.873 1335 289.466 1335Z" fill="#3F3D56"/>
<path d="M209.42 704.499L203.791 717.862L210.124 804.37C210.124 804.37 206.606 809.293 210.124 812.81C213.642 816.327 212.939 817.733 212.939 817.733C212.939 817.733 207.309 817.733 210.124 821.953C212.939 826.173 212.939 828.283 212.939 828.283L211.531 832.503C211.531 832.503 214.346 836.019 214.346 838.833C214.346 841.646 232.641 928.154 232.641 928.154L250.233 893.692L240.381 756.545L209.42 704.499Z" fill="#4FD1C5"/>
<path d="M390.057 924.486C390.057 924.486 428.476 922.935 440.726 936.481C452.975 950.027 392.6 940.227 389.185 936.411C385.771 932.594 390.057 924.486 390.057 924.486Z" fill="#FFB9B9"/>
<path d="M200.272 1265.75L192.532 1291.07C192.532 1291.07 181.274 1315.68 196.754 1319.2C212.235 1322.72 227.012 1309.35 227.012 1309.35V1292.47L232.641 1265.75H200.272Z" fill="#2F2E41"/>
<path d="M326.931 1265.75C326.931 1265.75 323.413 1313.57 331.153 1316.39C338.893 1319.2 366.336 1319.9 367.04 1316.39C367.744 1312.87 376.187 1309.35 369.854 1304.43C363.521 1299.51 359.3 1270.67 359.3 1270.67L326.931 1265.75Z" fill="#2F2E41"/>
<path d="M255.861 812.81V833.91C255.861 833.91 232.641 882.438 224.197 959.1C215.753 1035.76 186.903 1269.26 193.939 1273.48C200.976 1277.7 276.971 1280.52 279.082 1274.89C281.193 1269.26 283.304 1104.69 283.304 1104.69L309.34 988.64C309.34 988.64 314.265 1030.14 318.487 1037.17C322.709 1044.2 311.451 1272.78 318.487 1276.3C325.524 1279.81 420.518 1286.14 419.111 1274.89C417.703 1263.64 386.039 958.397 386.039 958.397C386.039 958.397 369.854 814.217 364.929 812.81C360.003 811.403 314.969 809.997 307.932 811.403C300.896 812.81 255.861 812.81 255.861 812.81Z" fill="#8F98EE"/>
<path d="M309.34 638.387C331.491 638.387 349.448 620.439 349.448 598.298C349.448 576.157 331.491 558.209 309.34 558.209C287.188 558.209 269.231 576.157 269.231 598.298C269.231 620.439 287.188 638.387 309.34 638.387Z" fill="#FFB9B9"/>
<path d="M317.784 632.057C317.784 632.057 297.378 663.707 302.303 672.146C307.229 680.586 250.232 663.707 250.232 663.707C250.232 663.707 284.712 621.507 284.008 616.584C283.304 611.661 317.784 632.057 317.784 632.057Z" fill="#FFB9B9"/>
<path d="M360.003 679.18C360.003 679.18 322.709 667.223 317.784 662.3C314.624 659.074 311.795 655.54 309.34 651.75C309.34 651.75 264.306 645.42 262.898 645.42C261.491 645.42 250.936 658.08 248.122 660.893C245.307 663.707 209.42 682.696 209.42 687.619C209.42 692.543 203.791 717.862 203.791 717.862C203.791 717.862 216.457 743.885 224.197 749.511C231.937 755.138 234.048 753.731 234.752 762.874C235.456 772.018 245.307 786.787 245.307 786.787C245.307 786.787 251.64 802.964 250.233 807.887C248.825 812.81 242.492 817.03 257.269 815.623C272.046 814.217 345.227 818.437 345.227 810.7C345.227 802.964 331.153 729.115 331.153 729.115L360.003 679.18Z" fill="#4FD1C5"/>
<path d="M346.634 680.586L360.003 679.179C360.003 679.179 364.929 681.993 365.632 709.422C366.336 736.852 366.336 802.963 371.262 808.59C376.187 814.217 396.593 901.428 396.593 901.428C396.593 901.428 402.223 902.835 402.223 907.758C402.223 912.681 408.556 916.901 405.741 922.528C402.926 928.154 408.556 926.747 405.037 930.264C401.519 933.781 384.631 940.814 383.928 936.594C383.224 932.374 386.039 931.671 383.224 930.264C380.409 928.857 380.409 928.154 379.706 923.231C379.002 918.308 372.669 913.384 373.373 911.274C374.076 909.164 342.412 847.976 342.412 845.866C342.412 843.756 340.301 836.019 337.486 834.613C334.671 833.206 330.449 831.799 332.56 828.283C334.671 824.766 326.931 719.269 326.931 719.269L346.634 680.586Z" fill="#4FD1C5"/>
<path d="M343.257 572.874C330.958 559.53 311.643 552.447 293.93 556.416C276.217 560.385 261.301 576.104 259.916 594.195C259.633 597.895 259.869 601.675 258.911 605.261C257.3 611.292 252.505 616.072 250.815 622.082C249.682 626.107 250.018 630.441 248.818 634.446C246.601 641.847 239.738 646.672 234.508 652.361C232.389 654.445 230.816 657.018 229.927 659.853C229.467 662.367 229.35 664.932 229.58 667.478C229.801 681.198 224.697 694.471 215.34 704.512C220.842 700.427 226.786 696.973 233.06 694.215C229.95 704.114 232.794 715.826 240.619 722.643C248.443 729.46 260.976 730.519 269.437 724.508C274.463 720.937 277.728 715.457 280.846 710.139L292.651 690.006C294.787 686.364 297.016 682.617 300.428 680.129C303.139 678.152 306.434 677.101 309.163 675.149C316.048 670.225 317.897 660.588 316.615 652.224C315.333 643.86 311.57 636.094 309.411 627.911C307.704 621.44 307.169 614.024 311.009 608.541C316.106 601.264 326.583 600.335 333.51 594.769C336.117 592.673 337.282 590.123 339.15 587.499C340.875 585.078 341.314 585.946 343.986 585.835C351.322 585.531 345.976 575.824 343.257 572.874Z" fill="#626474"/>
<path d="M308.224 619.968C310.01 619.968 311.458 616.494 311.458 612.21C311.458 607.925 310.01 604.452 308.224 604.452C306.438 604.452 304.99 607.925 304.99 612.21C304.99 616.494 306.438 619.968 308.224 619.968Z" fill="#FFB9B9"/>
<path d="M664.62 1171.76C687.482 1171.76 706.016 1153.23 706.016 1130.38C706.016 1107.53 687.482 1089.01 664.62 1089.01C641.757 1089.01 623.224 1107.53 623.224 1130.38C623.224 1153.23 641.757 1171.76 664.62 1171.76Z" fill="#F2F2F2"/>
<path d="M250.657 460.605C273.52 460.605 292.053 442.08 292.053 419.228C292.053 396.377 273.52 377.852 250.657 377.852C227.794 377.852 209.261 396.377 209.261 419.228C209.261 442.08 227.794 460.605 250.657 460.605Z" fill="#F2F2F2"/>
<path d="M1117.39 557.58C1140.25 557.58 1158.79 539.055 1158.79 516.204C1158.79 493.352 1140.25 474.828 1117.39 474.828C1094.53 474.828 1076 493.352 1076 516.204C1076 539.055 1094.53 557.58 1117.39 557.58Z" fill="#F2F2F2"/>
<ellipse cx="344.315" cy="610.298" rx="2" ry="6" transform="rotate(13.1792 344.315 610.298)" fill="#626474"/>
<path d="M683.859 1206.6C682.645 1206.15 681.456 1205.63 680.296 1205.05C680.238 1205.14 680.181 1205.23 680.122 1205.32L683.859 1206.6Z" fill="#E6E6E6"/>
<path d="M721.414 1127.96L736.216 1116.25C734.888 1106.42 731.182 1097.07 725.42 1089C724.36 1106.59 705.925 1117.8 699.174 1134.08C697.108 1139.17 696.214 1144.67 696.56 1150.15C696.905 1155.64 698.481 1160.98 701.17 1165.77L702.184 1179.12C710.184 1175.28 717.256 1169.75 722.912 1162.91C728.569 1156.08 732.676 1148.09 734.95 1139.51C736.178 1134.69 736.794 1129.73 736.783 1124.75C729.335 1126.75 721.414 1127.96 721.414 1127.96Z" fill="#4FD1C5"/>
<path d="M686.474 1245.82C680.571 1247.18 675.415 1247.96 675.415 1247.96L684.548 1240.73C682.481 1234.68 681.357 1228.59 682.699 1222.29C675.764 1227.85 670.139 1234.86 666.221 1242.83C662.304 1250.81 660.191 1259.55 660.032 1268.43C659.874 1277.31 661.674 1286.12 665.304 1294.23C668.935 1302.34 674.307 1309.55 681.039 1315.35L685.579 1302.75C689.45 1298.85 692.393 1294.13 694.191 1288.93C695.988 1283.73 696.593 1278.2 695.961 1272.74C694.811 1263.43 690.088 1254.62 686.474 1245.82Z" fill="#4FD1C5"/>
<path d="M680.224 1099.22C677.113 1101.95 674.171 1104.87 671.414 1107.96L676.13 1097.08C674.36 1096.4 672.463 1096.11 670.57 1096.23C668.677 1096.36 666.835 1096.9 665.17 1097.8C661.281 1100.08 658.953 1104.52 658.512 1109C658.225 1113.53 659.198 1118.05 661.324 1122.05C664.989 1129.41 670.946 1135.37 678.296 1139.05C681.897 1133.49 685.275 1127.65 686.712 1121.2C688.173 1114.63 687.375 1107.27 683.181 1102.02C682.326 1100.95 681.331 1100.02 680.224 1099.22V1099.22Z" fill="#4FD1C5"/>
<path d="M753.415 1218.96L767.136 1208.1C768.269 1201.94 768.427 1195.65 767.606 1189.44C758.386 1204.46 736.847 1205.66 723.225 1216.85C719.004 1220.37 715.628 1224.8 713.349 1229.8C711.071 1234.8 709.947 1240.25 710.061 1245.75L704.669 1258C713.535 1258.38 722.378 1256.83 730.588 1253.46C738.799 1250.1 746.181 1244.99 752.227 1238.49C757.944 1232.2 762.274 1224.78 764.934 1216.71C758.842 1218.13 753.415 1218.96 753.415 1218.96Z" fill="#4FD1C5"/>
<path d="M678.354 1312.87C675.734 1316.25 672.958 1319.51 670.024 1322.63C671.114 1322.96 672.174 1323.28 673.214 1323.6C675.784 1320.81 678.234 1317.92 680.564 1314.93C680.954 1314.43 681.344 1313.92 681.734 1313.4C685.983 1307.81 689.813 1301.92 693.194 1295.76C699.722 1283.93 704.568 1271.25 707.594 1258.07C707.654 1257.84 707.704 1257.62 707.754 1257.39C708.564 1253.77 709.234 1250.11 709.754 1246.44C709.864 1245.7 709.964 1244.95 710.064 1244.21C710.314 1242.18 710.524 1240.15 710.694 1238.12C711.309 1230.72 711.329 1223.29 710.754 1215.88C709.77 1203.22 707.127 1190.75 702.894 1178.77C702.594 1177.92 702.294 1177.07 701.964 1176.23C701.784 1175.73 701.594 1175.23 701.404 1174.73C696.31 1161.56 689.319 1149.21 680.654 1138.05C680.334 1137.64 680.014 1137.24 679.694 1136.84C678.935 1135.89 678.165 1134.95 677.384 1134.02C677.257 1133.86 677.092 1133.73 676.904 1133.65C676.716 1133.56 676.51 1133.52 676.304 1133.53C676.097 1133.54 675.896 1133.6 675.717 1133.7C675.538 1133.81 675.386 1133.95 675.274 1134.12C675.027 1134.4 674.888 1134.76 674.885 1135.13C674.881 1135.5 675.012 1135.86 675.254 1136.14C675.884 1136.89 676.514 1137.65 677.115 1138.42C677.865 1139.33 678.584 1140.26 679.284 1141.2C694.733 1161.58 704.411 1185.73 707.305 1211.13C709.038 1226.79 708.095 1242.63 704.514 1257.96H704.505C702.366 1267.21 699.301 1276.21 695.355 1284.83C694.565 1286.55 693.741 1288.26 692.885 1289.94C690.665 1294.33 688.215 1298.6 685.545 1302.73C683.304 1306.22 680.908 1309.6 678.354 1312.87Z" fill="#3F3D56"/>
<path d="M651.881 1327.3C664.948 1325.02 678.365 1325.79 691.084 1329.56C692.939 1330.11 693.731 1327.21 691.881 1326.67C678.639 1322.77 664.675 1322 651.084 1324.4C649.186 1324.74 649.99 1327.63 651.881 1327.3V1327.3Z" fill="#CCCCCC"/>
<path d="M1059.5 364C1101.2 364 1135 330.197 1135 288.5C1135 246.802 1101.2 213 1059.5 213C1017.8 213 984 246.802 984 288.5C984 330.197 1017.8 364 1059.5 364Z" fill="#FF6584"/>
<path d="M1195.67 230.753C1159.08 225.796 1117.31 245.618 1107.83 281.384C1105.44 275.025 1101.09 269.592 1095.42 265.87C1089.75 262.148 1083.04 260.33 1076.27 260.678C1069.5 261.026 1063.02 263.523 1057.76 267.808C1052.49 272.092 1048.73 277.942 1047 284.513L1051.19 287.52C1129.59 304.516 1210.75 304.148 1289 286.443C1263.55 259.632 1232.25 235.71 1195.67 230.753Z" fill="#F0F0F0"/>
<path d="M1038.67 331.753C1002.08 326.796 960.31 346.618 950.828 382.384C948.438 376.025 944.093 370.592 938.421 366.87C932.749 363.148 926.044 361.33 919.274 361.678C912.503 362.026 906.019 364.523 900.757 368.807C895.495 373.092 891.728 378.942 890 385.513L894.189 388.52C972.592 405.516 1053.75 405.148 1132 387.443C1106.55 360.632 1075.25 336.71 1038.67 331.753Z" fill="#F0F0F0"/>
</svg>
