<svg width="1500" height="1500" viewBox="0 0 1500 1500" fill="none" xmlns="http://www.w3.org/2000/svg">
<path d="M707.509 1007.26H226.936V405.287C226.936 343.84 250.116 285.369 292.207 240.643C338.112 191.864 400.267 165 467.223 165C599.717 165 707.509 272.793 707.509 405.287V1007.26ZM230.285 1003.91H704.161V405.287C704.161 274.639 597.871 168.349 467.223 168.349C401.2 168.349 339.911 194.839 294.645 242.939C253.142 287.04 230.285 344.697 230.285 405.287V1003.91Z" fill="#3F3D56"/>
<path d="M467.223 417.262C466.787 417.262 466.359 417.092 466.039 416.772L292.242 242.975C291.588 242.321 291.588 241.261 292.242 240.607C292.896 239.953 293.956 239.953 294.61 240.607L465.548 411.546V166.674C465.548 165.75 466.298 165 467.223 165C468.147 165 468.897 165.75 468.897 166.674V415.588C468.897 416.265 468.489 416.876 467.864 417.135C467.656 417.221 467.438 417.262 467.223 417.262V417.262Z" fill="#3F3D56"/>
<path d="M641.482 242.356L466.068 414.41L468.413 416.801L643.827 244.747L641.482 242.356Z" fill="#3F3D56"/>
<path d="M705.835 414.496H228.61V417.845H705.835V414.496Z" fill="#3F3D56"/>
<path d="M816.53 1092.87C812.581 1092.87 808.684 1091.52 805.465 1088.9L704.778 1006.88L706.892 1004.29L807.579 1086.3C811.866 1089.79 817.636 1090.5 822.633 1088.14C827.632 1085.78 830.76 1080.89 830.795 1075.36L835.422 348.927C835.455 343.64 832.717 338.954 828.096 336.389C823.481 333.827 818.061 333.982 813.597 336.805C749.268 377.483 709.513 403.406 707.252 406.148C707.258 406.141 707.388 405.982 707.46 405.693L704.21 404.881C704.508 403.69 705.062 401.474 811.807 333.975C817.322 330.488 824.018 330.297 829.721 333.461C835.429 336.629 838.813 342.418 838.771 348.948L834.144 1075.38C834.101 1082.21 830.237 1088.26 824.06 1091.17C821.64 1092.31 819.075 1092.87 816.53 1092.87V1092.87Z" fill="#3F3D56"/>
<path d="M706.323 852.449L705.347 855.655L833.143 894.571L834.119 891.366L706.323 852.449Z" fill="#3F3D56"/>
<path d="M705.923 705.856L705.748 709.202L833.544 715.9L833.719 712.554L705.923 705.856Z" fill="#3F3D56"/>
<path d="M835.557 525.87L705.432 558.14L706.238 561.39L836.363 529.121L835.557 525.87Z" fill="#3F3D56"/>
<path d="M116.241 1092.87C113.697 1092.87 111.131 1092.31 108.711 1091.17C102.535 1088.26 98.6706 1082.21 98.6273 1075.38L94.0004 348.948C93.9587 342.418 97.342 336.629 103.051 333.461C108.753 330.295 115.45 330.489 120.964 333.975C227.709 401.474 228.263 403.69 228.561 404.88L225.312 405.693C225.384 405.982 225.514 406.141 225.519 406.148C223.258 403.406 183.503 377.483 119.174 336.805C114.711 333.984 109.292 333.828 104.675 336.389C100.054 338.954 97.3158 343.64 97.3493 348.927L101.976 1075.36C102.011 1080.89 105.139 1085.79 110.138 1088.14C115.14 1090.5 120.907 1089.79 125.192 1086.3L225.879 1004.29L227.993 1006.88L127.307 1088.9C124.088 1091.52 120.19 1092.87 116.241 1092.87V1092.87Z" fill="#3F3D56"/>
<path d="M226.447 852.445L98.6531 891.37L99.6293 894.575L227.423 855.65L226.447 852.445Z" fill="#3F3D56"/>
<path d="M226.849 705.864L99.052 712.547L99.227 715.893L227.024 709.209L226.849 705.864Z" fill="#3F3D56"/>
<path d="M97.2149 525.869L96.4087 529.119L226.533 561.392L227.339 558.141L97.2149 525.869Z" fill="#3F3D56"/>
<path d="M123.118 769.485C133.291 769.485 141.538 761.238 141.538 751.065C141.538 740.893 133.291 732.646 123.118 732.646C112.946 732.646 104.699 740.893 104.699 751.065C104.699 761.238 112.946 769.485 123.118 769.485Z" fill="#3F3D56"/>
<path d="M467.223 417.262C467.039 417.262 466.854 417.232 466.678 417.171L239.787 339.054C238.913 338.753 238.447 337.8 238.749 336.925C239.05 336.051 240 335.586 240.877 335.888L467.208 413.812L694.083 331.329C694.955 331.015 695.914 331.462 696.229 332.33C696.545 333.199 696.097 334.16 695.228 334.477L467.795 417.162C467.611 417.229 467.417 417.262 467.223 417.262L467.223 417.262Z" fill="#3F3D56"/>
<path d="M502.08 816.608H337.187V1000.93H502.08V816.608Z" fill="#CCCCCC"/>
<path d="M253.242 1278.16H169.297L160.303 1206.23H262.236L253.242 1278.16Z" fill="#E6E6E6"/>
<path d="M421.807 1226.06L418.975 1264.77C418.846 1266.52 419.094 1268.28 419.702 1269.93C420.31 1271.58 421.263 1273.08 422.498 1274.33C423.733 1275.58 425.222 1276.55 426.863 1277.18C428.505 1277.81 430.261 1278.08 432.016 1277.97L451.908 1276.77C452.829 1276.71 453.728 1276.45 454.538 1276.01C455.349 1275.57 456.052 1274.95 456.598 1274.21C457.144 1273.47 457.519 1272.61 457.697 1271.7C457.875 1270.8 457.851 1269.86 457.627 1268.97L446.585 1224.82L421.807 1226.06Z" fill="#E6E6E6"/>
<path d="M588.192 1248.95C611.603 1254.42 628.327 1262.21 639.313 1272.74C643.226 1276.46 648.345 1278.65 653.739 1278.92C660.63 1279.28 666.264 1278.51 670.498 1276.62H670.498C671.583 1276.14 672.52 1275.38 673.212 1274.42C673.903 1273.46 674.325 1272.33 674.433 1271.15C674.561 1269.95 674.366 1268.74 673.869 1267.64C673.371 1266.54 672.588 1265.6 671.602 1264.9L616.079 1225.41L592.494 1234.84L586.993 1240.34C586.397 1240.94 585.948 1241.66 585.68 1242.46C585.412 1243.26 585.334 1244.11 585.45 1244.94C585.566 1245.78 585.874 1246.57 586.35 1247.27C586.826 1247.96 587.457 1248.54 588.192 1248.95H588.192Z" fill="#E6E6E6"/>
<path d="M516.146 616.845L357.439 615.376C357.838 592.267 363.217 569.575 374.973 549.27C382.694 535.933 382.527 521.42 380.666 509.192C377.795 490.323 384.472 471.016 399.31 459.004C410.649 449.809 424.96 445.075 439.548 445.695L442.629 445.824C452.667 446.241 462.44 449.172 471.049 454.349C479.659 459.525 486.83 466.781 491.903 475.449C497.06 484.704 499.139 495.357 497.841 505.871C496.835 515.763 499.242 525.756 504.872 535.844C514.586 557.997 516.689 586.343 516.146 616.845Z" fill="#626474"/>
<path d="M622.328 1227.47L591.18 1235.59L439.504 905.263L448.984 1227.47H417.836C384.552 1075.88 324.461 900.93 351.477 845.695L512.634 836.218L622.328 1227.47Z" fill="#8F98EE"/>
<path d="M438.15 561.394C461.336 561.394 480.132 542.604 480.132 519.426C480.132 496.247 461.336 477.457 438.15 477.457C414.964 477.457 396.168 496.247 396.168 519.426C396.168 542.604 414.964 561.394 438.15 561.394Z" fill="#FFB9B9"/>
<path d="M474.714 596.593L405.647 592.532C412.416 577.001 415.12 562.046 412.419 547.856H463.88C463.764 558.751 469.187 577.598 474.714 596.593Z" fill="#FFB9B9"/>
<path d="M518.051 848.402L366.375 859.234L381.948 590.501L408.357 583.055L438.15 589.824L467.943 574.931L486.902 581.702L518.051 848.402Z" fill="#4FD1C5"/>
<path d="M392.105 1042L288.505 1018.31C319.31 916.184 374.809 682.558 356.895 599.301L411.065 574.932L392.105 1042Z" fill="#E6E6E6"/>
<path d="M341.997 746.867L302.724 722.498L336.217 624.435C339.953 614.316 347.108 605.82 356.446 600.415L367.728 593.885L360.957 692.714L341.997 746.867Z" fill="#E6E6E6"/>
<path d="M608.109 1019.66C575.41 1038.57 493.675 1049.11 457.786 1035.91C455.146 943.637 449.966 682.643 466.589 572.224L526.176 596.593L520.759 669.699C492.272 732.237 574.993 950.058 608.109 1019.66Z" fill="#E6E6E6"/>
<path d="M603.369 734.683L566.803 722.498L518.051 666.991L526.177 596.593L607.431 710.314L603.369 734.683Z" fill="#E6E6E6"/>
<path d="M488.775 787.377C489.373 790.002 490.988 792.282 493.266 793.718C495.544 795.154 498.298 795.629 500.925 795.038L531.964 788.011L527.478 768.206L496.438 775.231C493.811 775.826 491.528 777.44 490.091 779.718C488.654 781.996 488.18 784.751 488.775 787.377V787.377Z" fill="#FFB9B9"/>
<path d="M474.714 508.595C451.396 499.01 428.366 498.316 405.648 507.241L396.168 473.396H482.84L474.714 508.595Z" fill="#626474"/>
<path d="M516.697 764.466L534.302 796.958C563.914 788.701 589.577 762.673 614.203 731.975L607.432 710.314L565.45 721.144L516.697 764.466Z" fill="#E6E6E6"/>
<path d="M503.831 697.452H498.414C498.414 620.861 482.639 567.486 467.266 567.486L465.912 562.071C479.698 562.071 488.488 584.285 493.433 602.921C500.139 628.186 503.831 661.757 503.831 697.452Z" fill="#3F3D56"/>
<path d="M379.24 678.499H373.823C373.823 608.354 389.707 564.778 413.096 564.778L411.742 570.194C395.563 570.194 379.24 603.683 379.24 678.499Z" fill="#3F3D56"/>
<path d="M501.123 712.344C508.602 712.344 514.665 706.283 514.665 698.806C514.665 691.329 508.602 685.268 501.123 685.268C493.643 685.268 487.58 691.329 487.58 698.806C487.58 706.283 493.643 712.344 501.123 712.344Z" fill="#3F3D56"/>
<path d="M357.572 710.99H352.155C352.155 691.582 363.09 675.791 376.531 675.791V681.207C366.077 681.207 357.572 694.568 357.572 710.99Z" fill="#3F3D56"/>
<path d="M400.908 710.99H395.491C395.491 694.567 386.986 681.207 376.531 681.207V675.791C389.973 675.791 400.908 691.582 400.908 710.99Z" fill="#3F3D56"/>
<path d="M398.199 717.759C401.191 717.759 403.616 715.335 403.616 712.344C403.616 709.353 401.191 706.929 398.199 706.929C395.208 706.929 392.782 709.353 392.782 712.344C392.782 715.335 395.208 717.759 398.199 717.759Z" fill="#3F3D56"/>
<path d="M354.863 717.759C357.855 717.759 360.28 715.335 360.28 712.344C360.28 709.353 357.855 706.929 354.863 706.929C351.871 706.929 349.446 709.353 349.446 712.344C349.446 715.335 351.871 717.759 354.863 717.759Z" fill="#3F3D56"/>
<path d="M287.15 662.548L320.948 668.581L398.199 778.388L357.159 768.734L287.15 662.548Z" fill="#4FD1C5"/>
<path d="M281.155 661.203C280.64 661.211 280.137 661.357 279.698 661.626C279.258 661.895 278.899 662.277 278.658 662.732C278.417 663.187 278.303 663.698 278.327 664.213C278.352 664.727 278.514 665.225 278.797 665.656L351.007 775.18C351.41 775.793 352.032 776.227 352.746 776.395L386.343 784.297C386.909 784.43 387.503 784.388 388.045 784.176C388.587 783.965 389.052 783.593 389.378 783.111C389.704 782.629 389.875 782.06 389.87 781.478C389.865 780.896 389.682 780.33 389.348 779.854L310.066 667.161C309.851 666.854 309.577 666.593 309.261 666.391C308.945 666.19 308.592 666.053 308.223 665.988L281.697 661.252C281.518 661.22 281.337 661.204 281.155 661.203V661.203Z" fill="#3F3D56"/>
<path d="M326.2 739.512L328.207 759.721L359.876 756.578C362.557 756.312 365.022 754.992 366.729 752.909C368.437 750.827 369.246 748.151 368.98 745.471C368.714 742.791 367.394 740.327 365.311 738.62C363.227 736.913 360.55 736.104 357.87 736.37L326.2 739.512Z" fill="#FFB9B9"/>
<path d="M298.662 737.172C298.708 744.062 301.476 750.655 306.364 755.514C311.251 760.373 317.862 763.104 324.755 763.112H329.962L333.753 731.53L302.364 720.233L298.662 737.172Z" fill="#E6E6E6"/>
<path d="M1391 415H773.403V740.182H1391V415Z" fill="#E6E6E6"/>
<path d="M791.391 722.2H1373.01V432.982H791.391V722.2Z" fill="white"/>
<path d="M1043.23 474.941H836.362V681.739H1043.23V474.941Z" fill="#3F3D56"/>
<path d="M993.759 569.349C997.07 569.349 999.755 566.666 999.755 563.355C999.755 560.045 997.07 557.361 993.759 557.361C990.447 557.361 987.763 560.045 987.763 563.355C987.763 566.666 990.447 569.349 993.759 569.349Z" fill="#4FD1C5"/>
<path d="M971.273 548.37C974.585 548.37 977.27 545.686 977.27 542.376C977.27 539.065 974.585 536.381 971.273 536.381C967.962 536.381 965.277 539.065 965.277 542.376C965.277 545.686 967.962 548.37 971.273 548.37Z" fill="#4FD1C5"/>
<path d="M968.276 563.355C966.069 563.356 963.906 563.968 962.028 565.125C960.373 562.637 958.429 560.356 956.235 558.328C956.26 558.008 956.283 557.687 956.283 557.361C956.285 555.009 955.594 552.708 954.297 550.746C952.999 548.784 951.152 547.247 948.987 546.327C946.821 545.407 944.433 545.145 942.119 545.573C939.806 546.001 937.669 547.1 935.976 548.734C932.765 548.278 929.508 548.25 926.289 548.65C926.291 548.556 926.303 548.464 926.303 548.37C926.305 546.363 925.804 544.388 924.845 542.625C923.886 540.863 922.499 539.369 920.812 538.281C919.126 537.193 917.193 536.546 915.191 536.399C913.189 536.252 911.182 536.609 909.354 537.438C907.527 538.268 905.936 539.542 904.729 541.146C903.522 542.749 902.737 544.629 902.446 546.615C902.154 548.6 902.366 550.627 903.062 552.509C903.757 554.391 904.914 556.069 906.427 557.388C904.419 559.107 902.598 561.033 900.994 563.133C899.514 561.902 897.758 561.045 895.877 560.635C893.995 560.225 892.043 560.274 890.184 560.778C888.326 561.282 886.616 562.226 885.2 563.53C883.783 564.834 882.702 566.46 882.047 568.271C881.392 570.081 881.183 572.023 881.437 573.931C881.692 575.839 882.402 577.658 883.508 579.234C884.615 580.809 886.084 582.095 887.793 582.983C889.501 583.871 891.399 584.335 893.324 584.335L893.362 584.333C893.343 584.831 893.324 585.33 893.324 585.833C893.325 588.849 893.689 591.855 894.409 594.784C890.845 596.125 887.68 598.348 885.212 601.247C882.743 604.145 881.051 607.623 880.296 611.354C879.54 615.086 879.745 618.947 880.891 622.578C882.038 626.208 884.088 629.487 886.85 632.108C889.611 634.729 892.994 636.606 896.68 637.562C900.366 638.518 904.234 638.522 907.922 637.574C911.61 636.626 914.997 634.757 917.764 632.142C920.532 629.527 922.589 626.252 923.743 622.624C932.085 624.227 940.724 622.946 948.241 618.991C949.008 620.798 950.208 622.388 951.734 623.623C953.26 624.858 955.066 625.699 956.993 626.074C958.92 626.448 960.91 626.344 962.787 625.77C964.665 625.196 966.373 624.17 967.761 622.782C969.149 621.394 970.175 619.687 970.749 617.81C971.323 615.933 971.428 613.944 971.053 612.018C970.679 610.091 969.837 608.286 968.602 606.76C967.367 605.235 965.776 604.036 963.969 603.269C966.566 598.341 968.024 592.895 968.238 587.33L968.276 587.332C971.456 587.332 974.506 586.069 976.755 583.82C979.004 581.572 980.268 578.523 980.268 575.343C980.268 572.164 979.004 569.115 976.755 566.866C974.506 564.618 971.456 563.355 968.276 563.355V563.355Z" fill="#4FD1C5"/>
<path d="M965.278 470.446H905.317V479.437H965.278V470.446Z" fill="#E6E6E6"/>
<path d="M1307.05 474.941H1100.19V681.739H1307.05V474.941Z" fill="#3F3D56"/>
<path d="M1242.9 615.204C1244.39 615.204 1245.59 613.997 1245.59 612.507C1245.59 611.017 1244.39 609.81 1242.9 609.81C1241.41 609.81 1240.2 611.017 1240.2 612.507C1240.2 613.997 1241.41 615.204 1242.9 615.204Z" fill="#4FD1C5"/>
<path d="M1232.78 605.764C1234.27 605.764 1235.48 604.556 1235.48 603.066C1235.48 601.577 1234.27 600.369 1232.78 600.369C1231.29 600.369 1230.08 601.577 1230.08 603.066C1230.08 604.556 1231.29 605.764 1232.78 605.764Z" fill="#4FD1C5"/>
<path d="M1231.43 612.507C1230.44 612.507 1229.46 612.783 1228.62 613.304C1227.87 612.184 1227 611.157 1226.01 610.245C1226.02 610.101 1226.03 609.957 1226.03 609.81C1226.03 608.751 1225.72 607.716 1225.14 606.833C1224.55 605.95 1223.72 605.258 1222.75 604.844C1221.77 604.43 1220.7 604.312 1219.66 604.505C1218.62 604.698 1217.66 605.192 1216.89 605.928C1215.45 605.723 1213.98 605.71 1212.53 605.89C1212.54 605.847 1212.54 605.806 1212.54 605.764C1212.54 604.861 1212.32 603.972 1211.89 603.179C1211.45 602.386 1210.83 601.713 1210.07 601.224C1209.31 600.734 1208.44 600.443 1207.54 600.377C1206.64 600.311 1205.74 600.471 1204.91 600.845C1204.09 601.218 1203.38 601.791 1202.83 602.513C1202.29 603.234 1201.94 604.081 1201.81 604.974C1201.67 605.867 1201.77 606.779 1202.08 607.626C1202.4 608.473 1202.92 609.228 1203.6 609.822C1202.69 610.596 1201.87 611.462 1201.15 612.407C1200.49 611.853 1199.7 611.467 1198.85 611.283C1198 611.099 1197.12 611.121 1196.29 611.347C1195.45 611.574 1194.68 611.999 1194.04 612.586C1193.41 613.173 1192.92 613.905 1192.63 614.719C1192.33 615.534 1192.24 616.407 1192.35 617.266C1192.47 618.125 1192.79 618.943 1193.28 619.652C1193.78 620.361 1194.44 620.94 1195.21 621.34C1195.98 621.739 1196.83 621.948 1197.7 621.948L1197.72 621.947C1197.71 622.171 1197.7 622.396 1197.7 622.622C1197.7 623.98 1197.86 625.332 1198.19 626.65C1196.59 627.253 1195.16 628.254 1194.05 629.558C1192.94 630.863 1192.18 632.428 1191.84 634.107C1191.5 635.786 1191.59 637.524 1192.11 639.157C1192.62 640.791 1193.54 642.266 1194.79 643.446C1196.03 644.625 1197.55 645.47 1199.21 645.9C1200.87 646.33 1202.61 646.332 1204.27 645.906C1205.93 645.479 1207.45 644.638 1208.7 643.461C1209.94 642.284 1210.87 640.811 1211.39 639.178C1215.14 639.899 1219.03 639.323 1222.41 637.543C1222.76 638.356 1223.3 639.072 1223.99 639.628C1224.67 640.183 1225.48 640.562 1226.35 640.73C1227.22 640.899 1228.11 640.852 1228.96 640.594C1229.8 640.335 1230.57 639.874 1231.2 639.249C1231.82 638.625 1232.28 637.856 1232.54 637.012C1232.8 636.167 1232.85 635.272 1232.68 634.405C1232.51 633.538 1232.13 632.726 1231.58 632.039C1231.02 631.353 1230.3 630.813 1229.49 630.468C1230.66 628.251 1231.32 625.8 1231.41 623.296L1231.43 623.297C1232.86 623.297 1234.23 622.728 1235.24 621.717C1236.26 620.705 1236.83 619.333 1236.83 617.902C1236.83 616.471 1236.26 615.099 1235.24 614.087C1234.23 613.075 1232.86 612.507 1231.43 612.507V612.507Z" fill="#4FD1C5"/>
<path d="M1264.07 564.017C1265.56 564.017 1266.76 562.809 1266.76 561.32C1266.76 559.83 1265.56 558.622 1264.07 558.622C1262.58 558.622 1261.37 559.83 1261.37 561.32C1261.37 562.809 1262.58 564.017 1264.07 564.017Z" fill="#4FD1C5"/>
<path d="M1270.41 551.721C1271.9 551.721 1273.11 550.514 1273.11 549.024C1273.11 547.534 1271.9 546.327 1270.41 546.327C1268.92 546.327 1267.71 547.534 1267.71 549.024C1267.71 550.514 1268.92 551.721 1270.41 551.721Z" fill="#4FD1C5"/>
<path d="M1260.96 550.285C1260.69 549.33 1260.16 548.468 1259.43 547.796C1260.3 546.776 1261.06 545.655 1261.67 544.458C1261.81 544.43 1261.95 544.401 1262.09 544.361C1263.11 544.075 1264.02 543.495 1264.72 542.694C1265.41 541.893 1265.85 540.906 1265.98 539.856C1266.12 538.806 1265.94 537.74 1265.47 536.79C1265 535.84 1264.27 535.049 1263.35 534.516C1263.16 533.07 1262.77 531.656 1262.21 530.311C1262.25 530.3 1262.29 530.294 1262.33 530.283C1263.2 530.039 1263.99 529.581 1264.64 528.95C1265.29 528.32 1265.77 527.537 1266.03 526.674C1266.3 525.811 1266.34 524.895 1266.16 524.011C1265.98 523.126 1265.58 522.3 1265 521.61C1264.42 520.92 1263.67 520.387 1262.83 520.06C1261.99 519.733 1261.08 519.622 1260.18 519.738C1259.28 519.854 1258.43 520.193 1257.7 520.724C1256.97 521.255 1256.38 521.96 1256 522.776C1255.01 522.116 1253.95 521.563 1252.85 521.124C1253.2 520.333 1253.36 519.469 1253.3 518.604C1253.25 517.739 1252.99 516.9 1252.55 516.156C1252.1 515.413 1251.48 514.788 1250.75 514.334C1250.01 513.879 1249.17 513.609 1248.31 513.547C1247.44 513.484 1246.58 513.63 1245.78 513.973C1244.99 514.316 1244.28 514.846 1243.74 515.517C1243.19 516.188 1242.81 516.981 1242.63 517.829C1242.46 518.678 1242.49 519.556 1242.72 520.39L1242.73 520.406C1242.51 520.458 1242.29 520.511 1242.07 520.572C1240.77 520.941 1239.51 521.465 1238.33 522.134C1237.31 520.754 1235.96 519.655 1234.41 518.94C1232.85 518.224 1231.14 517.916 1229.43 518.044C1227.72 518.172 1226.07 518.732 1224.64 519.671C1223.2 520.61 1222.03 521.898 1221.23 523.413C1220.44 524.929 1220.03 526.623 1220.07 528.335C1220.11 530.048 1220.58 531.724 1221.44 533.205C1222.3 534.686 1223.52 535.925 1224.99 536.804C1226.46 537.683 1228.13 538.175 1229.84 538.232C1230.17 542.039 1231.78 545.624 1234.41 548.396C1233.72 548.949 1233.17 549.663 1232.83 550.474C1232.48 551.285 1232.33 552.17 1232.4 553.05C1232.48 553.93 1232.77 554.779 1233.24 555.522C1233.72 556.265 1234.37 556.879 1235.14 557.311C1235.92 557.743 1236.78 557.979 1237.66 557.999C1238.55 558.018 1239.42 557.821 1240.21 557.424C1241 557.027 1241.68 556.442 1242.19 555.721C1242.7 555 1243.03 554.165 1243.14 553.289C1245.59 553.812 1248.13 553.78 1250.56 553.193L1250.57 553.21C1250.76 553.892 1251.08 554.53 1251.52 555.087C1251.96 555.644 1252.5 556.109 1253.12 556.456C1253.74 556.803 1254.42 557.025 1255.13 557.108C1255.83 557.192 1256.54 557.136 1257.23 556.944C1257.91 556.752 1258.55 556.427 1259.1 555.988C1259.66 555.55 1260.13 555.006 1260.47 554.387C1260.82 553.769 1261.04 553.088 1261.12 552.384C1261.21 551.68 1261.15 550.967 1260.96 550.285V550.285Z" fill="#4FD1C5"/>
<path d="M1159.56 527.363C1161.05 527.363 1162.26 526.155 1162.26 524.665C1162.26 523.175 1161.05 521.968 1159.56 521.968C1158.07 521.968 1156.86 523.175 1156.86 524.665C1156.86 526.155 1158.07 527.363 1159.56 527.363Z" fill="#4FD1C5"/>
<path d="M1145.76 528.467C1147.25 528.467 1148.46 527.26 1148.46 525.77C1148.46 524.28 1147.25 523.073 1145.76 523.073C1144.27 523.073 1143.06 524.28 1143.06 525.77C1143.06 527.26 1144.27 528.467 1145.76 528.467Z" fill="#4FD1C5"/>
<path d="M1151.83 533.131C1151.16 533.864 1150.7 534.769 1150.52 535.744C1149.19 535.539 1147.84 535.493 1146.5 535.606C1146.4 535.501 1146.3 535.396 1146.2 535.297C1145.41 534.583 1144.44 534.114 1143.39 533.95C1142.35 533.786 1141.28 533.933 1140.31 534.373C1139.35 534.813 1138.54 535.527 1137.98 536.426C1137.42 537.325 1137.14 538.368 1137.17 539.426C1136.04 540.355 1135.04 541.428 1134.2 542.619C1134.17 542.59 1134.14 542.558 1134.11 542.529C1133.44 541.92 1132.64 541.487 1131.76 541.271C1130.88 541.055 1129.96 541.062 1129.09 541.292C1128.22 541.523 1127.42 541.968 1126.76 542.589C1126.1 543.209 1125.61 543.984 1125.33 544.843C1125.06 545.702 1125 546.617 1125.16 547.505C1125.33 548.392 1125.72 549.224 1126.29 549.923C1126.86 550.622 1127.6 551.166 1128.43 551.506C1129.27 551.846 1130.18 551.971 1131.08 551.869C1131.04 553.057 1131.13 554.247 1131.34 555.417C1130.48 555.535 1129.66 555.858 1128.96 556.359C1128.25 556.86 1127.67 557.523 1127.28 558.293C1126.88 559.064 1126.68 559.918 1126.68 560.785C1126.68 561.651 1126.9 562.503 1127.3 563.27C1127.7 564.037 1128.28 564.696 1129 565.19C1129.71 565.684 1130.53 566 1131.39 566.111C1132.25 566.221 1133.12 566.123 1133.93 565.825C1134.75 565.527 1135.48 565.037 1136.06 564.397L1136.07 564.384C1136.23 564.542 1136.39 564.699 1136.56 564.852C1137.56 565.767 1138.67 566.558 1139.86 567.207C1139.23 568.798 1139.01 570.524 1139.22 572.224C1139.44 573.924 1140.08 575.541 1141.09 576.924C1142.1 578.307 1143.45 579.41 1145 580.131C1146.56 580.852 1148.27 581.165 1149.98 581.043C1151.69 580.921 1153.34 580.366 1154.77 579.432C1156.21 578.497 1157.39 577.213 1158.19 575.701C1158.99 574.188 1159.4 572.495 1159.37 570.783C1159.34 569.07 1158.87 567.393 1158.02 565.909C1161.08 563.623 1163.28 560.365 1164.24 556.668C1165.08 556.961 1165.97 557.045 1166.84 556.912C1167.72 556.78 1168.54 556.436 1169.25 555.909C1169.96 555.382 1170.53 554.689 1170.91 553.891C1171.29 553.094 1171.47 552.215 1171.43 551.333C1171.39 550.45 1171.13 549.591 1170.68 548.831C1170.23 548.071 1169.6 547.433 1168.85 546.973C1168.09 546.513 1167.24 546.245 1166.36 546.192C1165.47 546.14 1164.59 546.304 1163.79 546.672C1162.94 544.314 1161.57 542.177 1159.79 540.418L1159.8 540.406C1160.28 539.883 1160.65 539.271 1160.89 538.604C1161.13 537.938 1161.24 537.23 1161.21 536.522C1161.18 535.813 1161.01 535.118 1160.7 534.476C1160.4 533.834 1159.98 533.257 1159.46 532.779C1158.93 532.301 1158.32 531.931 1157.65 531.69C1156.98 531.449 1156.28 531.341 1155.57 531.374C1154.86 531.407 1154.16 531.579 1153.52 531.88C1152.88 532.182 1152.3 532.607 1151.83 533.131V533.131Z" fill="#4FD1C5"/>
<path d="M1229.11 470.446H1169.14V479.437H1229.11V470.446Z" fill="#E6E6E6"/>
<path d="M147.74 1179.62C169.355 1208.56 214.225 1211.6 214.225 1211.6C214.225 1211.6 224.049 1167.73 202.433 1138.79C180.818 1109.85 135.949 1106.81 135.949 1106.81C135.949 1106.81 126.125 1150.68 147.74 1179.62Z" fill="#E6E6E6"/>
<path d="M257.853 1190.5C243.59 1209.59 213.982 1211.6 213.982 1211.6C213.982 1211.6 207.499 1182.65 221.763 1163.56C236.026 1144.46 265.634 1142.45 265.634 1142.45C265.634 1142.45 272.117 1171.4 257.853 1190.5Z" fill="#E6E6E6"/>
<path d="M888.827 1277.64H110V1281H888.827V1277.64Z" fill="#3F3D56"/>
<circle cx="418" cy="525" r="6" fill="#626474"/>
<circle cx="455" cy="525" r="6" fill="#626474"/>
</svg>
