<svg width="1500" height="1500" viewBox="0 0 1500 1500" fill="none" xmlns="http://www.w3.org/2000/svg">
<path d="M548.239 1074.73C602.837 1074.73 647.098 1030.44 647.098 975.817C647.098 921.19 602.837 876.906 548.239 876.906C493.641 876.906 449.38 921.19 449.38 975.817C449.38 1030.44 493.641 1074.73 548.239 1074.73Z" fill="#E5E5E5"/>
<path opacity="0.2" d="M475.245 909.752C466.023 931.334 464.773 955.493 471.716 977.913C478.659 1000.33 493.343 1019.55 513.145 1032.14C532.947 1044.72 556.576 1049.85 579.81 1046.61C603.044 1043.36 624.368 1031.96 639.973 1014.44C634.34 1027.62 625.909 1039.43 615.265 1049.03C604.62 1058.63 592.016 1065.8 578.326 1070.04C564.637 1074.29 550.188 1075.5 535.982 1073.61C521.776 1071.71 508.152 1066.75 496.054 1059.06C483.956 1051.37 473.674 1041.14 465.919 1029.08C458.164 1017.02 453.122 1003.42 451.142 989.219C449.163 975.017 450.293 960.554 454.455 946.832C458.617 933.111 465.711 920.458 475.245 909.752V909.752Z" fill="black"/>
<path d="M548.511 975.816H548.783L553.671 1256.25H543.351L548.511 975.816Z" fill="#CBCBCB"/>
<path d="M720.479 935.118C786.242 935.118 839.553 881.778 839.553 815.981C839.553 750.183 786.242 696.844 720.479 696.844C654.716 696.844 601.404 750.183 601.404 815.981C601.404 881.778 654.716 935.118 720.479 935.118Z" fill="#E5E5E5"/>
<path opacity="0.2" d="M808.4 736.406C819.507 762.401 821.013 791.501 812.651 818.505C804.288 845.509 786.601 868.658 762.749 883.816C738.898 898.973 710.437 905.151 682.452 901.246C654.467 897.341 628.782 883.607 609.986 862.498C616.771 878.38 626.926 892.596 639.748 904.161C652.569 915.726 667.75 924.364 684.239 929.477C700.728 934.589 718.131 936.053 735.242 933.768C752.353 931.483 768.763 925.503 783.335 916.243C797.907 906.982 810.292 894.663 819.633 880.138C828.974 865.613 835.047 849.23 837.431 832.124C839.815 815.017 838.453 797.597 833.441 781.069C828.428 764.542 819.883 749.302 808.4 736.406V736.406Z" fill="black"/>
<path d="M720.152 815.981H719.825L713.937 1153.75H726.368L720.152 815.981Z" fill="#CBCBCB"/>
<path d="M499.431 704.384L515.598 691.447C503.039 690.06 497.878 696.914 495.766 702.338C485.954 698.262 475.272 703.604 475.272 703.604L507.62 715.354C505.988 710.993 503.147 707.188 499.431 704.384V704.384Z" fill="#CBCBCB"/>
<path d="M458.677 592.744L474.844 579.806C462.285 578.42 457.124 585.273 455.012 590.698C445.2 586.621 434.518 591.964 434.518 591.964L466.866 603.713C465.234 599.352 462.394 595.547 458.677 592.744Z" fill="#CBCBCB"/>
<path d="M687.708 664.924L703.875 651.986C691.315 650.6 686.155 657.453 684.043 662.878C674.231 658.801 663.549 664.144 663.549 664.144L695.897 675.893C694.265 671.532 691.424 667.727 687.708 664.924V664.924Z" fill="#CBCBCB"/>
<path d="M671.732 1153.24C671.732 1153.24 672.351 1140.27 685.032 1141.78Z" fill="#CBCBCB"/>
<path d="M757.879 1153.24C757.879 1153.24 758.498 1140.27 771.179 1141.78Z" fill="#CBCBCB"/>
<path d="M732.795 1153.24C732.795 1153.24 733.414 1140.27 746.096 1141.78Z" fill="#CBCBCB"/>
<path d="M648.656 1153.24C648.656 1153.24 648.037 1140.27 635.355 1141.78Z" fill="#CBCBCB"/>
<path d="M702.405 1154.13C702.405 1154.13 701.787 1141.16 689.105 1142.67Z" fill="#CBCBCB"/>
<path d="M505.117 1255.11C505.117 1255.11 505.735 1242.14 518.417 1243.65Z" fill="#CBCBCB"/>
<path d="M591.264 1255.11C591.264 1255.11 591.882 1242.14 604.564 1243.65Z" fill="#CBCBCB"/>
<path d="M566.181 1255.11C566.181 1255.11 566.799 1242.14 579.481 1243.65Z" fill="#CBCBCB"/>
<path d="M482.041 1255.11C482.041 1255.11 481.423 1242.14 468.741 1243.65Z" fill="#CBCBCB"/>
<path d="M535.791 1256.01C535.791 1256.01 535.172 1243.04 522.49 1244.55Z" fill="#CBCBCB"/>
<path d="M1158.78 647.164H993.008V661.944H1158.78V647.164Z" fill="#3F3D56"/>
<path d="M1158.78 701.61H993.008V716.39H1158.78V701.61Z" fill="#3F3D56"/>
<path d="M1158.78 750.386H993.008V765.165H1158.78V750.386Z" fill="#3F3D56"/>
<path d="M930.654 654.554C930.654 650.74 931.785 647.012 933.902 643.84C936.02 640.669 939.03 638.198 942.552 636.738C946.074 635.279 949.949 634.897 953.687 635.641C957.426 636.385 960.86 638.221 963.555 640.918C966.251 643.615 968.086 647.051 968.83 650.792C969.574 654.532 969.192 658.409 967.733 661.933C966.275 665.457 963.804 668.468 960.635 670.587C957.465 672.706 953.739 673.837 949.927 673.837V673.837C944.818 673.831 939.919 671.798 936.306 668.183C932.692 664.568 930.66 659.666 930.654 654.554V654.554Z" fill="#4FD1C5"/>
<path d="M930.654 709C930.654 705.186 931.785 701.458 933.902 698.287C936.02 695.116 939.03 692.644 942.552 691.185C946.074 689.725 949.949 689.344 953.687 690.088C957.426 690.832 960.86 692.668 963.555 695.365C966.251 698.062 968.086 701.498 968.83 705.238C969.574 708.979 969.192 712.856 967.733 716.38C966.275 719.903 963.804 722.915 960.635 725.034C957.465 727.153 953.739 728.283 949.927 728.283C944.818 728.278 939.919 726.244 936.306 722.629C932.692 719.014 930.66 714.113 930.654 709V709Z" fill="#4FD1C5"/>
<path d="M930.654 757.775C930.654 753.962 931.785 750.233 933.902 747.062C936.02 743.891 939.03 741.42 942.552 739.96C946.074 738.501 949.949 738.119 953.687 738.863C957.426 739.607 960.86 741.443 963.555 744.14C966.251 746.837 968.086 750.273 968.83 754.013C969.574 757.754 969.192 761.631 967.733 765.155C966.275 768.678 963.804 771.69 960.635 773.809C957.465 775.928 953.739 777.059 949.927 777.059V777.059C944.818 777.053 939.919 775.02 936.306 771.404C932.692 767.789 930.66 762.888 930.654 757.775V757.775Z" fill="#4FD1C5"/>
<path d="M768.198 784.364L765.762 782.472L828.164 702.081H909.776V705.168H829.674L768.198 784.364Z" fill="#3F3D56"/>
<path d="M283.775 823.128H118V837.908H283.775V823.128Z" fill="#3F3D56"/>
<path d="M283.775 877.574H118V892.354H283.775V877.574Z" fill="#3F3D56"/>
<path d="M283.775 926.35H118V941.129H283.775V926.35Z" fill="#3F3D56"/>
<path d="M326.856 849.801C323.044 849.801 319.318 848.67 316.149 846.551C312.979 844.432 310.509 841.421 309.05 837.897C307.591 834.373 307.21 830.496 307.953 826.756C308.697 823.015 310.533 819.579 313.228 816.882C315.923 814.185 319.357 812.349 323.096 811.605C326.835 810.861 330.71 811.243 334.232 812.702C337.753 814.162 340.763 816.633 342.881 819.804C344.999 822.976 346.129 826.704 346.129 830.518C346.129 833.05 345.631 835.557 344.662 837.897C343.694 840.237 342.274 842.362 340.484 844.153C338.695 845.944 336.57 847.364 334.232 848.333C331.893 849.302 329.387 849.801 326.856 849.801Z" fill="#4FD1C5"/>
<path d="M326.856 904.247C323.044 904.247 319.318 903.117 316.148 900.998C312.979 898.879 310.509 895.867 309.05 892.344C307.591 888.82 307.21 884.943 307.953 881.202C308.697 877.462 310.533 874.026 313.228 871.329C315.923 868.632 319.357 866.796 323.096 866.052C326.835 865.308 330.71 865.689 334.232 867.149C337.753 868.608 340.763 871.08 342.881 874.251C344.999 877.422 346.129 881.15 346.129 884.964C346.129 887.497 345.631 890.004 344.662 892.344C343.693 894.683 342.274 896.809 340.484 898.6C338.694 900.39 336.57 901.811 334.231 902.78C331.893 903.749 329.387 904.247 326.856 904.247H326.856Z" fill="#4FD1C5"/>
<path d="M326.856 953.023C323.044 953.023 319.318 951.892 316.149 949.773C312.979 947.654 310.509 944.642 309.05 941.119C307.591 937.595 307.21 933.718 307.953 929.977C308.697 926.237 310.533 922.801 313.228 920.104C315.923 917.407 319.358 915.571 323.096 914.827C326.835 914.083 330.71 914.465 334.232 915.924C337.753 917.384 340.763 919.855 342.881 923.026C344.999 926.197 346.129 929.926 346.129 933.739C346.129 936.272 345.631 938.779 344.662 941.119C343.693 943.458 342.274 945.584 340.484 947.375C338.694 949.165 336.57 950.586 334.231 951.555C331.893 952.524 329.387 953.023 326.856 953.023H326.856Z" fill="#4FD1C5"/>
<path d="M508.587 960.328L447.109 881.132H367.009V878.045H448.619L449.082 878.643L511.023 958.436L508.587 960.328Z" fill="#3F3D56"/>
<path d="M859.494 424.893H693.719V439.673H859.494V424.893Z" fill="#3F3D56"/>
<path d="M859.494 479.34H693.719V494.12H859.494V479.34Z" fill="#3F3D56"/>
<path d="M859.494 528.115H693.719V542.895H859.494V528.115Z" fill="#3F3D56"/>
<path d="M631.365 432.283C631.365 428.469 632.495 424.741 634.613 421.57C636.731 418.399 639.741 415.927 643.262 414.468C646.784 413.008 650.659 412.626 654.398 413.371C658.136 414.115 661.571 415.951 664.266 418.648C666.961 421.345 668.797 424.781 669.541 428.521C670.284 432.262 669.902 436.139 668.444 439.663C666.985 443.186 664.515 446.198 661.345 448.317C658.176 450.435 654.45 451.566 650.638 451.566V451.566C645.528 451.561 640.629 449.527 637.016 445.912C633.403 442.297 631.37 437.396 631.365 432.283V432.283Z" fill="#4FD1C5"/>
<path d="M631.365 486.73C631.365 482.916 632.495 479.188 634.613 476.017C636.731 472.846 639.741 470.374 643.262 468.915C646.784 467.455 650.659 467.073 654.398 467.817C658.136 468.561 661.571 470.398 664.266 473.095C666.961 475.791 668.797 479.227 669.541 482.968C670.284 486.708 669.902 490.586 668.444 494.109C666.985 497.633 664.515 500.644 661.345 502.763C658.176 504.882 654.45 506.013 650.638 506.013V506.013C645.528 506.007 640.629 503.974 637.016 500.359C633.403 496.744 631.37 491.842 631.365 486.73Z" fill="#4FD1C5"/>
<path d="M631.365 535.505C631.365 531.691 632.495 527.963 634.613 524.792C636.731 521.621 639.741 519.149 643.262 517.69C646.784 516.23 650.659 515.848 654.398 516.592C658.136 517.336 661.571 519.173 664.266 521.87C666.961 524.567 668.797 528.003 669.541 531.743C670.284 535.484 669.902 539.361 668.444 542.884C666.985 546.408 664.515 549.42 661.345 551.538C658.176 553.657 654.45 554.788 650.638 554.788C645.528 554.783 640.629 552.749 637.016 549.134C633.403 545.519 631.37 540.618 631.365 535.505V535.505Z" fill="#4FD1C5"/>
<path d="M468.908 562.094L466.472 560.202L528.874 479.811H610.486V482.898H530.384L468.908 562.094Z" fill="#3F3D56"/>
<path d="M1286.52 1344.25H1276.1L1271.15 1304.06H1286.52L1286.52 1344.25Z" fill="#FFB7B7"/>
<path d="M1289.17 1354.35L1255.6 1354.35V1353.92C1255.6 1350.46 1256.97 1347.13 1259.42 1344.68C1261.88 1342.23 1265.2 1340.85 1268.67 1340.85H1268.67L1289.17 1340.85L1289.17 1354.35Z" fill="#2F2E41"/>
<path d="M1241.78 1344.25H1231.37L1226.41 1304.06H1241.78L1241.78 1344.25Z" fill="#FFB7B7"/>
<path d="M1244.43 1354.35L1210.86 1354.35V1353.92C1210.86 1350.46 1212.23 1347.13 1214.69 1344.68C1217.14 1342.23 1220.46 1340.85 1223.93 1340.85H1223.93L1244.43 1340.85L1244.43 1354.35Z" fill="#2F2E41"/>
<path d="M1218.07 1080.6L1203.96 1103.05L1227.65 1329.58L1252.4 1331.08L1257.6 1135.43L1266.28 1240.01L1262.85 1331.08L1288.34 1332.31L1303.48 1200.18L1314.88 1095.69L1292.51 1074.85L1218.07 1080.6Z" fill="#8F98EE"/>
<path d="M1284.02 908.916L1245.46 910.459L1209.72 1086.86C1209.72 1086.86 1267.81 1115.7 1291.34 1089.49L1305.49 1079.12L1284.02 908.916Z" fill="#4FD1C5"/>
<path d="M1284.02 908.916L1317.96 928.707L1305.43 1011.56L1316.42 1096.04L1280.71 1090.22C1280.71 1090.22 1273.4 1011.56 1278.14 986.865C1282.89 962.168 1284.02 908.916 1284.02 908.916Z" fill="#3F3D56"/>
<path d="M1245.46 910.459L1204.84 931.315L1207.94 1023.07L1186.98 1092.6C1186.98 1092.6 1228.77 1105.98 1235.96 1085.01C1243.14 1064.04 1245.46 910.459 1245.46 910.459Z" fill="#3F3D56"/>
<path d="M1300.3 1116.95C1301.66 1116.29 1302.85 1115.34 1303.8 1114.17C1304.75 1112.99 1305.43 1111.63 1305.79 1110.16C1306.15 1108.7 1306.19 1107.18 1305.9 1105.7C1305.61 1104.22 1305 1102.82 1304.11 1101.6L1316.37 1081.48L1305.96 1071.04L1289.05 1099.7C1287.11 1101.33 1285.83 1103.62 1285.45 1106.13C1285.08 1108.64 1285.64 1111.2 1287.02 1113.33C1288.41 1115.45 1290.53 1116.99 1292.98 1117.66C1295.42 1118.33 1298.03 1118.08 1300.3 1116.95V1116.95Z" fill="#FFB7B7"/>
<path d="M1300.35 939.993L1316.53 927.163C1316.53 927.163 1331.83 939.692 1331.45 951.702C1331.08 963.712 1335.66 1027.69 1335.66 1027.69L1310.41 1103.73L1291.6 1088.68L1313.63 1029.31L1296.27 978.657L1300.35 939.993Z" fill="#3F3D56"/>
<path d="M1195.74 1120.53C1194.49 1119.69 1193.45 1118.58 1192.67 1117.28C1191.9 1115.99 1191.42 1114.54 1191.27 1113.04C1191.11 1111.54 1191.29 1110.03 1191.78 1108.6C1192.28 1107.18 1193.08 1105.88 1194.13 1104.8L1184.83 1083.15L1196.6 1074.29L1209.31 1105.04C1211 1106.93 1211.95 1109.37 1211.97 1111.91C1211.99 1114.45 1211.07 1116.91 1209.4 1118.82C1207.73 1120.73 1205.41 1121.95 1202.9 1122.27C1200.38 1122.59 1197.83 1121.97 1195.74 1120.53V1120.53Z" fill="#FFB7B7"/>
<path d="M1220.6 945.332L1206.38 930.351C1206.38 930.351 1189.47 940.6 1188.16 952.543C1186.84 964.486 1173.3 1027.18 1173.3 1027.18L1187.6 1106.02L1208.33 1093.77L1194.88 1031.89L1219.19 984.185L1220.6 945.332Z" fill="#3F3D56"/>
<path d="M1265.97 897.386C1280.52 897.386 1292.31 885.585 1292.31 871.029C1292.31 856.472 1280.52 844.672 1265.97 844.672C1251.42 844.672 1239.63 856.472 1239.63 871.029C1239.63 885.585 1251.42 897.386 1265.97 897.386Z" fill="#FFB7B7"/>
<path d="M1259.6 847.625C1256.94 847.155 1254.31 848.366 1251.84 849.471C1249.38 850.576 1246.62 851.623 1244.04 850.832C1242.85 850.381 1241.78 849.652 1240.93 848.706C1240.08 847.76 1239.46 846.624 1239.14 845.392C1238.51 842.926 1238.29 840.374 1238.47 837.836L1241.28 839.458L1239.36 836.235L1266.7 833.212C1274.97 832.298 1284.25 831.66 1290.68 836.941C1293.96 839.92 1296.34 843.751 1297.57 848.008C1303.03 864.723 1309.23 889.078 1281.22 894.047C1277.31 892.966 1283.68 878.588 1283.62 874.536C1283.55 870.483 1281.32 865.928 1277.32 865.306L1274.39 869.384C1276.26 866.774 1269.61 858.298 1267.95 856.644C1266.46 855.38 1265.12 853.955 1263.94 852.393C1262.62 850.365 1262.6 848.156 1259.6 847.625Z" fill="#626474"/>
<path d="M1380.46 1355H1104.31C1103.9 1355 1103.51 1354.84 1103.22 1354.55C1102.93 1354.26 1102.77 1353.87 1102.77 1353.46C1102.77 1353.05 1102.93 1352.65 1103.22 1352.37C1103.51 1352.08 1103.9 1351.91 1104.31 1351.91H1380.46C1380.87 1351.91 1381.26 1352.08 1381.55 1352.37C1381.84 1352.65 1382 1353.05 1382 1353.46C1382 1353.87 1381.84 1354.26 1381.55 1354.55C1381.26 1354.84 1380.87 1355 1380.46 1355Z" fill="#CBCBCB"/>
<path d="M913.128 296C941.295 296 964.128 273.167 964.128 245C964.128 216.833 941.295 194 913.128 194C884.962 194 862.128 216.833 862.128 245C862.128 273.167 884.962 296 913.128 296Z" fill="#4FD1C5"/>
<path d="M1005.16 205.87C980.447 202.529 952.229 215.889 945.823 239.994C944.208 235.708 941.273 232.046 937.441 229.538C933.609 227.029 929.079 225.804 924.506 226.039C919.932 226.273 915.551 227.956 911.996 230.844C908.441 233.731 905.896 237.674 904.729 242.103L907.559 244.129C960.526 255.584 1015.36 255.336 1068.22 243.403C1051.02 225.334 1029.88 209.211 1005.16 205.87Z" fill="#F0F0F0"/>
<path d="M899.164 273.87C874.447 270.529 846.229 283.889 839.823 307.994C838.208 303.708 835.273 300.046 831.441 297.538C827.609 295.029 823.079 293.804 818.506 294.039C813.932 294.273 809.551 295.956 805.996 298.844C802.441 301.731 799.896 305.674 798.729 310.103L801.559 312.129C854.526 323.584 909.356 323.336 962.218 311.403C945.025 293.334 923.881 277.211 899.164 273.87Z" fill="#F0F0F0"/>
<path d="M1114.89 286.728C1114.79 286.728 1114.69 286.713 1114.59 286.681C850.182 203.063 617.145 213.998 468.209 237.895C447.94 241.146 427.618 244.901 407.805 249.056C402.747 250.116 397.5 251.252 392.209 252.434C385.89 253.841 379.655 255.291 373.676 256.74C371.094 257.351 368.563 257.967 366.082 258.589C362.323 259.516 358.51 260.483 354.422 261.546C349.854 262.723 345.213 263.959 340.625 265.217C340.608 265.223 340.591 265.228 340.573 265.232L340.574 265.233C335.391 266.648 330.236 268.104 325.25 269.558C322.552 270.338 319.947 271.106 317.451 271.865C317.172 271.942 316.925 272.016 316.675 272.092L316.139 272.256C315.828 272.35 315.522 272.443 315.215 272.531L315.195 272.537L315.196 272.538L314.384 272.79C313.417 273.083 312.472 273.369 311.543 273.654C286.999 281.22 273.505 286.603 273.372 286.656C273.25 286.705 273.12 286.729 272.989 286.728C272.857 286.726 272.727 286.699 272.607 286.647C272.486 286.596 272.377 286.521 272.285 286.427C272.193 286.333 272.121 286.222 272.072 286.1C272.023 285.978 271.999 285.848 272 285.716C272.002 285.585 272.029 285.455 272.081 285.335C272.132 285.214 272.207 285.104 272.301 285.013C272.395 284.921 272.506 284.848 272.628 284.8C272.762 284.747 286.321 279.337 310.956 271.742C311.888 271.456 312.834 271.17 313.805 270.876L314.559 270.641C314.585 270.632 314.611 270.624 314.637 270.616C314.942 270.529 315.247 270.436 315.557 270.343L316.094 270.179C316.361 270.098 316.625 270.018 316.895 269.944C319.374 269.19 321.988 268.42 324.693 267.637C329.68 266.182 334.84 264.726 340.027 263.309C340.043 263.303 340.06 263.3 340.076 263.295V263.294C344.68 262.031 349.338 260.791 353.921 259.609C358.015 258.546 361.836 257.577 365.601 256.647C368.092 256.027 370.629 255.41 373.21 254.795C379.195 253.344 385.443 251.892 391.773 250.482C397.072 249.299 402.329 248.16 407.395 247.099C427.238 242.937 447.593 239.177 467.892 235.921C617.041 211.989 850.413 201.037 1115.19 284.775C1115.42 284.847 1115.61 284.998 1115.74 285.201C1115.87 285.403 1115.92 285.645 1115.88 285.881C1115.84 286.117 1115.72 286.332 1115.54 286.487C1115.36 286.643 1115.13 286.728 1114.89 286.728V286.728Z" fill="#CCCCCC"/>
<ellipse cx="1247" cy="872.5" rx="4" ry="4.5" fill="#626474"/>
</svg>
